font.ufo
<glyph name="exclam" format="1">
  <advance width="214"/>
  <unicode hex="0021"/>
  <outline>
    <contour>
      <point x="120" y="229" type="line"/>
      <point x="123" y="722" type="line"/>
      <point x="91" y="722" type="line"/>
      <point x="94" y="229" type="line"/>
    </contour>
    <contour>
      <point x="126" y="13" type="curve"/>
      <point x="126" y="24"/>
      <point x="119" y="30"/>
      <point x="107" y="30" type="curve"/>
      <point x="96" y="30"/>
      <point x="90" y="23"/>
      <point x="90" y="13" type="curve"/>
      <point x="129" y="13"/>
      <point x="87" y="13"/>
      <point x="126" y="13" type="curve"/>
      <point x="126" y="1"/>
      <point x="119" y="-5"/>
      <point x="107" y="-5" type="curve"/>
      <point x="96" y="-5"/>
      <point x="90" y="1"/>
      <point x="90" y="13" type="curve"/>
      <point x="129" y="13"/>
      <point x="87" y="13"/>
    </contour>
  </outline>
</glyph>
<glyph name="quotedbl" format="1">
  <advance width="330"/>
  <unicode hex="0022"/>
  <outline>
    <contour>
      <point x="119" y="516" type="line"/>
      <point x="122" y="704" type="line"/>
      <point x="91" y="704" type="line"/>
      <point x="94" y="516" type="line"/>
    </contour>
    <contour>
      <point x="236" y="516" type="line"/>
      <point x="239" y="704" type="line"/>
      <point x="208" y="704" type="line"/>
      <point x="211" y="516" type="line"/>
    </contour>
  </outline>
</glyph>
<glyph name="numbersign" format="1">
  <advance width="451"/>
  <unicode hex="0023"/>
  <outline>
    <contour>
      <point x="48" y="247" type="line"/>
      <point x="354" y="247" type="line"/>
      <point x="359" y="270" type="line"/>
      <point x="52" y="270" type="line"/>
    </contour>
    <contour>
      <point x="92" y="491" type="line"/>
      <point x="398" y="491" type="line"/>
      <point x="403" y="513" type="line"/>
      <point x="96" y="513" type="line"/>
    </contour>
    <contour>
      <point x="248" y="39" type="line"/>
      <point x="379" y="722" type="line"/>
      <point x="354" y="722" type="line"/>
      <point x="223" y="39" type="line"/>
    </contour>
    <contour>
      <point x="102" y="46" type="line"/>
      <point x="230" y="722" type="line"/>
      <point x="205" y="722" type="line"/>
      <point x="78" y="46" type="line"/>
    </contour>
  </outline>
</glyph>
<glyph name="dollar" format="1">
  <advance width="380"/>
  <unicode hex="0024"/>
  <outline>
    <contour>
      <point x="83" y="99" type="curve"/>
      <point x="83" y="219"/>
      <point x="83" y="99"/>
      <point x="83" y="219" type="curve"/>
      <point x="60" y="219"/>
      <point x="83" y="219"/>
      <point x="60" y="219" type="curve"/>
      <point x="60" y="99"/>
      <point x="60" y="219"/>
      <point x="60" y="99" type="curve"/>
      <point x="83" y="99"/>
      <point x="60" y="99"/>
    </contour>
    <contour>
      <point x="287" y="631" type="curve"/>
      <point x="287" y="511"/>
      <point x="287" y="631"/>
      <point x="287" y="511" type="curve"/>
      <point x="310" y="511"/>
      <point x="287" y="511"/>
      <point x="310" y="511" type="curve"/>
      <point x="310" y="631"/>
      <point x="310" y="511"/>
      <point x="310" y="631" type="curve"/>
      <point x="287" y="631"/>
      <point x="310" y="631"/>
    </contour>
    <contour>
      <point x="193" y="-43" type="curve"/>
      <point x="193" y="-9"/>
      <point x="193" y="25"/>
      <point x="193" y="59" type="curve"/>
      <point x="168" y="59"/>
      <point x="193" y="59"/>
      <point x="168" y="59" type="curve"/>
      <point x="168" y="25"/>
      <point x="168" y="-9"/>
      <point x="168" y="-43" type="curve"/>
      <point x="193" y="-43"/>
      <point x="168" y="-43"/>
    </contour>
    <contour>
      <point x="200" y="671" type="curve"/>
      <point x="200" y="705"/>
      <point x="200" y="739"/>
      <point x="200" y="773" type="curve"/>
      <point x="175" y="773"/>
      <point x="200" y="773"/>
      <point x="175" y="773" type="curve"/>
      <point x="175" y="739"/>
      <point x="175" y="705"/>
      <point x="175" y="671" type="curve"/>
      <point x="200" y="671"/>
      <point x="175" y="671"/>
    </contour>
    <contour>
      <point x="60" y="99" type="curve"/>
      <point x="90" y="73"/>
      <point x="130" y="48"/>
      <point x="179" y="48" type="curve"/>
      <point x="269" y="48"/>
      <point x="322" y="118"/>
      <point x="322" y="198" type="curve"/>
      <point x="322" y="275"/>
      <point x="269" y="335"/>
      <point x="197" y="385" type="curve"/>
      <point x="134" y="429"/>
      <point x="98" y="474"/>
      <point x="98" y="543" type="curve"/>
      <point x="98" y="604"/>
      <point x="128" y="661"/>
      <point x="191" y="661" type="curve"/>
      <point x="235" y="661"/>
      <point x="264" y="641"/>
      <point x="297" y="612" type="curve"/>
      <point x="310" y="631"/>
      <point x="297" y="612"/>
      <point x="310" y="631" type="curve"/>
      <point x="274" y="664"/>
      <point x="241" y="683"/>
      <point x="192" y="683" type="curve"/>
      <point x="113" y="683"/>
      <point x="72" y="618"/>
      <point x="72" y="543" type="curve"/>
      <point x="72" y="467"/>
      <point x="112" y="413"/>
      <point x="182" y="365" type="curve"/>
      <point x="248" y="321"/>
      <point x="297" y="268"/>
      <point x="297" y="197" type="curve"/>
      <point x="297" y="129"/>
      <point x="255" y="70"/>
      <point x="182" y="70" type="curve"/>
      <point x="138" y="70"/>
      <point x="102" y="96"/>
      <point x="74" y="119" type="curve"/>
      <point x="60" y="99"/>
      <point x="74" y="119"/>
    </contour>
  </outline>
</glyph>
<glyph name="percent" format="1">
  <advance width="583"/>
  <unicode hex="0025"/>
  <outline>
    <contour>
      <point x="176" y="-92" type="line"/>
      <point x="434" y="757" type="line"/>
      <point x="405" y="757" type="line"/>
      <point x="148" y="-92" type="line"/>
    </contour>
    <contour>
      <point x="65" y="557" type="curve"/>
      <point x="65" y="655"/>
      <point x="69" y="743"/>
      <point x="151" y="743" type="curve"/>
      <point x="233" y="744"/>
      <point x="237" y="656"/>
      <point x="237" y="558" type="curve"/>
      <point x="237" y="460"/>
      <point x="235" y="371"/>
      <point x="153" y="371" type="curve"/>
      <point x="70" y="371"/>
      <point x="65" y="458"/>
      <point x="65" y="557" type="curve"/>
      <point x="56" y="557"/>
      <point x="50" y="557"/>
      <point x="41" y="557" type="curve"/>
      <point x="41" y="445"/>
      <point x="56" y="349"/>
      <point x="152" y="349" type="curve"/>
      <point x="247" y="349"/>
      <point x="262" y="446"/>
      <point x="262" y="559" type="curve"/>
      <point x="262" y="670"/>
      <point x="246" y="765"/>
      <point x="152" y="765" type="curve"/>
      <point x="56" y="765"/>
      <point x="41" y="669"/>
      <point x="41" y="557" type="curve"/>
      <point x="50" y="557"/>
      <point x="56" y="557"/>
    </contour>
    <contour>
      <point x="345" y="110" type="curve"/>
      <point x="345" y="208"/>
      <point x="350" y="295"/>
      <point x="431" y="295" type="curve"/>
      <point x="513" y="296"/>
      <point x="517" y="209"/>
      <point x="517" y="111" type="curve"/>
      <point x="517" y="13"/>
      <point x="515" y="-77"/>
      <point x="433" y="-77" type="curve"/>
      <point x="351" y="-77"/>
      <point x="345" y="11"/>
      <point x="345" y="110" type="curve"/>
      <point x="335" y="110"/>
      <point x="330" y="110"/>
      <point x="321" y="110" type="curve"/>
      <point x="321" y="-1"/>
      <point x="337" y="-98"/>
      <point x="432" y="-98" type="curve"/>
      <point x="528" y="-98"/>
      <point x="542" y="0"/>
      <point x="542" y="112" type="curve"/>
      <point x="542" y="223"/>
      <point x="527" y="318"/>
      <point x="432" y="318" type="curve"/>
      <point x="337" y="318"/>
      <point x="321" y="222"/>
      <point x="321" y="110" type="curve"/>
      <point x="330" y="110"/>
      <point x="335" y="110"/>
    </contour>
  </outline>
</glyph>
<glyph name="ampersand" format="1">
  <advance width="440"/>
  <unicode hex="0026"/>
  <outline>
    <contour>
      <point x="418" y="4" type="line"/>
      <point x="350" y="119"/>
      <point x="285" y="234"/>
      <point x="216" y="349" type="curve"/>
      <point x="175" y="424"/>
      <point x="129" y="490"/>
      <point x="129" y="577" type="curve"/>
      <point x="129" y="642"/>
      <point x="146" y="703"/>
      <point x="197" y="703" type="curve"/>
      <point x="249" y="703"/>
      <point x="267" y="644"/>
      <point x="267" y="579" type="curve"/>
      <point x="267" y="499"/>
      <point x="228" y="444"/>
      <point x="168" y="389" type="curve"/>
      <point x="103" y="327"/>
      <point x="63" y="265"/>
      <point x="63" y="177" type="curve"/>
      <point x="63" y="79"/>
      <point x="103" y="-5"/>
      <point x="191" y="-5" type="curve"/>
      <point x="340" y="-5"/>
      <point x="366" y="155"/>
      <point x="395" y="318" type="curve"/>
      <point x="373" y="323"/>
      <point x="395" y="318"/>
      <point x="373" y="323" type="curve"/>
      <point x="346" y="172"/>
      <point x="318" y="19"/>
      <point x="192" y="19" type="curve"/>
      <point x="120" y="19"/>
      <point x="89" y="93"/>
      <point x="89" y="177" type="curve"/>
      <point x="89" y="257"/>
      <point x="127" y="314"/>
      <point x="185" y="369" type="curve"/>
      <point x="249" y="430"/>
      <point x="293" y="493"/>
      <point x="293" y="580" type="curve"/>
      <point x="293" y="659"/>
      <point x="266" y="727"/>
      <point x="198" y="727" type="curve"/>
      <point x="127" y="727"/>
      <point x="103" y="657"/>
      <point x="103" y="577" type="curve"/>
      <point x="103" y="485"/>
      <point x="150" y="415"/>
      <point x="197" y="336" type="curve"/>
      <point x="264" y="221"/>
      <point x="328" y="106"/>
      <point x="397" y="-8" type="curve"/>
    </contour>
  </outline>
</glyph>
<glyph name="quotesingle" format="1">
  <advance width="213"/>
  <unicode hex="0027"/>
  <outline>
    <contour>
      <point x="119" y="516" type="line"/>
      <point x="122" y="704" type="line"/>
      <point x="91" y="704" type="line"/>
      <point x="94" y="516" type="line"/>
    </contour>
  </outline>
</glyph>
<glyph name="parenleft" format="1">
  <advance width="240"/>
  <unicode hex="0028"/>
  <outline>
    <contour>
      <point x="225" y="-237" type="curve"/>
      <point x="106" y="-49"/>
      <point x="84" y="109"/>
      <point x="84" y="326" type="curve"/>
      <point x="84" y="544"/>
      <point x="108" y="701"/>
      <point x="225" y="890" type="curve"/>
      <point x="207" y="903"/>
      <point x="225" y="890"/>
      <point x="207" y="903" type="curve"/>
      <point x="86" y="712"/>
      <point x="58" y="550"/>
      <point x="58" y="326" type="curve"/>
      <point x="58" y="102"/>
      <point x="87" y="-59"/>
      <point x="207" y="-251" type="curve"/>
      <point x="225" y="-237"/>
      <point x="207" y="-251"/>
    </contour>
  </outline>
</glyph>
<glyph name="plus" format="1">
  <advance width="572"/>
  <unicode hex="002B"/>
  <outline>
    <contour>
      <point x="56" y="297" type="curve"/>
      <point x="516" y="297" type="line"/>
      <point x="516" y="322"/>
      <point x="516" y="297"/>
      <point x="516" y="322" type="curve"/>
      <point x="56" y="322" type="line"/>
      <point x="56" y="297"/>
      <point x="56" y="322"/>
    </contour>
    <contour>
      <point x="300" y="18" type="curve"/>
      <point x="300" y="588" type="line"/>
      <point x="274" y="588"/>
      <point x="300" y="588"/>
      <point x="274" y="588" type="curve"/>
      <point x="274" y="18" type="line"/>
      <point x="300" y="18"/>
      <point x="274" y="18"/>
    </contour>
  </outline>
</glyph>
<glyph name="period" format="1">
  <advance width="201"/>
  <unicode hex="002E"/>
  <outline>
    <contour>
      <point x="119" y="13" type="curve"/>
      <point x="119" y="24"/>
      <point x="112" y="30"/>
      <point x="100" y="30" type="curve"/>
      <point x="89" y="30"/>
      <point x="83" y="23"/>
      <point x="83" y="13" type="curve"/>
      <point x="123" y="13"/>
      <point x="80" y="13"/>
      <point x="119" y="13" type="curve"/>
      <point x="119" y="1"/>
      <point x="112" y="-5"/>
      <point x="100" y="-5" type="curve"/>
      <point x="89" y="-5"/>
      <point x="83" y="1"/>
      <point x="83" y="13" type="curve"/>
      <point x="123" y="13"/>
      <point x="80" y="13"/>
    </contour>
  </outline>
</glyph>
<glyph name="slash" format="1">
  <advance width="359"/>
  <unicode hex="002F"/>
  <outline>
    <contour>
      <point x="64" y="-66" type="curve"/>
      <point x="149" y="236"/>
      <point x="234" y="540"/>
      <point x="320" y="842" type="curve"/>
      <point x="295" y="842"/>
      <point x="320" y="842"/>
      <point x="295" y="842" type="curve"/>
      <point x="209" y="540"/>
      <point x="124" y="236"/>
      <point x="38" y="-66" type="curve"/>
      <point x="64" y="-66"/>
      <point x="38" y="-66"/>
    </contour>
  </outline>
</glyph>
<glyph name="zero" format="1">
  <advance width="484"/>
  <unicode hex="0030"/>
  <outline>
    <contour>
      <point x="94" y="360" type="curve"/>
      <point x="94" y="542"/>
      <point x="97" y="703"/>
      <point x="241" y="703" type="curve"/>
      <point x="387" y="703"/>
      <point x="389" y="543"/>
      <point x="389" y="363" type="curve"/>
      <point x="389" y="183"/>
      <point x="382" y="19"/>
      <point x="244" y="19" type="curve"/>
      <point x="107" y="19"/>
      <point x="94" y="180"/>
      <point x="94" y="360" type="curve"/>
      <point x="70" y="360"/>
      <point x="92" y="360"/>
      <point x="68" y="360" type="curve"/>
      <point x="68" y="165"/>
      <point x="78" y="-5"/>
      <point x="243" y="-5" type="curve"/>
      <point x="407" y="-5"/>
      <point x="415" y="166"/>
      <point x="415" y="363" type="curve"/>
      <point x="415" y="558"/>
      <point x="406" y="727"/>
      <point x="244" y="727" type="curve"/>
      <point x="78" y="727"/>
      <point x="68" y="557"/>
      <point x="68" y="360" type="curve"/>
      <point x="92" y="360"/>
      <point x="70" y="360"/>
    </contour>
  </outline>
</glyph>
<glyph name="three" format="1">
  <advance width="379"/>
  <unicode hex="0033"/>
  <outline>
    <contour>
      <point x="60" y="56" type="curve"/>
      <point x="93" y="21"/>
      <point x="122" y="-5"/>
      <point x="170" y="-5" type="curve"/>
      <point x="274" y="-5"/>
      <point x="315" y="78"/>
      <point x="315" y="195" type="curve"/>
      <point x="315" y="316"/>
      <point x="235" y="391"/>
      <point x="120" y="391" type="curve"/>
      <point x="120" y="385"/>
      <point x="120" y="378"/>
      <point x="120" y="371" type="curve"/>
      <point x="226" y="371"/>
      <point x="289" y="301"/>
      <point x="289" y="194" type="curve"/>
      <point x="289" y="94"/>
      <point x="248" y="18"/>
      <point x="171" y="18" type="curve"/>
      <point x="129" y="18"/>
      <point x="103" y="41"/>
      <point x="73" y="72" type="curve"/>
      <point x="60" y="56"/>
      <point x="73" y="72"/>
    </contour>
    <contour>
      <point x="81" y="627" type="curve"/>
      <point x="94" y="659"/>
      <point x="125" y="704"/>
      <point x="170" y="704" type="curve"/>
      <point x="244" y="704"/>
      <point x="269" y="636"/>
      <point x="269" y="549" type="curve"/>
      <point x="269" y="454"/>
      <point x="211" y="394"/>
      <point x="120" y="394" type="curve"/>
      <point x="120" y="388"/>
      <point x="120" y="380"/>
      <point x="120" y="375" type="curve"/>
      <point x="225" y="375"/>
      <point x="295" y="442"/>
      <point x="295" y="550" type="curve"/>
      <point x="295" y="650"/>
      <point x="261" y="727"/>
      <point x="172" y="727" type="curve"/>
      <point x="118" y="727"/>
      <point x="80" y="679"/>
      <point x="64" y="639" type="curve"/>
      <point x="81" y="627"/>
      <point x="64" y="639"/>
    </contour>
  </outline>
</glyph>
<glyph name="four" format="1">
  <advance width="406"/>
  <unicode hex="0034"/>
  <outline>
    <contour>
      <point x="239" y="23" type="line"/>
      <point x="135" y="23" type="line"/>
      <point x="135" y="0" type="line"/>
      <point x="239" y="0" type="line"/>
    </contour>
    <contour>
      <point x="239" y="0" type="line"/>
      <point x="332" y="0" type="line"/>
      <point x="332" y="23" type="line"/>
      <point x="239" y="23" type="line"/>
    </contour>
    <contour>
      <point x="52" y="279" type="line"/>
      <point x="252" y="725" type="line"/>
      <point x="226" y="722" type="line"/>
      <point x="32" y="288" type="line"/>
    </contour>
    <contour>
      <point x="354" y="288" type="line"/>
      <point x="32" y="288" type="line"/>
      <point x="32" y="265" type="line"/>
      <point x="354" y="265" type="line"/>
    </contour>
    <contour>
      <point x="251" y="0" type="line"/>
      <point x="251" y="722" type="line"/>
      <point x="226" y="722" type="line"/>
      <point x="226" y="0" type="line"/>
    </contour>
  </outline>
</glyph>
<glyph name="six" format="1">
  <advance width="400"/>
  <unicode hex="0036"/>
  <outline>
    <contour>
      <point x="83" y="230" type="curve"/>
      <point x="87" y="295"/>
      <point x="126" y="386"/>
      <point x="204" y="386" type="curve"/>
      <point x="288" y="386"/>
      <point x="310" y="303"/>
      <point x="310" y="202" type="curve"/>
      <point x="310" y="117"/>
      <point x="288" y="19"/>
      <point x="207" y="19" type="curve"/>
      <point x="109" y="19"/>
      <point x="87" y="123"/>
      <point x="87" y="242" type="curve"/>
      <point x="87" y="452"/>
      <point x="163" y="631"/>
      <point x="341" y="713" type="curve"/>
      <point x="331" y="734"/>
      <point x="341" y="713"/>
      <point x="331" y="734" type="curve"/>
      <point x="146" y="652"/>
      <point x="61" y="469"/>
      <point x="61" y="241" type="curve"/>
      <point x="61" y="107"/>
      <point x="92" y="-5"/>
      <point x="206" y="-5" type="curve"/>
      <point x="305" y="-5"/>
      <point x="336" y="90"/>
      <point x="336" y="203" type="curve"/>
      <point x="336" y="316"/>
      <point x="304" y="409"/>
      <point x="207" y="409" type="curve"/>
      <point x="117" y="409"/>
      <point x="74" y="326"/>
      <point x="63" y="241" type="curve"/>
      <point x="80" y="230"/>
      <point x="66" y="241"/>
    </contour>
  </outline>
</glyph>
<glyph name="seven" format="1">
  <advance width="362"/>
  <unicode hex="0037"/>
  <outline>
    <contour>
      <point x="72" y="604" type="line"/>
      <point x="72" y="724" type="line"/>
      <point x="51" y="724" type="line"/>
      <point x="51" y="604" type="line"/>
    </contour>
    <contour>
      <point x="51" y="699" type="line"/>
      <point x="343" y="699" type="line"/>
      <point x="343" y="722" type="line"/>
      <point x="51" y="722" type="line"/>
    </contour>
    <contour>
      <point x="326" y="722" type="line"/>
      <point x="82" y="0" type="line"/>
      <point x="109" y="0" type="line"/>
      <point x="343" y="699" type="line"/>
    </contour>
  </outline>
</glyph>
<glyph name="eight" format="1">
  <advance width="389"/>
  <unicode hex="0038"/>
  <outline>
    <contour>
      <point x="78" y="565" type="curve"/>
      <point x="78" y="477"/>
      <point x="117" y="425"/>
      <point x="187" y="369" type="curve"/>
      <point x="258" y="312"/>
      <point x="297" y="254"/>
      <point x="297" y="168" type="curve"/>
      <point x="297" y="86"/>
      <point x="269" y="19"/>
      <point x="194" y="19" type="curve"/>
      <point x="119" y="19"/>
      <point x="92" y="86"/>
      <point x="92" y="168" type="curve"/>
      <point x="92" y="256"/>
      <point x="132" y="311"/>
      <point x="204" y="369" type="curve"/>
      <point x="270" y="425"/>
      <point x="311" y="477"/>
      <point x="311" y="563" type="curve"/>
      <point x="311" y="657"/>
      <point x="280" y="727"/>
      <point x="194" y="727" type="curve"/>
      <point x="109" y="727"/>
      <point x="78" y="656"/>
      <point x="78" y="565" type="curve"/>
      <point x="103" y="565"/>
      <point x="78" y="565"/>
      <point x="103" y="565" type="curve"/>
      <point x="103" y="639"/>
      <point x="125" y="703"/>
      <point x="193" y="703" type="curve"/>
      <point x="263" y="703"/>
      <point x="286" y="641"/>
      <point x="286" y="563" type="curve"/>
      <point x="286" y="487"/>
      <point x="250" y="437"/>
      <point x="187" y="387" type="curve"/>
      <point x="110" y="324"/>
      <point x="66" y="267"/>
      <point x="66" y="168" type="curve"/>
      <point x="66" y="69"/>
      <point x="101" y="-5"/>
      <point x="193" y="-5" type="curve"/>
      <point x="284" y="-5"/>
      <point x="323" y="68"/>
      <point x="323" y="168" type="curve"/>
      <point x="323" y="266"/>
      <point x="280" y="325"/>
      <point x="204" y="387" type="curve"/>
      <point x="141" y="439"/>
      <point x="103" y="488"/>
      <point x="103" y="565" type="curve"/>
      <point x="78" y="565"/>
      <point x="103" y="565"/>
    </contour>
  </outline>
</glyph>
<glyph name="nine" format="1">
  <advance width="398"/>
  <unicode hex="0039"/>
  <outline>
    <contour>
      <point x="315" y="489" type="curve"/>
      <point x="300" y="426"/>
      <point x="272" y="337"/>
      <point x="193" y="337" type="curve"/>
      <point x="108" y="337"/>
      <point x="88" y="420"/>
      <point x="88" y="520" type="curve"/>
      <point x="88" y="616"/>
      <point x="109" y="703"/>
      <point x="189" y="703" type="curve"/>
      <point x="288" y="703"/>
      <point x="310" y="597"/>
      <point x="310" y="480" type="curve"/>
      <point x="310" y="270"/>
      <point x="250" y="107"/>
      <point x="62" y="9" type="curve"/>
      <point x="73" y="-15"/>
      <point x="62" y="9"/>
      <point x="73" y="-15" type="curve"/>
      <point x="270" y="87"/>
      <point x="336" y="253"/>
      <point x="336" y="481" type="curve"/>
      <point x="336" y="615"/>
      <point x="307" y="727"/>
      <point x="190" y="727" type="curve"/>
      <point x="91" y="727"/>
      <point x="61" y="632"/>
      <point x="61" y="519" type="curve"/>
      <point x="61" y="406"/>
      <point x="91" y="313"/>
      <point x="190" y="313" type="curve"/>
      <point x="279" y="313"/>
      <point x="307" y="388"/>
      <point x="331" y="480" type="curve"/>
      <point x="315" y="489"/>
      <point x="331" y="480"/>
    </contour>
  </outline>
</glyph>
<glyph name="colon" format="1">
  <advance width="208"/>
  <unicode hex="003A"/>
  <outline>
    <contour>
      <point x="122" y="406" type="curve"/>
      <point x="122" y="417"/>
      <point x="115" y="423"/>
      <point x="103" y="423" type="curve"/>
      <point x="92" y="423"/>
      <point x="86" y="416"/>
      <point x="86" y="406" type="curve"/>
      <point x="126" y="406"/>
      <point x="83" y="406"/>
      <point x="122" y="406" type="curve"/>
      <point x="122" y="394"/>
      <point x="115" y="388"/>
      <point x="103" y="388" type="curve"/>
      <point x="92" y="388"/>
      <point x="86" y="394"/>
      <point x="86" y="406" type="curve"/>
      <point x="126" y="406"/>
      <point x="83" y="406"/>
    </contour>
    <contour>
      <point x="122" y="14" type="curve"/>
      <point x="122" y="25"/>
      <point x="115" y="31"/>
      <point x="103" y="31" type="curve"/>
      <point x="92" y="31"/>
      <point x="86" y="24"/>
      <point x="86" y="14" type="curve"/>
      <point x="126" y="14"/>
      <point x="83" y="14"/>
      <point x="122" y="14" type="curve"/>
      <point x="122" y="2"/>
      <point x="115" y="-4"/>
      <point x="103" y="-4" type="curve"/>
      <point x="92" y="-4"/>
      <point x="86" y="2"/>
      <point x="86" y="14" type="curve"/>
      <point x="126" y="14"/>
      <point x="83" y="14"/>
    </contour>
  </outline>
</glyph>
<glyph name="semicolon" format="1">
  <advance width="243"/>
  <unicode hex="003B"/>
  <outline>
    <contour>
      <point x="94" y="-108" type="line"/>
      <point x="116" y="-84"/>
      <point x="135" y="-58"/>
      <point x="135" y="-11" type="curve"/>
      <point x="135" y="9"/>
      <point x="132" y="26"/>
      <point x="113" y="26" type="curve"/>
      <point x="100" y="26"/>
      <point x="93" y="19"/>
      <point x="93" y="7" type="curve"/>
      <point x="93" y="-3"/>
      <point x="97" y="-9"/>
      <point x="108" y="-14" type="curve"/>
      <point x="108" y="-34"/>
      <point x="99" y="-69"/>
      <point x="77" y="-91" type="curve"/>
    </contour>
    <contour>
      <point x="141" y="427" type="curve"/>
      <point x="141" y="439"/>
      <point x="134" y="445"/>
      <point x="122" y="445" type="curve"/>
      <point x="111" y="445"/>
      <point x="105" y="438"/>
      <point x="105" y="427" type="curve"/>
      <point x="144" y="427"/>
      <point x="101" y="427"/>
      <point x="141" y="427" type="curve"/>
      <point x="141" y="416"/>
      <point x="134" y="410"/>
      <point x="122" y="410" type="curve"/>
      <point x="111" y="410"/>
      <point x="105" y="416"/>
      <point x="105" y="427" type="curve"/>
      <point x="144" y="427"/>
      <point x="101" y="427"/>
    </contour>
  </outline>
</glyph>
<glyph name="equal" format="1">
  <advance width="553"/>
  <unicode hex="003D"/>
  <outline>
    <contour>
      <point x="87" y="206" type="curve"/>
      <point x="213" y="206"/>
      <point x="339" y="206"/>
      <point x="466" y="206" type="curve"/>
      <point x="466" y="229"/>
      <point x="466" y="206"/>
      <point x="466" y="229" type="curve"/>
      <point x="339" y="229"/>
      <point x="213" y="229"/>
      <point x="87" y="229" type="curve"/>
      <point x="87" y="206"/>
      <point x="87" y="229"/>
    </contour>
    <contour>
      <point x="87" y="428" type="curve"/>
      <point x="213" y="428"/>
      <point x="339" y="428"/>
      <point x="466" y="428" type="curve"/>
      <point x="466" y="451"/>
      <point x="466" y="428"/>
      <point x="466" y="451" type="curve"/>
      <point x="339" y="451"/>
      <point x="213" y="451"/>
      <point x="87" y="451" type="curve"/>
      <point x="87" y="428"/>
      <point x="87" y="451"/>
    </contour>
  </outline>
</glyph>
<glyph name="at" format="1">
  <advance width="544"/>
  <unicode hex="0040"/>
  <outline>
    <contour>
      <point x="373" y="-108" type="curve"/>
      <point x="344" y="-135"/>
      <point x="319" y="-145"/>
      <point x="280" y="-145" type="curve"/>
      <point x="125" y="-145"/>
      <point x="86" y="5"/>
      <point x="86" y="185" type="curve"/>
      <point x="86" y="361"/>
      <point x="127" y="510"/>
      <point x="278" y="510" type="curve"/>
      <point x="419" y="510"/>
      <point x="456" y="369"/>
      <point x="456" y="206" type="curve"/>
      <point x="456" y="120"/>
      <point x="460" y="40"/>
      <point x="414" y="40" type="curve"/>
      <point x="357" y="40"/>
      <point x="363" y="113"/>
      <point x="363" y="190" type="curve"/>
      <point x="363" y="283"/>
      <point x="350" y="363"/>
      <point x="271" y="363" type="curve"/>
      <point x="188" y="363"/>
      <point x="169" y="285"/>
      <point x="169" y="191" type="curve"/>
      <point x="169" y="90"/>
      <point x="182" y="7"/>
      <point x="268" y="7" type="curve"/>
      <point x="347" y="7"/>
      <point x="353" y="88"/>
      <point x="359" y="180" type="curve"/>
      <point x="344" y="181"/>
      <point x="359" y="180"/>
      <point x="344" y="181" type="curve"/>
      <point x="334" y="109"/>
      <point x="328" y="30"/>
      <point x="271" y="30" type="curve"/>
      <point x="197" y="30"/>
      <point x="193" y="105"/>
      <point x="193" y="192" type="curve"/>
      <point x="193" y="273"/>
      <point x="201" y="341"/>
      <point x="267" y="341" type="curve"/>
      <point x="335" y="341"/>
      <point x="340" y="270"/>
      <point x="340" y="189" type="curve"/>
      <point x="340" y="99"/>
      <point x="335" y="19"/>
      <point x="412" y="19" type="curve"/>
      <point x="492" y="19"/>
      <point x="482" y="107"/>
      <point x="482" y="207" type="curve"/>
      <point x="482" y="387"/>
      <point x="441" y="534"/>
      <point x="280" y="534" type="curve"/>
      <point x="109" y="534"/>
      <point x="60" y="377"/>
      <point x="60" y="184" type="curve"/>
      <point x="60" y="-10"/>
      <point x="108" y="-168"/>
      <point x="278" y="-168" type="curve"/>
      <point x="322" y="-168"/>
      <point x="351" y="-158"/>
      <point x="384" y="-129" type="curve"/>
      <point x="373" y="-108"/>
      <point x="384" y="-129"/>
    </contour>
  </outline>
</glyph>
<glyph name="B" format="1">
  <advance width="458"/>
  <unicode hex="0042"/>
  <outline>
    <contour>
      <point x="143" y="722" type="curve"/>
      <point x="101" y="722"/>
      <point x="82" y="722"/>
      <point x="40" y="722" type="curve"/>
      <point x="40" y="699"/>
      <point x="40" y="722"/>
      <point x="40" y="699" type="curve"/>
      <point x="166" y="699"/>
      <point x="17" y="699"/>
      <point x="143" y="699" type="curve"/>
      <point x="143" y="722"/>
      <point x="143" y="699"/>
    </contour>
    <contour>
      <point x="142" y="23" type="curve"/>
      <point x="16" y="23"/>
      <point x="165" y="23"/>
      <point x="39" y="23" type="curve"/>
      <point x="39" y="0"/>
      <point x="39" y="23"/>
      <point x="39" y="0" type="curve"/>
      <point x="81" y="0"/>
      <point x="100" y="0"/>
      <point x="142" y="0" type="curve"/>
      <point x="142" y="23"/>
      <point x="142" y="0"/>
    </contour>
    <contour>
      <point x="136" y="699" type="curve"/>
      <point x="173" y="699"/>
      <point x="192" y="699"/>
      <point x="228" y="699" type="curve"/>
      <point x="307" y="699"/>
      <point x="343" y="639"/>
      <point x="343" y="555" type="curve"/>
      <point x="343" y="478"/>
      <point x="314" y="421"/>
      <point x="245" y="421" type="curve"/>
      <point x="202" y="421"/>
      <point x="180" y="421"/>
      <point x="136" y="421" type="curve"/>
      <point x="136" y="415"/>
      <point x="136" y="405"/>
      <point x="136" y="398" type="curve"/>
      <point x="173" y="398"/>
      <point x="198" y="398"/>
      <point x="235" y="398" type="curve"/>
      <point x="326" y="398"/>
      <point x="368" y="461"/>
      <point x="368" y="555" type="curve"/>
      <point x="368" y="654"/>
      <point x="321" y="722"/>
      <point x="228" y="722" type="curve"/>
      <point x="192" y="722"/>
      <point x="173" y="722"/>
      <point x="136" y="722" type="curve"/>
      <point x="136" y="716"/>
      <point x="136" y="705"/>
    </contour>
    <contour>
      <point x="158" y="0" type="curve"/>
      <point x="158" y="241"/>
      <point x="158" y="481"/>
      <point x="158" y="722" type="curve"/>
      <point x="131" y="722"/>
      <point x="158" y="722"/>
      <point x="131" y="722" type="curve"/>
      <point x="131" y="481"/>
      <point x="132" y="241"/>
      <point x="131" y="0" type="curve"/>
      <point x="158" y="0"/>
      <point x="131" y="0"/>
    </contour>
    <contour>
      <point x="136" y="398" type="curve"/>
      <point x="180" y="398"/>
      <point x="202" y="398"/>
      <point x="245" y="398" type="curve"/>
      <point x="340" y="398"/>
      <point x="371" y="312"/>
      <point x="371" y="204" type="curve"/>
      <point x="371" y="99"/>
      <point x="326" y="23"/>
      <point x="229" y="23" type="curve"/>
      <point x="192" y="23"/>
      <point x="174" y="23"/>
      <point x="136" y="23" type="curve"/>
      <point x="136" y="17"/>
      <point x="136" y="6"/>
      <point x="136" y="0" type="curve"/>
      <point x="174" y="0"/>
      <point x="192" y="0"/>
      <point x="229" y="0" type="curve"/>
      <point x="341" y="0"/>
      <point x="396" y="84"/>
      <point x="396" y="204" type="curve"/>
      <point x="396" y="328"/>
      <point x="352" y="421"/>
      <point x="236" y="421" type="curve"/>
      <point x="199" y="421"/>
      <point x="173" y="421"/>
      <point x="136" y="421" type="curve"/>
      <point x="136" y="415"/>
      <point x="136" y="405"/>
    </contour>
  </outline>
</glyph>
<glyph name="D" format="1">
  <advance width="523"/>
  <unicode hex="0044"/>
  <outline>
    <contour>
      <point x="219" y="824" type="move" name="top"/>
    </contour>
    <contour>
      <point x="145" y="23" type="curve"/>
      <point x="18" y="23"/>
      <point x="167" y="23"/>
      <point x="41" y="23" type="curve"/>
      <point x="41" y="0"/>
      <point x="41" y="23"/>
      <point x="41" y="0" type="curve"/>
      <point x="83" y="0"/>
      <point x="102" y="0"/>
      <point x="145" y="0" type="curve"/>
      <point x="145" y="23"/>
      <point x="145" y="0"/>
    </contour>
    <contour>
      <point x="145" y="722" type="curve"/>
      <point x="102" y="722"/>
      <point x="83" y="722"/>
      <point x="41" y="722" type="curve"/>
      <point x="41" y="699"/>
      <point x="41" y="722"/>
      <point x="41" y="699" type="curve"/>
      <point x="167" y="699"/>
      <point x="18" y="699"/>
      <point x="145" y="699" type="curve"/>
      <point x="145" y="722"/>
      <point x="145" y="699"/>
    </contour>
    <contour>
      <point x="131" y="722" type="curve"/>
      <point x="131" y="481"/>
      <point x="131" y="241"/>
      <point x="131" y="0" type="curve"/>
      <point x="156" y="0"/>
      <point x="131" y="0"/>
      <point x="156" y="0" type="curve"/>
      <point x="156" y="241"/>
      <point x="156" y="481"/>
      <point x="156" y="722" type="curve"/>
      <point x="131" y="722"/>
      <point x="156" y="722"/>
    </contour>
    <contour>
      <point x="145" y="0" type="curve"/>
      <point x="183" y="0"/>
      <point x="202" y="0"/>
      <point x="240" y="0" type="curve"/>
      <point x="411" y="0"/>
      <point x="460" y="160"/>
      <point x="460" y="357" type="curve"/>
      <point x="460" y="559"/>
      <point x="407" y="722"/>
      <point x="233" y="722" type="curve"/>
      <point x="198" y="722"/>
      <point x="180" y="722"/>
      <point x="145" y="722" type="curve"/>
      <point x="145" y="715"/>
      <point x="145" y="706"/>
      <point x="145" y="699" type="curve"/>
      <point x="180" y="699"/>
      <point x="197" y="699"/>
      <point x="232" y="699" type="curve"/>
      <point x="392" y="699"/>
      <point x="435" y="545"/>
      <point x="435" y="356" type="curve"/>
      <point x="435" y="174"/>
      <point x="398" y="23"/>
      <point x="242" y="23" type="curve"/>
      <point x="204" y="23"/>
      <point x="183" y="23"/>
      <point x="145" y="23" type="curve"/>
      <point x="145" y="16"/>
      <point x="145" y="7"/>
    </contour>
  </outline>
</glyph>
<glyph name="H" format="1">
  <advance width="591"/>
  <unicode hex="0048"/>
  <outline>
    <contour>
      <point x="448" y="699" type="curve"/>
      <point x="575" y="699"/>
      <point x="426" y="699"/>
      <point x="552" y="699" type="curve"/>
      <point x="552" y="722"/>
      <point x="552" y="699"/>
      <point x="552" y="722" type="curve"/>
      <point x="510" y="722"/>
      <point x="490" y="722"/>
      <point x="448" y="722" type="curve"/>
      <point x="448" y="699"/>
      <point x="448" y="722"/>
    </contour>
    <contour>
      <point x="448" y="0" type="curve"/>
      <point x="490" y="0"/>
      <point x="510" y="0"/>
      <point x="552" y="0" type="curve"/>
      <point x="552" y="23"/>
      <point x="552" y="0"/>
      <point x="552" y="23" type="curve"/>
      <point x="426" y="23"/>
      <point x="575" y="23"/>
      <point x="448" y="23" type="curve"/>
      <point x="448" y="0"/>
      <point x="448" y="23"/>
    </contour>
    <contour>
      <point x="448" y="23" type="curve"/>
      <point x="321" y="23"/>
      <point x="471" y="23"/>
      <point x="344" y="23" type="curve"/>
      <point x="344" y="0"/>
      <point x="344" y="23"/>
      <point x="344" y="0" type="curve"/>
      <point x="387" y="0"/>
      <point x="406" y="0"/>
      <point x="448" y="0" type="curve"/>
      <point x="448" y="23"/>
      <point x="448" y="0"/>
    </contour>
    <contour>
      <point x="448" y="722" type="curve"/>
      <point x="406" y="722"/>
      <point x="387" y="722"/>
      <point x="344" y="722" type="curve"/>
      <point x="344" y="699"/>
      <point x="344" y="722"/>
      <point x="344" y="699" type="curve"/>
      <point x="471" y="699"/>
      <point x="321" y="699"/>
      <point x="448" y="699" type="curve"/>
      <point x="448" y="722"/>
      <point x="448" y="699"/>
    </contour>
    <contour>
      <point x="143" y="699" type="curve"/>
      <point x="270" y="699"/>
      <point x="121" y="699"/>
      <point x="248" y="699" type="curve"/>
      <point x="248" y="722"/>
      <point x="248" y="699"/>
      <point x="248" y="722" type="curve"/>
      <point x="205" y="722"/>
      <point x="185" y="722"/>
      <point x="143" y="722" type="curve"/>
      <point x="143" y="699"/>
      <point x="143" y="722"/>
    </contour>
    <contour>
      <point x="143" y="722" type="curve"/>
      <point x="101" y="722"/>
      <point x="82" y="722"/>
      <point x="40" y="722" type="curve"/>
      <point x="40" y="699"/>
      <point x="40" y="722"/>
      <point x="40" y="699" type="curve"/>
      <point x="166" y="699"/>
      <point x="17" y="699"/>
      <point x="143" y="699" type="curve"/>
      <point x="143" y="722"/>
      <point x="143" y="699"/>
    </contour>
    <contour>
      <point x="143" y="0" type="curve"/>
      <point x="185" y="0"/>
      <point x="121" y="0"/>
      <point x="248" y="0" type="curve"/>
      <point x="248" y="23"/>
      <point x="248" y="0"/>
      <point x="248" y="23" type="curve"/>
      <point x="121" y="23"/>
      <point x="270" y="23"/>
      <point x="143" y="23" type="curve"/>
      <point x="143" y="0"/>
      <point x="143" y="23"/>
    </contour>
    <contour>
      <point x="143" y="23" type="curve"/>
      <point x="17" y="23"/>
      <point x="166" y="23"/>
      <point x="40" y="23" type="curve"/>
      <point x="40" y="0"/>
      <point x="40" y="23"/>
      <point x="40" y="0" type="curve"/>
      <point x="82" y="0"/>
      <point x="101" y="0"/>
      <point x="143" y="0" type="curve"/>
      <point x="143" y="23"/>
      <point x="143" y="0"/>
    </contour>
    <contour>
      <point x="156" y="0" type="curve"/>
      <point x="156" y="722" type="line"/>
      <point x="131" y="722"/>
      <point x="156" y="722"/>
      <point x="131" y="722" type="curve"/>
      <point x="131" y="481"/>
      <point x="131" y="241"/>
      <point x="131" y="0" type="curve"/>
      <point x="156" y="0"/>
      <point x="131" y="0"/>
    </contour>
    <contour>
      <point x="446" y="374" type="curve"/>
      <point x="344" y="374"/>
      <point x="244" y="374"/>
      <point x="143" y="374" type="curve"/>
      <point x="143" y="352"/>
      <point x="143" y="374"/>
      <point x="143" y="352" type="curve"/>
      <point x="244" y="352"/>
      <point x="344" y="352"/>
      <point x="446" y="352" type="curve"/>
      <point x="446" y="374"/>
      <point x="446" y="352"/>
    </contour>
    <contour>
      <point x="460" y="1" type="curve"/>
      <point x="460" y="241"/>
      <point x="460" y="481"/>
      <point x="460" y="721" type="curve"/>
      <point x="435" y="721"/>
      <point x="460" y="721"/>
      <point x="435" y="721" type="curve"/>
      <point x="435" y="1" type="line"/>
      <point x="460" y="1"/>
      <point x="435" y="1"/>
    </contour>
  </outline>
</glyph>
<glyph name="J" format="1">
  <advance width="342"/>
  <unicode hex="004A"/>
  <outline>
    <contour>
      <point x="211" y="722" type="curve"/>
      <point x="168" y="722"/>
      <point x="149" y="722"/>
      <point x="106" y="722" type="curve"/>
      <point x="106" y="699"/>
      <point x="106" y="722"/>
      <point x="106" y="699" type="curve"/>
      <point x="234" y="699"/>
      <point x="83" y="699"/>
      <point x="211" y="699" type="curve"/>
      <point x="211" y="722"/>
      <point x="211" y="699"/>
    </contour>
    <contour>
      <point x="211" y="699" type="curve"/>
      <point x="340" y="699"/>
      <point x="188" y="699"/>
      <point x="317" y="699" type="curve"/>
      <point x="317" y="722"/>
      <point x="317" y="699"/>
      <point x="317" y="722" type="curve"/>
      <point x="274" y="722"/>
      <point x="254" y="722"/>
      <point x="211" y="722" type="curve"/>
      <point x="211" y="699"/>
      <point x="211" y="722"/>
    </contour>
    <contour>
      <point x="31" y="37" type="curve"/>
      <point x="54" y="13"/>
      <point x="77" y="-6"/>
      <point x="112" y="-6" type="curve"/>
      <point x="211" y="-6"/>
      <point x="223" y="84"/>
      <point x="223" y="213" type="curve"/>
      <point x="223" y="409"/>
      <point x="223" y="526"/>
      <point x="223" y="722" type="curve"/>
      <point x="215" y="722"/>
      <point x="206" y="722"/>
      <point x="198" y="722" type="curve"/>
      <point x="198" y="526"/>
      <point x="198" y="409"/>
      <point x="198" y="213" type="curve"/>
      <point x="198" y="109"/>
      <point x="199" y="17"/>
      <point x="112" y="17" type="curve"/>
      <point x="81" y="17"/>
      <point x="61" y="37"/>
      <point x="44" y="55" type="curve"/>
      <point x="40" y="50"/>
      <point x="35" y="43"/>
    </contour>
  </outline>
</glyph>
<glyph name="K" format="1">
  <advance width="479"/>
  <unicode hex="004B"/>
  <outline>
    <contour>
      <point x="275" y="-91" type="move" name="bottom"/>
    </contour>
    <contour>
      <point x="363" y="722" type="curve"/>
      <point x="321" y="722"/>
      <point x="324" y="722"/>
      <point x="282" y="722" type="curve"/>
      <point x="282" y="699"/>
      <point x="282" y="722"/>
      <point x="282" y="699" type="curve"/>
      <point x="408" y="699"/>
      <point x="237" y="699"/>
      <point x="363" y="699" type="curve"/>
      <point x="363" y="722"/>
      <point x="363" y="699"/>
    </contour>
    <contour>
      <point x="376" y="0" type="curve"/>
      <point x="419" y="0"/>
      <point x="427" y="0"/>
      <point x="470" y="0" type="curve"/>
      <point x="470" y="23"/>
      <point x="470" y="0"/>
      <point x="470" y="23" type="curve"/>
      <point x="341" y="23"/>
      <point x="504" y="23"/>
      <point x="376" y="23" type="curve"/>
      <point x="376" y="0"/>
      <point x="376" y="23"/>
    </contour>
    <contour>
      <point x="363" y="699" type="curve"/>
      <point x="491" y="699"/>
      <point x="329" y="699"/>
      <point x="457" y="699" type="curve"/>
      <point x="457" y="722"/>
      <point x="457" y="699"/>
      <point x="457" y="722" type="curve"/>
      <point x="414" y="722"/>
      <point x="406" y="722"/>
      <point x="363" y="722" type="curve"/>
      <point x="363" y="699"/>
      <point x="363" y="722"/>
    </contour>
    <contour>
      <point x="143" y="722" type="curve"/>
      <point x="101" y="722"/>
      <point x="82" y="722"/>
      <point x="40" y="722" type="curve"/>
      <point x="40" y="699"/>
      <point x="40" y="722"/>
      <point x="40" y="699" type="curve"/>
      <point x="166" y="699"/>
      <point x="17" y="699"/>
      <point x="143" y="699" type="curve"/>
      <point x="143" y="722"/>
      <point x="143" y="699"/>
    </contour>
    <contour>
      <point x="143" y="699" type="curve"/>
      <point x="269" y="699"/>
      <point x="109" y="699"/>
      <point x="235" y="699" type="curve"/>
      <point x="235" y="722"/>
      <point x="235" y="699"/>
      <point x="235" y="722" type="curve"/>
      <point x="193" y="722"/>
      <point x="185" y="722"/>
      <point x="143" y="722" type="curve"/>
      <point x="143" y="699"/>
      <point x="143" y="722"/>
    </contour>
    <contour>
      <point x="143" y="0" type="curve"/>
      <point x="185" y="0"/>
      <point x="109" y="0"/>
      <point x="235" y="0" type="curve"/>
      <point x="235" y="23"/>
      <point x="235" y="0"/>
      <point x="235" y="23" type="curve"/>
      <point x="109" y="23"/>
      <point x="269" y="23"/>
      <point x="143" y="23" type="curve"/>
      <point x="143" y="0"/>
      <point x="143" y="23"/>
    </contour>
    <contour>
      <point x="143" y="23" type="curve"/>
      <point x="17" y="23"/>
      <point x="166" y="23"/>
      <point x="40" y="23" type="curve"/>
      <point x="40" y="0"/>
      <point x="40" y="23"/>
      <point x="40" y="0" type="curve"/>
      <point x="82" y="0"/>
      <point x="101" y="0"/>
      <point x="143" y="0" type="curve"/>
      <point x="143" y="23"/>
      <point x="143" y="0"/>
    </contour>
    <contour>
      <point x="354" y="722" type="curve"/>
      <point x="141" y="380" type="line"/>
      <point x="175" y="380"/>
      <point x="136" y="380"/>
      <point x="170" y="380" type="curve"/>
      <point x="389" y="721" type="line"/>
      <point x="348" y="721"/>
      <point x="395" y="722"/>
    </contour>
    <contour>
      <point x="156" y="0" type="curve"/>
      <point x="156" y="722" type="line"/>
      <point x="131" y="722"/>
      <point x="156" y="722"/>
      <point x="131" y="722" type="curve"/>
      <point x="131" y="481"/>
      <point x="131" y="241"/>
      <point x="131" y="0" type="curve"/>
      <point x="156" y="0"/>
      <point x="131" y="0"/>
    </contour>
    <contour>
      <point x="404" y="1" type="curve"/>
      <point x="170" y="380" type="line"/>
      <point x="136" y="380"/>
      <point x="175" y="380"/>
      <point x="141" y="380" type="curve"/>
      <point x="368" y="0" type="line"/>
      <point x="409" y="0"/>
      <point x="362" y="1"/>
    </contour>
  </outline>
</glyph>
<glyph name="M" format="1">
  <advance width="674"/>
  <unicode hex="004D"/>
  <outline>
    <contour>
      <point x="546" y="0" type="curve"/>
      <point x="588" y="0"/>
      <point x="608" y="0"/>
      <point x="650" y="0" type="curve"/>
      <point x="650" y="23"/>
      <point x="650" y="0"/>
      <point x="650" y="23" type="curve"/>
      <point x="523" y="23"/>
      <point x="672" y="23"/>
      <point x="546" y="23" type="curve"/>
      <point x="546" y="0"/>
      <point x="546" y="23"/>
    </contour>
    <contour>
      <point x="546" y="23" type="curve"/>
      <point x="419" y="23"/>
      <point x="568" y="23"/>
      <point x="442" y="23" type="curve"/>
      <point x="442" y="0"/>
      <point x="442" y="23"/>
      <point x="442" y="0" type="curve"/>
      <point x="483" y="0"/>
      <point x="503" y="0"/>
      <point x="546" y="0" type="curve"/>
      <point x="546" y="23"/>
      <point x="546" y="0"/>
    </contour>
    <contour>
      <point x="129" y="23" type="curve"/>
      <point x="3" y="23"/>
      <point x="152" y="23"/>
      <point x="26" y="23" type="curve"/>
      <point x="26" y="0"/>
      <point x="26" y="23"/>
      <point x="26" y="0" type="curve"/>
      <point x="68" y="0"/>
      <point x="87" y="0"/>
      <point x="129" y="0" type="curve"/>
      <point x="129" y="23"/>
      <point x="129" y="0"/>
    </contour>
    <contour>
      <point x="166" y="722" type="curve"/>
      <point x="122" y="722"/>
      <point x="103" y="722"/>
      <point x="61" y="722" type="curve"/>
      <point x="61" y="699"/>
      <point x="61" y="722"/>
      <point x="61" y="699" type="curve"/>
      <point x="189" y="699"/>
      <point x="38" y="699"/>
      <point x="166" y="699" type="curve"/>
      <point x="166" y="722"/>
      <point x="166" y="699"/>
    </contour>
    <contour>
      <point x="509" y="699" type="curve"/>
      <point x="635" y="699"/>
      <point x="486" y="699"/>
      <point x="613" y="699" type="curve"/>
      <point x="613" y="722"/>
      <point x="613" y="699"/>
      <point x="613" y="722" type="curve"/>
      <point x="570" y="722"/>
      <point x="550" y="722"/>
      <point x="509" y="722" type="curve"/>
      <point x="509" y="699"/>
      <point x="509" y="722"/>
    </contour>
    <contour>
      <point x="129" y="0" type="curve"/>
      <point x="172" y="0"/>
      <point x="106" y="0"/>
      <point x="233" y="0" type="curve"/>
      <point x="233" y="23"/>
      <point x="233" y="0"/>
      <point x="233" y="23" type="curve"/>
      <point x="106" y="23"/>
      <point x="256" y="23"/>
      <point x="129" y="23" type="curve"/>
      <point x="129" y="0"/>
      <point x="129" y="23"/>
    </contour>
    <contour>
      <point x="557" y="0" type="curve"/>
      <point x="544" y="241"/>
      <point x="532" y="481"/>
      <point x="519" y="722" type="curve"/>
      <point x="496" y="722"/>
      <point x="519" y="722"/>
      <point x="496" y="722" type="curve"/>
      <point x="508" y="481"/>
      <point x="520" y="241"/>
      <point x="532" y="0" type="curve"/>
      <point x="557" y="0"/>
      <point x="532" y="0"/>
    </contour>
    <contour>
      <point x="142" y="0" type="curve"/>
      <point x="154" y="241"/>
      <point x="165" y="481"/>
      <point x="176" y="722" type="curve"/>
      <point x="153" y="722"/>
      <point x="176" y="722"/>
      <point x="153" y="722" type="curve"/>
      <point x="141" y="481"/>
      <point x="129" y="241"/>
      <point x="116" y="0" type="curve"/>
      <point x="142" y="0"/>
      <point x="116" y="0"/>
    </contour>
    <contour>
      <point x="347" y="0" type="curve"/>
      <point x="290" y="241"/>
      <point x="233" y="481"/>
      <point x="177" y="722" type="curve"/>
      <point x="153" y="722"/>
      <point x="178" y="722"/>
      <point x="153" y="722" type="curve"/>
      <point x="210" y="481"/>
      <point x="266" y="241"/>
      <point x="322" y="0" type="curve"/>
      <point x="347" y="0"/>
      <point x="322" y="0"/>
    </contour>
    <contour>
      <point x="353" y="0" type="curve"/>
      <point x="408" y="241"/>
      <point x="463" y="481"/>
      <point x="518" y="722" type="curve"/>
      <point x="495" y="722"/>
      <point x="519" y="722"/>
      <point x="496" y="722" type="curve"/>
      <point x="440" y="481"/>
      <point x="384" y="241"/>
      <point x="328" y="0" type="curve"/>
      <point x="354" y="0"/>
      <point x="327" y="0"/>
    </contour>
  </outline>
</glyph>
<glyph name="N" format="1">
  <advance width="597"/>
  <unicode hex="004E"/>
  <outline>
    <contour>
      <point x="316" y="825" type="move" name="top"/>
    </contour>
    <contour>
      <point x="298" y="-92" type="move" name="bottom"/>
    </contour>
    <contour>
      <point x="144" y="722" type="curve"/>
      <point x="102" y="722"/>
      <point x="83" y="722"/>
      <point x="41" y="722" type="curve"/>
      <point x="41" y="699"/>
      <point x="41" y="722"/>
      <point x="41" y="699" type="curve"/>
      <point x="167" y="699"/>
      <point x="18" y="699"/>
      <point x="144" y="699" type="curve"/>
      <point x="144" y="722"/>
      <point x="144" y="699"/>
    </contour>
    <contour>
      <point x="470" y="699" type="curve"/>
      <point x="597" y="699"/>
      <point x="447" y="699"/>
      <point x="574" y="699" type="curve"/>
      <point x="574" y="722"/>
      <point x="574" y="699"/>
      <point x="574" y="722" type="curve"/>
      <point x="532" y="722"/>
      <point x="513" y="722"/>
      <point x="470" y="722" type="curve"/>
      <point x="470" y="699"/>
      <point x="470" y="722"/>
    </contour>
    <contour>
      <point x="470" y="722" type="curve"/>
      <point x="428" y="722"/>
      <point x="408" y="722"/>
      <point x="366" y="722" type="curve"/>
      <point x="366" y="699"/>
      <point x="366" y="722"/>
      <point x="366" y="699" type="curve"/>
      <point x="492" y="699"/>
      <point x="344" y="699"/>
      <point x="470" y="699" type="curve"/>
      <point x="470" y="722"/>
      <point x="470" y="699"/>
    </contour>
    <contour>
      <point x="143" y="23" type="curve"/>
      <point x="17" y="23"/>
      <point x="166" y="23"/>
      <point x="40" y="23" type="curve"/>
      <point x="40" y="0"/>
      <point x="40" y="23"/>
      <point x="40" y="0" type="curve"/>
      <point x="82" y="0"/>
      <point x="101" y="0"/>
      <point x="143" y="0" type="curve"/>
      <point x="143" y="23"/>
      <point x="143" y="0"/>
    </contour>
    <contour>
      <point x="143" y="0" type="curve"/>
      <point x="185" y="0"/>
      <point x="121" y="0"/>
      <point x="246" y="0" type="curve"/>
      <point x="246" y="23"/>
      <point x="246" y="0"/>
      <point x="246" y="23" type="curve"/>
      <point x="121" y="23"/>
      <point x="269" y="23"/>
      <point x="143" y="23" type="curve"/>
      <point x="143" y="0"/>
      <point x="143" y="23"/>
    </contour>
    <contour>
      <point x="482" y="0" type="curve"/>
      <point x="374" y="241"/>
      <point x="266" y="481"/>
      <point x="159" y="722" type="curve"/>
      <point x="129" y="722"/>
      <point x="160" y="722"/>
      <point x="130" y="722" type="curve"/>
      <point x="238" y="481"/>
      <point x="346" y="241"/>
      <point x="453" y="0" type="curve"/>
      <point x="483" y="0"/>
      <point x="452" y="0"/>
    </contour>
    <contour>
      <point x="457" y="722" type="curve"/>
      <point x="457" y="481"/>
      <point x="457" y="241"/>
      <point x="457" y="0" type="curve"/>
      <point x="481" y="0"/>
      <point x="457" y="0"/>
      <point x="481" y="0" type="curve"/>
      <point x="481" y="241"/>
      <point x="481" y="481"/>
      <point x="481" y="722" type="curve"/>
      <point x="457" y="722"/>
      <point x="481" y="722"/>
    </contour>
    <contour>
      <point x="156" y="0" type="curve"/>
      <point x="156" y="241"/>
      <point x="156" y="481"/>
      <point x="156" y="722" type="curve"/>
      <point x="131" y="722"/>
      <point x="156" y="722"/>
      <point x="131" y="722" type="curve"/>
      <point x="131" y="481"/>
      <point x="131" y="241"/>
      <point x="131" y="0" type="curve"/>
      <point x="156" y="0"/>
      <point x="131" y="0"/>
    </contour>
  </outline>
</glyph>
<glyph name="Q" format="1">
  <advance width="500"/>
  <unicode hex="0051"/>
  <outline>
    <contour>
      <point x="248" y="4" type="curve"/>
      <point x="294" y="-144"/>
      <point x="358" y="-240"/>
      <point x="499" y="-240" type="curve"/>
      <point x="499" y="-216"/>
      <point x="499" y="-240"/>
      <point x="499" y="-216" type="curve"/>
      <point x="369" y="-216"/>
      <point x="313" y="-123"/>
      <point x="270" y="16" type="curve"/>
      <point x="248" y="4"/>
      <point x="270" y="16"/>
    </contour>
    <contour>
      <point x="91" y="360" type="curve"/>
      <point x="91" y="538"/>
      <point x="105" y="703"/>
      <point x="253" y="703" type="curve"/>
      <point x="399" y="703"/>
      <point x="416" y="540"/>
      <point x="416" y="363" type="curve"/>
      <point x="416" y="185"/>
      <point x="403" y="20"/>
      <point x="256" y="20" type="curve"/>
      <point x="107" y="20"/>
      <point x="91" y="182"/>
      <point x="91" y="360" type="curve"/>
      <point x="67" y="360"/>
      <point x="91" y="360"/>
      <point x="67" y="360" type="curve"/>
      <point x="67" y="167"/>
      <point x="92" y="-5"/>
      <point x="255" y="-5" type="curve"/>
      <point x="418" y="-5"/>
      <point x="441" y="170"/>
      <point x="441" y="364" type="curve"/>
      <point x="441" y="556"/>
      <point x="416" y="727"/>
      <point x="255" y="727" type="curve"/>
      <point x="92" y="727"/>
      <point x="67" y="553"/>
      <point x="67" y="360" type="curve"/>
      <point x="91" y="360"/>
      <point x="67" y="360"/>
    </contour>
  </outline>
</glyph>
<glyph name="S" format="1">
  <advance width="403"/>
  <unicode hex="0053"/>
  <outline>
    <contour>
      <point x="204" y="825" type="move" name="top"/>
    </contour>
    <contour>
      <point x="187" y="-91" type="move" name="bottom"/>
    </contour>
    <contour>
      <point x="287" y="663" type="curve"/>
      <point x="287" y="543"/>
      <point x="287" y="675"/>
      <point x="287" y="555" type="curve"/>
      <point x="310" y="555"/>
      <point x="287" y="555"/>
      <point x="310" y="555" type="curve"/>
      <point x="310" y="675"/>
      <point x="310" y="543"/>
      <point x="310" y="663" type="curve"/>
      <point x="287" y="663"/>
      <point x="310" y="663"/>
    </contour>
    <contour>
      <point x="92" y="58" type="curve"/>
      <point x="92" y="178"/>
      <point x="92" y="47"/>
      <point x="92" y="167" type="curve"/>
      <point x="69" y="167"/>
      <point x="92" y="167"/>
      <point x="69" y="167" type="curve"/>
      <point x="69" y="47"/>
      <point x="69" y="178"/>
      <point x="69" y="58" type="curve"/>
      <point x="92" y="58"/>
      <point x="69" y="58"/>
    </contour>
    <contour>
      <point x="69" y="58" type="curve"/>
      <point x="93" y="26"/>
      <point x="133" y="-5"/>
      <point x="186" y="-5" type="curve"/>
      <point x="282" y="-5"/>
      <point x="332" y="67"/>
      <point x="332" y="169" type="curve"/>
      <point x="332" y="268"/>
      <point x="289" y="327"/>
      <point x="212" y="389" type="curve"/>
      <point x="147" y="439"/>
      <point x="108" y="484"/>
      <point x="108" y="563" type="curve"/>
      <point x="108" y="641"/>
      <point x="133" y="703"/>
      <point x="199" y="703" type="curve"/>
      <point x="241" y="703"/>
      <point x="284" y="671"/>
      <point x="297" y="644" type="curve"/>
      <point x="302" y="650"/>
      <point x="306" y="658"/>
      <point x="310" y="663" type="curve"/>
      <point x="284" y="700"/>
      <point x="251" y="726"/>
      <point x="200" y="726" type="curve"/>
      <point x="116" y="726"/>
      <point x="81" y="656"/>
      <point x="81" y="562" type="curve"/>
      <point x="81" y="474"/>
      <point x="124" y="424"/>
      <point x="194" y="369" type="curve"/>
      <point x="266" y="315"/>
      <point x="307" y="260"/>
      <point x="307" y="169" type="curve"/>
      <point x="307" y="88"/>
      <point x="259" y="18"/>
      <point x="189" y="18" type="curve"/>
      <point x="140" y="18"/>
      <point x="105" y="50"/>
      <point x="83" y="79" type="curve"/>
      <point x="79" y="72"/>
      <point x="74" y="65"/>
    </contour>
  </outline>
</glyph>
<glyph name="U" format="1">
  <advance width="560"/>
  <unicode hex="0055"/>
  <outline>
    <contour>
      <point x="282" y="825" type="move" name="top"/>
    </contour>
    <contour>
      <point x="281" y="-91" type="move" name="bottom"/>
    </contour>
    <contour>
      <point x="432" y="699" type="curve"/>
      <point x="545" y="699"/>
      <point x="421" y="699"/>
      <point x="535" y="699" type="curve"/>
      <point x="535" y="722"/>
      <point x="535" y="699"/>
      <point x="535" y="722" type="curve"/>
      <point x="497" y="722"/>
      <point x="469" y="722"/>
      <point x="432" y="722" type="curve"/>
      <point x="432" y="699"/>
      <point x="432" y="722"/>
    </contour>
    <contour>
      <point x="432" y="722" type="curve"/>
      <point x="394" y="722"/>
      <point x="366" y="722"/>
      <point x="327" y="722" type="curve"/>
      <point x="327" y="699"/>
      <point x="327" y="722"/>
      <point x="327" y="699" type="curve"/>
      <point x="442" y="699"/>
      <point x="318" y="699"/>
      <point x="432" y="699" type="curve"/>
      <point x="432" y="722"/>
      <point x="432" y="699"/>
    </contour>
    <contour>
      <point x="129" y="722" type="curve"/>
      <point x="92" y="722"/>
      <point x="63" y="722"/>
      <point x="26" y="722" type="curve"/>
      <point x="26" y="699"/>
      <point x="26" y="722"/>
      <point x="26" y="699" type="curve"/>
      <point x="140" y="699"/>
      <point x="16" y="699"/>
      <point x="129" y="699" type="curve"/>
      <point x="129" y="722"/>
      <point x="129" y="699"/>
    </contour>
    <contour>
      <point x="129" y="699" type="curve"/>
      <point x="244" y="699"/>
      <point x="120" y="699"/>
      <point x="234" y="699" type="curve"/>
      <point x="234" y="722"/>
      <point x="234" y="699"/>
      <point x="234" y="722" type="curve"/>
      <point x="196" y="722"/>
      <point x="167" y="722"/>
      <point x="129" y="722" type="curve"/>
      <point x="129" y="699"/>
      <point x="129" y="722"/>
    </contour>
    <contour>
      <point x="115" y="721" type="curve"/>
      <point x="115" y="576"/>
      <point x="115" y="416"/>
      <point x="115" y="271" type="curve"/>
      <point x="115" y="112"/>
      <point x="143" y="-5"/>
      <point x="281" y="-5" type="curve"/>
      <point x="414" y="-5"/>
      <point x="444" y="109"/>
      <point x="444" y="263" type="curve"/>
      <point x="444" y="411"/>
      <point x="444" y="574"/>
      <point x="444" y="721" type="curve"/>
      <point x="419" y="721"/>
      <point x="445" y="721"/>
      <point x="420" y="721" type="curve"/>
      <point x="420" y="572"/>
      <point x="420" y="408"/>
      <point x="420" y="259" type="curve"/>
      <point x="420" y="123"/>
      <point x="393" y="20"/>
      <point x="283" y="20" type="curve"/>
      <point x="160" y="20"/>
      <point x="139" y="131"/>
      <point x="139" y="275" type="curve"/>
      <point x="139" y="420"/>
      <point x="139" y="578"/>
      <point x="139" y="721" type="curve"/>
      <point x="115" y="721"/>
      <point x="140" y="721"/>
    </contour>
  </outline>
</glyph>
<glyph name="V" format="1">
  <advance width="534"/>
  <unicode hex="0056"/>
  <outline>
    <contour>
      <point x="412" y="722" type="curve"/>
      <point x="373" y="722"/>
      <point x="342" y="722"/>
      <point x="302" y="722" type="curve"/>
      <point x="302" y="699"/>
      <point x="302" y="722"/>
      <point x="302" y="699" type="curve"/>
      <point x="422" y="699"/>
      <point x="292" y="699"/>
      <point x="412" y="699" type="curve"/>
      <point x="412" y="722"/>
      <point x="412" y="699"/>
    </contour>
    <contour>
      <point x="84" y="722" type="curve"/>
      <point x="47" y="722"/>
      <point x="19" y="722"/>
      <point x="-19" y="722" type="curve"/>
      <point x="-19" y="699"/>
      <point x="-19" y="722"/>
      <point x="-19" y="699" type="curve"/>
      <point x="95" y="699"/>
      <point x="-29" y="699"/>
      <point x="84" y="699" type="curve"/>
      <point x="84" y="722"/>
      <point x="84" y="699"/>
    </contour>
    <contour>
      <point x="412" y="699" type="curve"/>
      <point x="527" y="699"/>
      <point x="401" y="699"/>
      <point x="516" y="699" type="curve"/>
      <point x="516" y="722"/>
      <point x="516" y="699"/>
      <point x="516" y="722" type="curve"/>
      <point x="478" y="722"/>
      <point x="449" y="722"/>
      <point x="412" y="722" type="curve"/>
      <point x="412" y="699"/>
      <point x="412" y="722"/>
    </contour>
    <contour>
      <point x="84" y="699" type="curve"/>
      <point x="205" y="699"/>
      <point x="75" y="699"/>
      <point x="195" y="699" type="curve"/>
      <point x="195" y="722"/>
      <point x="195" y="699"/>
      <point x="195" y="722" type="curve"/>
      <point x="155" y="722"/>
      <point x="124" y="722"/>
      <point x="84" y="722" type="curve"/>
      <point x="84" y="699"/>
      <point x="84" y="722"/>
    </contour>
    <contour>
      <point x="406" y="722" type="curve"/>
      <point x="350" y="481"/>
      <point x="294" y="241"/>
      <point x="238" y="0" type="curve"/>
      <point x="266" y="0"/>
      <point x="238" y="0"/>
      <point x="266" y="0" type="curve"/>
      <point x="322" y="241"/>
      <point x="376" y="481"/>
      <point x="432" y="722" type="curve"/>
      <point x="406" y="722"/>
      <point x="432" y="722"/>
    </contour>
    <contour>
      <point x="64" y="722" type="curve"/>
      <point x="121" y="481"/>
      <point x="177" y="241"/>
      <point x="234" y="0" type="curve"/>
      <point x="262" y="0"/>
      <point x="234" y="0"/>
      <point x="262" y="0" type="curve"/>
      <point x="205" y="241"/>
      <point x="148" y="481"/>
      <point x="93" y="722" type="curve"/>
      <point x="64" y="722"/>
      <point x="93" y="722"/>
    </contour>
  </outline>
</glyph>
<glyph name="W" format="1">
  <advance width="657"/>
  <unicode hex="0057"/>
  <outline>
    <contour>
      <point x="95" y="699" type="curve"/>
      <point x="210" y="699"/>
      <point x="85" y="699"/>
      <point x="200" y="699" type="curve"/>
      <point x="200" y="722"/>
      <point x="200" y="699"/>
      <point x="200" y="722" type="curve"/>
      <point x="161" y="722"/>
      <point x="133" y="722"/>
      <point x="95" y="722" type="curve"/>
      <point x="95" y="699"/>
      <point x="95" y="722"/>
    </contour>
    <contour>
      <point x="95" y="722" type="curve"/>
      <point x="58" y="722"/>
      <point x="30" y="722"/>
      <point x="-8" y="722" type="curve"/>
      <point x="-8" y="699"/>
      <point x="-8" y="722"/>
      <point x="-8" y="699" type="curve"/>
      <point x="106" y="699"/>
      <point x="-18" y="699"/>
      <point x="95" y="699" type="curve"/>
      <point x="95" y="722"/>
      <point x="95" y="699"/>
    </contour>
    <contour>
      <point x="541" y="722" type="curve"/>
      <point x="503" y="722"/>
      <point x="475" y="722"/>
      <point x="437" y="722" type="curve"/>
      <point x="437" y="699"/>
      <point x="437" y="722"/>
      <point x="437" y="699" type="curve"/>
      <point x="551" y="699"/>
      <point x="427" y="699"/>
      <point x="541" y="699" type="curve"/>
      <point x="541" y="722"/>
      <point x="541" y="699"/>
    </contour>
    <contour>
      <point x="541" y="699" type="curve"/>
      <point x="655" y="699"/>
      <point x="530" y="699"/>
      <point x="644" y="699" type="curve"/>
      <point x="644" y="722"/>
      <point x="644" y="699"/>
      <point x="644" y="722" type="curve"/>
      <point x="607" y="722"/>
      <point x="578" y="722"/>
      <point x="541" y="722" type="curve"/>
      <point x="541" y="699"/>
      <point x="541" y="722"/>
    </contour>
    <contour>
      <point x="210" y="0" type="curve"/>
      <point x="250" y="241"/>
      <point x="290" y="481"/>
      <point x="330" y="722" type="curve"/>
      <point x="306" y="722"/>
      <point x="331" y="722"/>
      <point x="307" y="722" type="curve"/>
      <point x="269" y="481"/>
      <point x="229" y="241"/>
      <point x="190" y="0" type="curve"/>
      <point x="210" y="0"/>
      <point x="191" y="0"/>
    </contour>
    <contour>
      <point x="313" y="722" type="curve"/>
      <point x="350" y="481"/>
      <point x="385" y="241"/>
      <point x="422" y="0" type="curve"/>
      <point x="441" y="0"/>
      <point x="423" y="0"/>
      <point x="442" y="0" type="curve"/>
      <point x="407" y="241"/>
      <point x="371" y="481"/>
      <point x="336" y="722" type="curve"/>
      <point x="312" y="722"/>
      <point x="337" y="722"/>
    </contour>
    <contour>
      <point x="76" y="722" type="curve"/>
      <point x="113" y="481"/>
      <point x="150" y="241"/>
      <point x="187" y="0" type="curve"/>
      <point x="206" y="0"/>
      <point x="188" y="0"/>
      <point x="207" y="0" type="curve"/>
      <point x="172" y="241"/>
      <point x="137" y="481"/>
      <point x="102" y="722" type="curve"/>
      <point x="76" y="722"/>
      <point x="102" y="722"/>
    </contour>
    <contour>
      <point x="535" y="722" type="curve"/>
      <point x="498" y="481"/>
      <point x="461" y="241"/>
      <point x="425" y="0" type="curve"/>
      <point x="444" y="0"/>
      <point x="426" y="0"/>
      <point x="445" y="0" type="curve"/>
      <point x="484" y="241"/>
      <point x="522" y="481"/>
      <point x="561" y="722" type="curve"/>
      <point x="535" y="722"/>
      <point x="561" y="722"/>
    </contour>
  </outline>
</glyph>
<glyph name="X" format="1">
  <advance width="509"/>
  <unicode hex="0058"/>
  <outline>
    <contour>
      <point x="101" y="0" type="curve"/>
      <point x="139" y="0"/>
      <point x="92" y="0"/>
      <point x="206" y="0" type="curve"/>
      <point x="206" y="23"/>
      <point x="206" y="0"/>
      <point x="206" y="23" type="curve"/>
      <point x="92" y="23"/>
      <point x="215" y="23"/>
      <point x="101" y="23" type="curve"/>
      <point x="101" y="0"/>
      <point x="101" y="23"/>
    </contour>
    <contour>
      <point x="101" y="23" type="curve"/>
      <point x="-12" y="23"/>
      <point x="112" y="23"/>
      <point x="-2" y="23" type="curve"/>
      <point x="-2" y="0"/>
      <point x="-2" y="23"/>
      <point x="-2" y="0" type="curve"/>
      <point x="35" y="0"/>
      <point x="64" y="0"/>
      <point x="101" y="0" type="curve"/>
      <point x="101" y="23"/>
      <point x="101" y="0"/>
    </contour>
    <contour>
      <point x="405" y="0" type="curve"/>
      <point x="442" y="0"/>
      <point x="471" y="0"/>
      <point x="508" y="0" type="curve"/>
      <point x="508" y="23"/>
      <point x="508" y="0"/>
      <point x="508" y="23" type="curve"/>
      <point x="394" y="23"/>
      <point x="519" y="23"/>
      <point x="405" y="23" type="curve"/>
      <point x="405" y="0"/>
      <point x="405" y="23"/>
    </contour>
    <contour>
      <point x="405" y="23" type="curve"/>
      <point x="291" y="23"/>
      <point x="415" y="23"/>
      <point x="301" y="23" type="curve"/>
      <point x="301" y="0"/>
      <point x="301" y="23"/>
      <point x="301" y="0" type="curve"/>
      <point x="339" y="0"/>
      <point x="367" y="0"/>
      <point x="405" y="0" type="curve"/>
      <point x="405" y="23"/>
      <point x="405" y="0"/>
    </contour>
    <contour>
      <point x="389" y="699" type="curve"/>
      <point x="503" y="699"/>
      <point x="379" y="699"/>
      <point x="493" y="699" type="curve"/>
      <point x="493" y="722"/>
      <point x="493" y="699"/>
      <point x="493" y="722" type="curve"/>
      <point x="455" y="722"/>
      <point x="427" y="722"/>
      <point x="389" y="722" type="curve"/>
      <point x="389" y="699"/>
      <point x="389" y="722"/>
    </contour>
    <contour>
      <point x="389" y="722" type="curve"/>
      <point x="352" y="722"/>
      <point x="323" y="722"/>
      <point x="286" y="722" type="curve"/>
      <point x="286" y="699"/>
      <point x="286" y="722"/>
      <point x="286" y="699" type="curve"/>
      <point x="400" y="699"/>
      <point x="275" y="699"/>
      <point x="389" y="699" type="curve"/>
      <point x="389" y="722"/>
      <point x="389" y="699"/>
    </contour>
    <contour>
      <point x="119" y="722" type="curve"/>
      <point x="82" y="722"/>
      <point x="54" y="722"/>
      <point x="16" y="722" type="curve"/>
      <point x="16" y="699"/>
      <point x="16" y="722"/>
      <point x="16" y="699" type="curve"/>
      <point x="130" y="699"/>
      <point x="6" y="699"/>
      <point x="119" y="699" type="curve"/>
      <point x="119" y="722"/>
      <point x="119" y="699"/>
    </contour>
    <contour>
      <point x="119" y="699" type="curve"/>
      <point x="233" y="699"/>
      <point x="109" y="699"/>
      <point x="223" y="699" type="curve"/>
      <point x="223" y="722"/>
      <point x="223" y="699"/>
      <point x="223" y="722" type="curve"/>
      <point x="185" y="722"/>
      <point x="157" y="722"/>
      <point x="119" y="722" type="curve"/>
      <point x="119" y="699"/>
      <point x="119" y="722"/>
    </contour>
    <contour>
      <point x="382" y="722" type="curve"/>
      <point x="281" y="481"/>
      <point x="181" y="241"/>
      <point x="80" y="0" type="curve"/>
      <point x="112" y="0"/>
      <point x="80" y="0"/>
      <point x="112" y="0" type="curve"/>
      <point x="212" y="241"/>
      <point x="311" y="481"/>
      <point x="410" y="722" type="curve"/>
      <point x="382" y="722"/>
      <point x="410" y="722"/>
    </contour>
    <contour>
      <point x="100" y="722" type="curve"/>
      <point x="199" y="481"/>
      <point x="298" y="241"/>
      <point x="397" y="0" type="curve"/>
      <point x="428" y="0"/>
      <point x="397" y="0"/>
      <point x="428" y="0" type="curve"/>
      <point x="329" y="241"/>
      <point x="229" y="481"/>
      <point x="130" y="722" type="curve"/>
      <point x="100" y="722"/>
      <point x="130" y="722"/>
    </contour>
  </outline>
</glyph>
<glyph name="bracketleft" format="1">
  <advance width="220"/>
  <unicode hex="005B"/>
  <outline>
    <contour>
      <point x="181" y="771" type="curve"/>
      <point x="150" y="771"/>
      <point x="119" y="771"/>
      <point x="88" y="771" type="curve"/>
      <point x="86" y="771"/>
      <point x="82" y="771"/>
      <point x="80" y="771" type="curve"/>
      <point x="80" y="769"/>
      <point x="80" y="767"/>
      <point x="80" y="765" type="curve"/>
      <point x="80" y="470"/>
      <point x="80" y="175"/>
      <point x="80" y="-119" type="curve"/>
      <point x="80" y="-121"/>
      <point x="80" y="-123"/>
      <point x="80" y="-124" type="curve"/>
      <point x="83" y="-124"/>
      <point x="86" y="-124"/>
      <point x="87" y="-124" type="curve"/>
      <point x="118" y="-124"/>
      <point x="149" y="-124"/>
      <point x="181" y="-124" type="curve"/>
      <point x="181" y="-99"/>
      <point x="181" y="-124"/>
      <point x="181" y="-99" type="curve"/>
      <point x="149" y="-99"/>
      <point x="118" y="-99"/>
      <point x="87" y="-99" type="curve"/>
      <point x="105" y="-99"/>
      <point x="87" y="-99"/>
      <point x="105" y="-99" type="curve"/>
      <point x="105" y="-119"/>
      <point x="105" y="-99"/>
      <point x="105" y="-119" type="curve"/>
      <point x="105" y="175"/>
      <point x="105" y="470"/>
      <point x="105" y="765" type="curve"/>
      <point x="105" y="746"/>
      <point x="105" y="765"/>
      <point x="105" y="746" type="curve"/>
      <point x="88" y="746"/>
      <point x="105" y="746"/>
      <point x="88" y="746" type="curve"/>
      <point x="119" y="746"/>
      <point x="150" y="746"/>
      <point x="181" y="746" type="curve"/>
      <point x="181" y="771"/>
      <point x="181" y="746"/>
    </contour>
  </outline>
</glyph>
<glyph name="bracketright" format="1">
  <advance width="221"/>
  <unicode hex="005D"/>
  <outline>
    <contour>
      <point x="39" y="746" type="curve"/>
      <point x="70" y="746"/>
      <point x="101" y="746"/>
      <point x="132" y="746" type="curve"/>
      <point x="129" y="749"/>
      <point x="125" y="751"/>
      <point x="123" y="755" type="curve"/>
      <point x="120" y="758"/>
      <point x="117" y="761"/>
      <point x="116" y="765" type="curve"/>
      <point x="116" y="470"/>
      <point x="114" y="175"/>
      <point x="116" y="-119" type="curve"/>
      <point x="117" y="-115"/>
      <point x="121" y="-112"/>
      <point x="124" y="-108" type="curve"/>
      <point x="126" y="-105"/>
      <point x="130" y="-103"/>
      <point x="132" y="-99" type="curve"/>
      <point x="101" y="-99"/>
      <point x="70" y="-99"/>
      <point x="39" y="-99" type="curve"/>
      <point x="39" y="-124"/>
      <point x="39" y="-99"/>
      <point x="39" y="-124" type="curve"/>
      <point x="70" y="-124"/>
      <point x="101" y="-124"/>
      <point x="132" y="-124" type="curve"/>
      <point x="141" y="-124"/>
      <point x="132" y="-124"/>
      <point x="141" y="-124" type="curve"/>
      <point x="141" y="-119"/>
      <point x="141" y="-124"/>
      <point x="141" y="-119" type="curve"/>
      <point x="141" y="175"/>
      <point x="141" y="470"/>
      <point x="141" y="765" type="curve"/>
      <point x="141" y="771"/>
      <point x="141" y="765"/>
      <point x="141" y="771" type="curve"/>
      <point x="132" y="771"/>
      <point x="141" y="771"/>
      <point x="132" y="771" type="curve"/>
      <point x="101" y="771"/>
      <point x="70" y="771"/>
      <point x="39" y="771" type="curve"/>
      <point x="39" y="746"/>
      <point x="39" y="771"/>
    </contour>
  </outline>
</glyph>
<glyph name="asciicircum" format="1">
  <advance width="383"/>
  <unicode hex="005E"/>
  <outline>
    <contour>
      <point x="98" y="466" type="curve"/>
      <point x="134" y="581"/>
      <point x="169" y="695"/>
      <point x="203" y="809" type="curve"/>
      <point x="178" y="809"/>
      <point x="204" y="809"/>
      <point x="178" y="809" type="curve"/>
      <point x="143" y="695"/>
      <point x="109" y="581"/>
      <point x="73" y="466" type="curve"/>
      <point x="99" y="466"/>
      <point x="73" y="466"/>
    </contour>
    <contour>
      <point x="310" y="466" type="curve"/>
      <point x="276" y="577"/>
      <point x="237" y="699"/>
      <point x="203" y="809" type="curve"/>
      <point x="178" y="809"/>
      <point x="203" y="809"/>
      <point x="178" y="809" type="curve"/>
      <point x="213" y="699"/>
      <point x="251" y="577"/>
      <point x="285" y="466" type="curve"/>
      <point x="310" y="466"/>
      <point x="285" y="466"/>
    </contour>
  </outline>
</glyph>
<glyph name="underscore" format="1">
  <advance width="411"/>
  <unicode hex="005F"/>
  <outline>
    <contour>
      <point x="-1" y="-210" type="curve"/>
      <point x="137" y="-210"/>
      <point x="274" y="-210"/>
      <point x="411" y="-210" type="curve"/>
      <point x="411" y="-187"/>
      <point x="411" y="-210"/>
      <point x="411" y="-187" type="curve"/>
      <point x="274" y="-187"/>
      <point x="137" y="-187"/>
      <point x="-1" y="-187" type="curve"/>
      <point x="-1" y="-210"/>
      <point x="-1" y="-187"/>
    </contour>
  </outline>
</glyph>
<glyph name="grave" format="1">
  <advance width="323"/>
  <unicode hex="0060"/>
  <outline>
    <contour>
      <point x="122" y="590" type="move" name="_top"/>
    </contour>
    <contour>
      <point x="136" y="590" type="line"/>
      <point x="87" y="756" type="line"/>
      <point x="57" y="756" type="line"/>
      <point x="112" y="590" type="line"/>
    </contour>
  </outline>
</glyph>
<glyph name="f" format="1">
  <advance width="307"/>
  <unicode hex="0066"/>
  <outline>
    <contour>
      <point x="277" y="778" type="curve"/>
      <point x="277" y="658"/>
      <point x="277" y="789"/>
      <point x="277" y="669" type="curve"/>
      <point x="299" y="669"/>
      <point x="277" y="669"/>
      <point x="299" y="669" type="curve"/>
      <point x="299" y="789"/>
      <point x="299" y="658"/>
      <point x="299" y="778" type="curve"/>
      <point x="277" y="778"/>
      <point x="299" y="778"/>
    </contour>
    <contour>
      <point x="150" y="0" type="curve"/>
      <point x="187" y="0"/>
      <point x="216" y="0"/>
      <point x="253" y="0" type="curve"/>
      <point x="253" y="23"/>
      <point x="253" y="0"/>
      <point x="253" y="23" type="curve"/>
      <point x="139" y="23"/>
      <point x="264" y="23"/>
      <point x="150" y="23" type="curve"/>
      <point x="150" y="0"/>
      <point x="150" y="23"/>
    </contour>
    <contour>
      <point x="150" y="23" type="curve"/>
      <point x="36" y="23"/>
      <point x="160" y="23"/>
      <point x="46" y="23" type="curve"/>
      <point x="46" y="0"/>
      <point x="46" y="23"/>
      <point x="46" y="0" type="curve"/>
      <point x="84" y="0"/>
      <point x="112" y="0"/>
      <point x="150" y="0" type="curve"/>
      <point x="150" y="23"/>
      <point x="150" y="0"/>
    </contour>
    <contour>
      <point x="38" y="510" type="curve"/>
      <point x="259" y="510" type="line"/>
      <point x="259" y="533"/>
      <point x="259" y="510"/>
      <point x="259" y="533" type="curve"/>
      <point x="38" y="533" type="line"/>
      <point x="38" y="510"/>
      <point x="38" y="533"/>
    </contour>
    <contour>
      <point x="163" y="0" type="curve"/>
      <point x="163" y="640" type="line"/>
      <point x="163" y="714"/>
      <point x="174" y="783"/>
      <point x="232" y="783" type="curve"/>
      <point x="254" y="783"/>
      <point x="273" y="774"/>
      <point x="289" y="760" type="curve"/>
      <point x="299" y="778"/>
      <point x="289" y="760"/>
      <point x="299" y="778" type="curve"/>
      <point x="280" y="794"/>
      <point x="256" y="805"/>
      <point x="232" y="805" type="curve"/>
      <point x="159" y="805"/>
      <point x="136" y="726"/>
      <point x="137" y="640" type="curve"/>
      <point x="137" y="0" type="line"/>
      <point x="163" y="0"/>
      <point x="137" y="0"/>
    </contour>
  </outline>
</glyph>
<glyph name="i" format="1">
  <advance width="245"/>
  <unicode hex="0069"/>
  <outline>
    <contour>
      <point x="136" y="670" type="move" name="top"/>
    </contour>
    <contour>
      <point x="151" y="0" type="move" name="bottom"/>
    </contour>
    <contour>
      <point x="137" y="23" type="curve"/>
      <point x="23" y="23"/>
      <point x="148" y="23"/>
      <point x="34" y="23" type="curve"/>
      <point x="34" y="0"/>
      <point x="34" y="23"/>
      <point x="34" y="0" type="curve"/>
      <point x="71" y="0"/>
      <point x="100" y="0"/>
      <point x="137" y="0" type="curve"/>
      <point x="137" y="23"/>
      <point x="137" y="0"/>
    </contour>
    <contour>
      <point x="137" y="0" type="curve"/>
      <point x="172" y="0"/>
      <point x="199" y="0"/>
      <point x="236" y="0" type="curve"/>
      <point x="236" y="23"/>
      <point x="236" y="0"/>
      <point x="236" y="23" type="curve"/>
      <point x="127" y="23"/>
      <point x="245" y="23"/>
      <point x="137" y="23" type="curve"/>
      <point x="137" y="0"/>
      <point x="137" y="23"/>
    </contour>
    <contour>
      <point x="137" y="533" type="curve"/>
      <point x="100" y="533"/>
      <point x="71" y="533"/>
      <point x="34" y="533" type="curve"/>
      <point x="34" y="510"/>
      <point x="34" y="533"/>
      <point x="34" y="510" type="curve"/>
      <point x="148" y="510"/>
      <point x="23" y="510"/>
      <point x="137" y="510" type="curve"/>
      <point x="137" y="533"/>
      <point x="137" y="510"/>
    </contour>
    <contour>
      <point x="151" y="0" type="curve"/>
      <point x="151" y="178"/>
      <point x="151" y="355"/>
      <point x="151" y="533" type="curve"/>
      <point x="124" y="533"/>
      <point x="151" y="533"/>
      <point x="124" y="533" type="curve"/>
      <point x="124" y="355"/>
      <point x="124" y="178"/>
      <point x="124" y="0" type="curve"/>
      <point x="151" y="0"/>
      <point x="124" y="0"/>
    </contour>
    <contour>
      <point x="154" y="685" type="curve"/>
      <point x="154" y="696"/>
      <point x="146" y="702"/>
      <point x="135" y="702" type="curve"/>
      <point x="124" y="702"/>
      <point x="118" y="695"/>
      <point x="118" y="685" type="curve"/>
      <point x="157" y="685"/>
      <point x="115" y="685"/>
      <point x="154" y="685" type="curve"/>
      <point x="154" y="674"/>
      <point x="147" y="667"/>
      <point x="135" y="667" type="curve"/>
      <point x="124" y="667"/>
      <point x="118" y="674"/>
      <point x="118" y="685" type="curve"/>
      <point x="157" y="685"/>
      <point x="115" y="685"/>
    </contour>
  </outline>
</glyph>
<glyph name="j" format="1">
  <advance width="228"/>
  <unicode hex="006A"/>
  <outline>
    <contour>
      <point x="115" y="533" type="curve"/>
      <point x="77" y="533"/>
      <point x="48" y="533"/>
      <point x="11" y="533" type="curve"/>
      <point x="11" y="510"/>
      <point x="11" y="533"/>
      <point x="11" y="510" type="curve"/>
      <point x="126" y="510"/>
      <point x="0" y="510"/>
      <point x="115" y="510" type="curve"/>
      <point x="115" y="533"/>
      <point x="115" y="510"/>
    </contour>
    <contour>
      <point x="7" y="-301" type="curve"/>
      <point x="12" y="-302"/>
      <point x="19" y="-304"/>
      <point x="26" y="-304" type="curve"/>
      <point x="98" y="-304"/>
      <point x="128" y="-223"/>
      <point x="128" y="-142" type="curve"/>
      <point x="128" y="83"/>
      <point x="128" y="308"/>
      <point x="128" y="533" type="curve"/>
      <point x="102" y="533"/>
      <point x="128" y="533"/>
      <point x="102" y="533" type="curve"/>
      <point x="102" y="308"/>
      <point x="102" y="83"/>
      <point x="102" y="-142" type="curve"/>
      <point x="102" y="-202"/>
      <point x="81" y="-276"/>
      <point x="27" y="-276" type="curve"/>
      <point x="22" y="-276"/>
      <point x="16" y="-276"/>
      <point x="12" y="-275" type="curve"/>
      <point x="8" y="-296"/>
      <point x="11" y="-279"/>
    </contour>
    <contour>
      <point x="134" y="686" type="curve"/>
      <point x="134" y="697"/>
      <point x="127" y="703"/>
      <point x="116" y="703" type="curve"/>
      <point x="105" y="703"/>
      <point x="98" y="696"/>
      <point x="98" y="686" type="curve"/>
      <point x="138" y="686"/>
      <point x="95" y="686"/>
      <point x="134" y="686" type="curve"/>
      <point x="134" y="674"/>
      <point x="127" y="669"/>
      <point x="116" y="669" type="curve"/>
      <point x="105" y="669"/>
      <point x="98" y="674"/>
      <point x="98" y="686" type="curve"/>
      <point x="138" y="686"/>
      <point x="95" y="686"/>
    </contour>
  </outline>
</glyph>
<glyph name="m" format="1">
  <advance width="648"/>
  <unicode hex="006D"/>
  <outline>
    <contour>
      <point x="339" y="0" type="curve"/>
      <point x="428" y="0"/>
      <point x="340" y="0"/>
      <point x="429" y="0" type="curve"/>
      <point x="429" y="23"/>
      <point x="429" y="0"/>
      <point x="429" y="23" type="curve"/>
      <point x="340" y="23"/>
      <point x="428" y="23"/>
      <point x="339" y="23" type="curve"/>
      <point x="339" y="0"/>
      <point x="339" y="23"/>
    </contour>
    <contour>
      <point x="539" y="0" type="curve"/>
      <point x="577" y="0"/>
      <point x="605" y="0"/>
      <point x="643" y="0" type="curve"/>
      <point x="643" y="23"/>
      <point x="643" y="0"/>
      <point x="643" y="23" type="curve"/>
      <point x="529" y="23"/>
      <point x="653" y="23"/>
      <point x="539" y="23" type="curve"/>
      <point x="539" y="0"/>
      <point x="539" y="23"/>
    </contour>
    <contour>
      <point x="137" y="23" type="curve"/>
      <point x="23" y="23"/>
      <point x="148" y="23"/>
      <point x="34" y="23" type="curve"/>
      <point x="34" y="0"/>
      <point x="34" y="23"/>
      <point x="34" y="0" type="curve"/>
      <point x="71" y="0"/>
      <point x="100" y="0"/>
      <point x="137" y="0" type="curve"/>
      <point x="137" y="23"/>
      <point x="137" y="0"/>
    </contour>
    <contour>
      <point x="137" y="0" type="curve"/>
      <point x="172" y="0"/>
      <point x="116" y="0"/>
      <point x="218" y="0" type="curve"/>
      <point x="218" y="23"/>
      <point x="218" y="0"/>
      <point x="218" y="23" type="curve"/>
      <point x="116" y="23"/>
      <point x="240" y="23"/>
      <point x="137" y="23" type="curve"/>
      <point x="137" y="0"/>
      <point x="137" y="23"/>
    </contour>
    <contour>
      <point x="137" y="533" type="curve"/>
      <point x="100" y="533"/>
      <point x="71" y="533"/>
      <point x="34" y="533" type="curve"/>
      <point x="34" y="510"/>
      <point x="34" y="533"/>
      <point x="34" y="510" type="curve"/>
      <point x="148" y="510"/>
      <point x="23" y="510"/>
      <point x="137" y="510" type="curve"/>
      <point x="137" y="533"/>
      <point x="137" y="510"/>
    </contour>
    <contour>
      <point x="345" y="353" type="curve"/>
      <point x="363" y="429"/>
      <point x="390" y="516"/>
      <point x="452" y="516" type="curve"/>
      <point x="533" y="516"/>
      <point x="526" y="439"/>
      <point x="526" y="341" type="curve"/>
      <point x="526" y="228"/>
      <point x="526" y="114"/>
      <point x="526" y="0" type="curve"/>
      <point x="550" y="0"/>
      <point x="526" y="0"/>
      <point x="550" y="0" type="curve"/>
      <point x="550" y="115"/>
      <point x="550" y="229"/>
      <point x="550" y="344" type="curve"/>
      <point x="550" y="455"/>
      <point x="550" y="538"/>
      <point x="456" y="538" type="curve"/>
      <point x="375" y="538"/>
      <point x="346" y="451"/>
      <point x="333" y="365" type="curve"/>
      <point x="345" y="353"/>
      <point x="333" y="365"/>
    </contour>
    <contour>
      <point x="145" y="353" type="curve"/>
      <point x="158" y="426"/>
      <point x="186" y="517"/>
      <point x="251" y="517" type="curve"/>
      <point x="333" y="517"/>
      <point x="326" y="439"/>
      <point x="326" y="341" type="curve"/>
      <point x="326" y="228"/>
      <point x="326" y="114"/>
      <point x="326" y="0" type="curve"/>
      <point x="351" y="0"/>
      <point x="326" y="0"/>
      <point x="351" y="0" type="curve"/>
      <point x="351" y="115"/>
      <point x="351" y="229"/>
      <point x="351" y="344" type="curve"/>
      <point x="351" y="455"/>
      <point x="350" y="539"/>
      <point x="257" y="539" type="curve"/>
      <point x="172" y="539"/>
      <point x="146" y="452"/>
      <point x="133" y="365" type="curve"/>
      <point x="145" y="353"/>
      <point x="133" y="365"/>
    </contour>
    <contour>
      <point x="150" y="0" type="curve"/>
      <point x="150" y="178"/>
      <point x="150" y="355"/>
      <point x="150" y="533" type="curve"/>
      <point x="125" y="533"/>
      <point x="150" y="533"/>
      <point x="125" y="533" type="curve"/>
      <point x="125" y="355"/>
      <point x="125" y="178"/>
      <point x="125" y="0" type="curve"/>
      <point x="150" y="0"/>
      <point x="125" y="0"/>
    </contour>
  </outline>
</glyph>
<glyph name="o" format="1">
  <advance width="412"/>
  <unicode hex="006F"/>
  <outline>
    <contour>
      <point x="203" y="670" type="move" name="top"/>
    </contour>
    <contour>
      <point x="89" y="268" type="curve"/>
      <point x="89" y="401"/>
      <point x="102" y="516"/>
      <point x="204" y="516" type="curve"/>
      <point x="312" y="516"/>
      <point x="324" y="399"/>
      <point x="324" y="266" type="curve"/>
      <point x="324" y="134"/>
      <point x="310" y="18"/>
      <point x="207" y="18" type="curve"/>
      <point x="95" y="18"/>
      <point x="89" y="135"/>
      <point x="89" y="268" type="curve"/>
      <point x="65" y="268"/>
      <point x="87" y="268"/>
      <point x="64" y="268" type="curve"/>
      <point x="64" y="121"/>
      <point x="81" y="-5"/>
      <point x="206" y="-5" type="curve"/>
      <point x="330" y="-5"/>
      <point x="349" y="119"/>
      <point x="349" y="266" type="curve"/>
      <point x="349" y="413"/>
      <point x="330" y="538"/>
      <point x="205" y="538" type="curve"/>
      <point x="83" y="538"/>
      <point x="64" y="413"/>
      <point x="64" y="268" type="curve"/>
      <point x="87" y="268"/>
      <point x="65" y="268"/>
    </contour>
  </outline>
</glyph>
<glyph name="p" format="1">
  <advance width="448"/>
  <unicode hex="0070"/>
  <outline>
    <contour>
      <point x="108" y="-277" type="curve"/>
      <point x="-4" y="-277"/>
      <point x="118" y="-277"/>
      <point x="6" y="-277" type="curve"/>
      <point x="6" y="-300"/>
      <point x="6" y="-277"/>
      <point x="6" y="-300" type="curve"/>
      <point x="43" y="-300"/>
      <point x="71" y="-300"/>
      <point x="108" y="-300" type="curve"/>
      <point x="108" y="-277"/>
      <point x="108" y="-300"/>
    </contour>
    <contour>
      <point x="108" y="-300" type="curve"/>
      <point x="143" y="-300"/>
      <point x="169" y="-300"/>
      <point x="205" y="-300" type="curve"/>
      <point x="205" y="-277"/>
      <point x="205" y="-300"/>
      <point x="205" y="-277" type="curve"/>
      <point x="98" y="-277"/>
      <point x="214" y="-277"/>
      <point x="108" y="-277" type="curve"/>
      <point x="108" y="-300"/>
      <point x="108" y="-277"/>
    </contour>
    <contour>
      <point x="109" y="533" type="curve"/>
      <point x="72" y="533"/>
      <point x="44" y="533"/>
      <point x="7" y="533" type="curve"/>
      <point x="7" y="510"/>
      <point x="7" y="533"/>
      <point x="7" y="510" type="curve"/>
      <point x="119" y="510"/>
      <point x="-4" y="510"/>
      <point x="109" y="510" type="curve"/>
      <point x="109" y="533"/>
      <point x="109" y="510"/>
    </contour>
    <contour>
      <point x="115" y="401" type="curve"/>
      <point x="126" y="449"/>
      <point x="174" y="516"/>
      <point x="235" y="516" type="curve"/>
      <point x="341" y="516"/>
      <point x="359" y="400"/>
      <point x="359" y="276" type="curve"/>
      <point x="361" y="142"/>
      <point x="339" y="18"/>
      <point x="234" y="18" type="curve"/>
      <point x="175" y="18"/>
      <point x="139" y="67"/>
      <point x="117" y="122" type="curve"/>
      <point x="100" y="110"/>
      <point x="117" y="122"/>
      <point x="100" y="110" type="curve"/>
      <point x="125" y="43"/>
      <point x="166" y="-5"/>
      <point x="235" y="-5" type="curve"/>
      <point x="367" y="-5"/>
      <point x="384" y="131"/>
      <point x="385" y="278" type="curve"/>
      <point x="385" y="414"/>
      <point x="360" y="538"/>
      <point x="237" y="538" type="curve"/>
      <point x="163" y="538"/>
      <point x="118" y="477"/>
      <point x="102" y="427" type="curve"/>
      <point x="120" y="405"/>
      <point x="98" y="423"/>
    </contour>
    <contour>
      <point x="121" y="-300" type="curve"/>
      <point x="121" y="-22"/>
      <point x="121" y="255"/>
      <point x="121" y="533" type="curve"/>
      <point x="96" y="533"/>
      <point x="121" y="533"/>
      <point x="96" y="533" type="curve"/>
      <point x="96" y="255"/>
      <point x="96" y="-22"/>
      <point x="96" y="-300" type="curve"/>
      <point x="121" y="-300"/>
      <point x="96" y="-300"/>
    </contour>
  </outline>
</glyph>
<glyph name="q" format="1">
  <advance width="440"/>
  <unicode hex="0071"/>
  <outline>
    <contour>
      <point x="336" y="510" type="curve"/>
      <point x="443" y="510"/>
      <point x="325" y="510"/>
      <point x="433" y="510" type="curve"/>
      <point x="433" y="533"/>
      <point x="433" y="510"/>
      <point x="433" y="533" type="curve"/>
      <point x="397" y="533"/>
      <point x="370" y="533"/>
      <point x="336" y="533" type="curve"/>
      <point x="336" y="510"/>
      <point x="336" y="533"/>
    </contour>
    <contour>
      <point x="336" y="-277" type="curve"/>
      <point x="221" y="-277"/>
      <point x="346" y="-277"/>
      <point x="231" y="-277" type="curve"/>
      <point x="231" y="-300"/>
      <point x="231" y="-277"/>
      <point x="231" y="-300" type="curve"/>
      <point x="269" y="-300"/>
      <point x="298" y="-300"/>
      <point x="336" y="-300" type="curve"/>
      <point x="336" y="-277"/>
      <point x="336" y="-300"/>
    </contour>
    <contour>
      <point x="336" y="-300" type="curve"/>
      <point x="370" y="-300"/>
      <point x="397" y="-300"/>
      <point x="433" y="-300" type="curve"/>
      <point x="433" y="-277"/>
      <point x="433" y="-300"/>
      <point x="433" y="-277" type="curve"/>
      <point x="325" y="-277"/>
      <point x="443" y="-277"/>
      <point x="336" y="-277" type="curve"/>
      <point x="336" y="-300"/>
      <point x="336" y="-277"/>
    </contour>
    <contour>
      <point x="339" y="433" type="curve"/>
      <point x="318" y="503"/>
      <point x="262" y="538"/>
      <point x="207" y="538" type="curve"/>
      <point x="83" y="538"/>
      <point x="62" y="405"/>
      <point x="62" y="264" type="curve"/>
      <point x="63" y="124"/>
      <point x="88" y="-6"/>
      <point x="211" y="-6" type="curve"/>
      <point x="275" y="-6"/>
      <point x="324" y="56"/>
      <point x="340" y="121" type="curve"/>
      <point x="326" y="135"/>
      <point x="341" y="126"/>
      <point x="326" y="139" type="curve"/>
      <point x="312" y="78"/>
      <point x="266" y="17"/>
      <point x="211" y="17" type="curve"/>
      <point x="106" y="17"/>
      <point x="88" y="138"/>
      <point x="88" y="265" type="curve"/>
      <point x="88" y="392"/>
      <point x="104" y="515"/>
      <point x="208" y="515" type="curve"/>
      <point x="258" y="515"/>
      <point x="308" y="478"/>
      <point x="328" y="411" type="curve"/>
      <point x="340" y="426"/>
      <point x="328" y="418"/>
    </contour>
    <contour>
      <point x="347" y="-300" type="curve"/>
      <point x="347" y="-22"/>
      <point x="347" y="255"/>
      <point x="347" y="533" type="curve"/>
      <point x="321" y="533"/>
      <point x="347" y="533"/>
      <point x="321" y="533" type="curve"/>
      <point x="321" y="255"/>
      <point x="321" y="-22"/>
      <point x="321" y="-300" type="curve"/>
      <point x="347" y="-300"/>
      <point x="321" y="-300"/>
    </contour>
  </outline>
</glyph>
<glyph name="v" format="1">
  <advance width="447"/>
  <unicode hex="0076"/>
  <outline>
    <contour>
      <point x="104" y="533" type="curve"/>
      <point x="67" y="533"/>
      <point x="39" y="533"/>
      <point x="1" y="533" type="curve"/>
      <point x="1" y="510"/>
      <point x="1" y="533"/>
      <point x="1" y="510" type="curve"/>
      <point x="115" y="510"/>
      <point x="-9" y="510"/>
      <point x="104" y="510" type="curve"/>
      <point x="104" y="533"/>
      <point x="104" y="510"/>
    </contour>
    <contour>
      <point x="104" y="510" type="curve"/>
      <point x="185" y="510"/>
      <point x="95" y="510"/>
      <point x="176" y="510" type="curve"/>
      <point x="176" y="533"/>
      <point x="176" y="510"/>
      <point x="176" y="533" type="curve"/>
      <point x="148" y="533"/>
      <point x="130" y="533"/>
      <point x="104" y="533" type="curve"/>
      <point x="104" y="510"/>
      <point x="104" y="533"/>
    </contour>
    <contour>
      <point x="353" y="533" type="curve"/>
      <point x="323" y="533"/>
      <point x="301" y="533"/>
      <point x="271" y="533" type="curve"/>
      <point x="271" y="510"/>
      <point x="271" y="533"/>
      <point x="271" y="510" type="curve"/>
      <point x="363" y="510"/>
      <point x="261" y="510"/>
      <point x="353" y="510" type="curve"/>
      <point x="353" y="533"/>
      <point x="353" y="510"/>
    </contour>
    <contour>
      <point x="353" y="510" type="curve"/>
      <point x="454" y="510"/>
      <point x="344" y="510"/>
      <point x="445" y="510" type="curve"/>
      <point x="445" y="533"/>
      <point x="445" y="510"/>
      <point x="445" y="533" type="curve"/>
      <point x="411" y="533"/>
      <point x="387" y="533"/>
      <point x="353" y="533" type="curve"/>
      <point x="353" y="510"/>
      <point x="353" y="533"/>
    </contour>
    <contour>
      <point x="85" y="533" type="curve"/>
      <point x="128" y="355"/>
      <point x="170" y="178"/>
      <point x="211" y="0" type="curve"/>
      <point x="236" y="0"/>
      <point x="211" y="0"/>
      <point x="236" y="0" type="curve"/>
      <point x="195" y="178"/>
      <point x="153" y="355"/>
      <point x="113" y="533" type="curve"/>
      <point x="85" y="533"/>
      <point x="113" y="533"/>
    </contour>
    <contour>
      <point x="345" y="533" type="curve"/>
      <point x="214" y="0" type="line"/>
      <point x="240" y="0"/>
      <point x="214" y="0"/>
      <point x="240" y="0" type="curve"/>
      <point x="284" y="178"/>
      <point x="328" y="355"/>
      <point x="372" y="533" type="curve"/>
      <point x="345" y="533"/>
      <point x="372" y="533"/>
    </contour>
  </outline>
</glyph>
<glyph name="w" format="1">
  <advance width="653"/>
  <unicode hex="0077"/>
  <outline>
    <contour>
      <point x="548" y="510" type="curve"/>
      <point x="662" y="510"/>
      <point x="537" y="510"/>
      <point x="651" y="510" type="curve"/>
      <point x="651" y="533"/>
      <point x="651" y="510"/>
      <point x="651" y="533" type="curve"/>
      <point x="614" y="533"/>
      <point x="585" y="533"/>
      <point x="548" y="533" type="curve"/>
      <point x="548" y="510"/>
      <point x="548" y="533"/>
    </contour>
    <contour>
      <point x="548" y="533" type="curve"/>
      <point x="510" y="533"/>
      <point x="504" y="533"/>
      <point x="466" y="533" type="curve"/>
      <point x="466" y="510"/>
      <point x="466" y="533"/>
      <point x="466" y="510" type="curve"/>
      <point x="578" y="510"/>
      <point x="436" y="510"/>
      <point x="548" y="510" type="curve"/>
      <point x="548" y="533"/>
      <point x="548" y="510"/>
    </contour>
    <contour>
      <point x="104" y="533" type="curve"/>
      <point x="67" y="533"/>
      <point x="39" y="533"/>
      <point x="1" y="533" type="curve"/>
      <point x="1" y="510"/>
      <point x="1" y="533"/>
      <point x="1" y="510" type="curve"/>
      <point x="115" y="510"/>
      <point x="-9" y="510"/>
      <point x="104" y="510" type="curve"/>
      <point x="104" y="533"/>
      <point x="104" y="510"/>
    </contour>
    <contour>
      <point x="104" y="510" type="curve"/>
      <point x="217" y="510"/>
      <point x="84" y="510"/>
      <point x="196" y="510" type="curve"/>
      <point x="196" y="533"/>
      <point x="196" y="510"/>
      <point x="196" y="533" type="curve"/>
      <point x="159" y="533"/>
      <point x="142" y="533"/>
      <point x="104" y="533" type="curve"/>
      <point x="104" y="510"/>
      <point x="104" y="533"/>
    </contour>
    <contour>
      <point x="219" y="0" type="curve"/>
      <point x="260" y="178"/>
      <point x="301" y="355"/>
      <point x="342" y="533" type="curve"/>
      <point x="314" y="533"/>
      <point x="342" y="533"/>
      <point x="314" y="533" type="curve"/>
      <point x="275" y="355"/>
      <point x="234" y="178"/>
      <point x="195" y="0" type="curve"/>
      <point x="219" y="0"/>
      <point x="195" y="0"/>
    </contour>
    <contour>
      <point x="541" y="533" type="curve"/>
      <point x="505" y="355"/>
      <point x="467" y="178"/>
      <point x="430" y="0" type="curve"/>
      <point x="454" y="0"/>
      <point x="430" y="0"/>
      <point x="454" y="0" type="curve"/>
      <point x="493" y="178"/>
      <point x="531" y="355"/>
      <point x="570" y="533" type="curve"/>
      <point x="541" y="533"/>
      <point x="570" y="533"/>
    </contour>
    <contour>
      <point x="319" y="533" type="curve"/>
      <point x="356" y="355"/>
      <point x="392" y="178"/>
      <point x="429" y="0" type="curve"/>
      <point x="453" y="0"/>
      <point x="429" y="0"/>
      <point x="453" y="0" type="curve"/>
      <point x="417" y="178"/>
      <point x="381" y="355"/>
      <point x="345" y="533" type="curve"/>
      <point x="319" y="533"/>
      <point x="345" y="533"/>
    </contour>
    <contour>
      <point x="84" y="533" type="curve"/>
      <point x="121" y="355"/>
      <point x="158" y="178"/>
      <point x="194" y="0" type="curve"/>
      <point x="218" y="0"/>
      <point x="194" y="0"/>
      <point x="218" y="0" type="curve"/>
      <point x="182" y="178"/>
      <point x="147" y="355"/>
      <point x="111" y="533" type="curve"/>
      <point x="84" y="533"/>
      <point x="111" y="533"/>
    </contour>
  </outline>
</glyph>
<glyph name="x" format="1">
  <advance width="467"/>
  <unicode hex="0078"/>
  <outline>
    <contour>
      <point x="108" y="23" type="curve"/>
      <point x="-4" y="23"/>
      <point x="119" y="23"/>
      <point x="5" y="23" type="curve"/>
      <point x="5" y="0"/>
      <point x="5" y="23"/>
      <point x="5" y="0" type="curve"/>
      <point x="43" y="0"/>
      <point x="71" y="0"/>
      <point x="108" y="0" type="curve"/>
      <point x="108" y="23"/>
      <point x="108" y="0"/>
    </contour>
    <contour>
      <point x="358" y="23" type="curve"/>
      <point x="258" y="23"/>
      <point x="377" y="23"/>
      <point x="277" y="23" type="curve"/>
      <point x="277" y="0"/>
      <point x="277" y="23"/>
      <point x="277" y="0" type="curve"/>
      <point x="310" y="0"/>
      <point x="326" y="0"/>
      <point x="358" y="0" type="curve"/>
      <point x="358" y="23"/>
      <point x="358" y="0"/>
    </contour>
    <contour>
      <point x="358" y="0" type="curve"/>
      <point x="395" y="0"/>
      <point x="424" y="0"/>
      <point x="461" y="0" type="curve"/>
      <point x="461" y="23"/>
      <point x="461" y="0"/>
      <point x="461" y="23" type="curve"/>
      <point x="348" y="23"/>
      <point x="471" y="23"/>
      <point x="358" y="23" type="curve"/>
      <point x="358" y="0"/>
      <point x="358" y="23"/>
    </contour>
    <contour>
      <point x="108" y="0" type="curve"/>
      <point x="141" y="0"/>
      <point x="89" y="0"/>
      <point x="189" y="0" type="curve"/>
      <point x="189" y="23"/>
      <point x="189" y="0"/>
      <point x="189" y="23" type="curve"/>
      <point x="89" y="23"/>
      <point x="208" y="23"/>
      <point x="108" y="23" type="curve"/>
      <point x="108" y="0"/>
      <point x="108" y="23"/>
    </contour>
    <contour>
      <point x="348" y="510" type="curve"/>
      <point x="462" y="510"/>
      <point x="338" y="510"/>
      <point x="453" y="510" type="curve"/>
      <point x="453" y="533"/>
      <point x="453" y="510"/>
      <point x="453" y="533" type="curve"/>
      <point x="414" y="533"/>
      <point x="384" y="533"/>
      <point x="348" y="533" type="curve"/>
      <point x="348" y="510"/>
      <point x="348" y="533"/>
    </contour>
    <contour>
      <point x="121" y="533" type="curve"/>
      <point x="83" y="533"/>
      <point x="55" y="533"/>
      <point x="17" y="533" type="curve"/>
      <point x="17" y="510"/>
      <point x="17" y="533"/>
      <point x="17" y="510" type="curve"/>
      <point x="131" y="510"/>
      <point x="8" y="510"/>
      <point x="121" y="510" type="curve"/>
      <point x="121" y="533"/>
      <point x="121" y="510"/>
    </contour>
    <contour>
      <point x="121" y="510" type="curve"/>
      <point x="218" y="510"/>
      <point x="92" y="510"/>
      <point x="190" y="510" type="curve"/>
      <point x="190" y="533"/>
      <point x="190" y="510"/>
      <point x="190" y="533" type="curve"/>
      <point x="158" y="533"/>
      <point x="154" y="533"/>
      <point x="121" y="533" type="curve"/>
      <point x="121" y="510"/>
      <point x="121" y="533"/>
    </contour>
    <contour>
      <point x="348" y="533" type="curve"/>
      <point x="315" y="533"/>
      <point x="311" y="533"/>
      <point x="278" y="533" type="curve"/>
      <point x="278" y="510"/>
      <point x="278" y="533"/>
      <point x="278" y="510" type="curve"/>
      <point x="377" y="510"/>
      <point x="250" y="510"/>
      <point x="348" y="510" type="curve"/>
      <point x="348" y="533"/>
      <point x="348" y="510"/>
    </contour>
    <contour>
      <point x="381" y="0" type="curve"/>
      <point x="298" y="177"/>
      <point x="212" y="357"/>
      <point x="128" y="533" type="curve"/>
      <point x="101" y="533"/>
      <point x="128" y="533"/>
      <point x="101" y="533" type="curve"/>
      <point x="184" y="356"/>
      <point x="269" y="176"/>
      <point x="351" y="0" type="curve"/>
      <point x="381" y="0"/>
      <point x="352" y="0"/>
    </contour>
    <contour>
      <point x="342" y="533" type="curve"/>
      <point x="257" y="357"/>
      <point x="170" y="177"/>
      <point x="87" y="1" type="curve"/>
      <point x="116" y="1"/>
      <point x="87" y="0"/>
      <point x="116" y="0" type="curve"/>
      <point x="201" y="176"/>
      <point x="286" y="356"/>
      <point x="369" y="533" type="curve"/>
      <point x="343" y="533"/>
      <point x="369" y="533"/>
    </contour>
  </outline>
</glyph>
<glyph name="braceleft" format="1">
  <advance width="225"/>
  <unicode hex="007B"/>
  <outline>
    <contour>
      <point x="178" y="-101" type="curve"/>
      <point x="122" y="-101"/>
      <point x="121" y="-40"/>
      <point x="121" y="26" type="curve"/>
      <point x="121" y="85"/>
      <point x="121" y="144"/>
      <point x="121" y="203" type="curve"/>
      <point x="121" y="281"/>
      <point x="106" y="350"/>
      <point x="39" y="350" type="curve"/>
      <point x="39" y="327"/>
      <point x="39" y="350"/>
      <point x="39" y="327" type="curve"/>
      <point x="92" y="327"/>
      <point x="96" y="269"/>
      <point x="96" y="205" type="curve"/>
      <point x="96" y="146"/>
      <point x="96" y="86"/>
      <point x="96" y="27" type="curve"/>
      <point x="96" y="-54"/>
      <point x="110" y="-124"/>
      <point x="178" y="-124" type="curve"/>
      <point x="178" y="-101"/>
      <point x="178" y="-124"/>
    </contour>
    <contour>
      <point x="178" y="800" type="curve"/>
      <point x="111" y="800"/>
      <point x="97" y="731"/>
      <point x="97" y="650" type="curve"/>
      <point x="97" y="590"/>
      <point x="97" y="530"/>
      <point x="97" y="470" type="curve"/>
      <point x="97" y="406"/>
      <point x="92" y="350"/>
      <point x="39" y="350" type="curve"/>
      <point x="39" y="327"/>
      <point x="39" y="350"/>
      <point x="39" y="327" type="curve"/>
      <point x="106" y="327"/>
      <point x="121" y="394"/>
      <point x="121" y="473" type="curve"/>
      <point x="121" y="532"/>
      <point x="121" y="591"/>
      <point x="121" y="650" type="curve"/>
      <point x="121" y="716"/>
      <point x="122" y="777"/>
      <point x="178" y="777" type="curve"/>
      <point x="178" y="800"/>
      <point x="178" y="777"/>
    </contour>
  </outline>
</glyph>
<glyph name="bar" format="1">
  <advance width="188"/>
  <unicode hex="007C"/>
  <outline>
    <contour>
      <point x="107" y="-300" type="curve"/>
      <point x="107" y="67"/>
      <point x="107" y="433"/>
      <point x="107" y="800" type="curve"/>
      <point x="81" y="800"/>
      <point x="107" y="800"/>
      <point x="81" y="800" type="curve"/>
      <point x="81" y="433"/>
      <point x="81" y="67"/>
      <point x="81" y="-300" type="curve"/>
      <point x="107" y="-300"/>
      <point x="81" y="-300"/>
    </contour>
  </outline>
</glyph>
<glyph name="braceright" format="1">
  <advance width="225"/>
  <unicode hex="007D"/>
  <outline>
    <contour>
      <point x="47" y="-124" type="curve"/>
      <point x="116" y="-124"/>
      <point x="130" y="-54"/>
      <point x="130" y="27" type="curve"/>
      <point x="130" y="86"/>
      <point x="130" y="146"/>
      <point x="130" y="205" type="curve"/>
      <point x="130" y="269"/>
      <point x="133" y="327"/>
      <point x="186" y="327" type="curve"/>
      <point x="186" y="350"/>
      <point x="186" y="327"/>
      <point x="186" y="350" type="curve"/>
      <point x="120" y="350"/>
      <point x="106" y="281"/>
      <point x="106" y="203" type="curve"/>
      <point x="106" y="144"/>
      <point x="106" y="85"/>
      <point x="106" y="26" type="curve"/>
      <point x="106" y="-40"/>
      <point x="104" y="-101"/>
      <point x="47" y="-101" type="curve"/>
      <point x="47" y="-124"/>
      <point x="47" y="-101"/>
    </contour>
    <contour>
      <point x="47" y="777" type="curve"/>
      <point x="104" y="777"/>
      <point x="107" y="716"/>
      <point x="107" y="650" type="curve"/>
      <point x="107" y="591"/>
      <point x="107" y="532"/>
      <point x="107" y="473" type="curve"/>
      <point x="107" y="394"/>
      <point x="120" y="327"/>
      <point x="186" y="327" type="curve"/>
      <point x="186" y="350"/>
      <point x="186" y="327"/>
      <point x="186" y="350" type="curve"/>
      <point x="135" y="350"/>
      <point x="130" y="406"/>
      <point x="130" y="470" type="curve"/>
      <point x="130" y="530"/>
      <point x="130" y="590"/>
      <point x="130" y="650" type="curve"/>
      <point x="130" y="731"/>
      <point x="116" y="800"/>
      <point x="47" y="800" type="curve"/>
      <point x="47" y="777"/>
      <point x="47" y="800"/>
    </contour>
  </outline>
</glyph>
<glyph name="asciitilde" format="1">
  <advance width="485"/>
  <unicode hex="007E"/>
  <outline>
    <contour>
      <point x="376" y="344" type="curve"/>
      <point x="367" y="301"/>
      <point x="366" y="242"/>
      <point x="318" y="242" type="curve"/>
      <point x="287" y="242"/>
      <point x="271" y="263"/>
      <point x="253" y="290" type="curve"/>
      <point x="231" y="322"/>
      <point x="210" y="345"/>
      <point x="174" y="345" type="curve"/>
      <point x="110" y="345"/>
      <point x="98" y="290"/>
      <point x="88" y="224" type="curve"/>
      <point x="109" y="219"/>
      <point x="88" y="224"/>
      <point x="110" y="219" type="curve"/>
      <point x="117" y="269"/>
      <point x="122" y="323"/>
      <point x="172" y="323" type="curve"/>
      <point x="200" y="323"/>
      <point x="214" y="303"/>
      <point x="229" y="279" type="curve"/>
      <point x="254" y="244"/>
      <point x="275" y="220"/>
      <point x="316" y="220" type="curve"/>
      <point x="380" y="220"/>
      <point x="387" y="279"/>
      <point x="398" y="340" type="curve"/>
      <point x="377" y="344"/>
      <point x="397" y="340"/>
    </contour>
  </outline>
</glyph>
<glyph name="exclamdown" format="1">
  <advance width="213"/>
  <unicode hex="00A1"/>
  <outline>
    <contour>
      <point x="94" y="292" type="line"/>
      <point x="91" y="-201" type="line"/>
      <point x="123" y="-201" type="line"/>
      <point x="120" y="292" type="line"/>
    </contour>
    <contour>
      <point x="88" y="509" type="curve"/>
      <point x="88" y="497"/>
      <point x="95" y="491"/>
      <point x="106" y="491" type="curve"/>
      <point x="118" y="491"/>
      <point x="124" y="498"/>
      <point x="124" y="509" type="curve"/>
      <point x="85" y="509"/>
      <point x="128" y="509"/>
      <point x="88" y="509" type="curve"/>
      <point x="88" y="520"/>
      <point x="95" y="525"/>
      <point x="106" y="525" type="curve"/>
      <point x="118" y="525"/>
      <point x="124" y="520"/>
      <point x="124" y="509" type="curve"/>
      <point x="85" y="509"/>
      <point x="128" y="509"/>
    </contour>
  </outline>
</glyph>
<glyph name="cent" format="1">
  <advance width="431"/>
  <unicode hex="00A2"/>
  <outline>
    <contour>
      <point x="236" y="-53" type="curve"/>
      <point x="236" y="-13"/>
      <point x="236" y="27"/>
      <point x="236" y="67" type="curve"/>
      <point x="210" y="67"/>
      <point x="236" y="67"/>
      <point x="210" y="67" type="curve"/>
      <point x="210" y="27"/>
      <point x="210" y="-13"/>
      <point x="210" y="-53" type="curve"/>
      <point x="236" y="-53"/>
      <point x="210" y="-53"/>
    </contour>
    <contour>
      <point x="223" y="778" type="curve"/>
      <point x="223" y="742"/>
      <point x="223" y="706"/>
      <point x="223" y="670" type="curve"/>
      <point x="248" y="670"/>
      <point x="223" y="670"/>
      <point x="248" y="670" type="curve"/>
      <point x="248" y="706"/>
      <point x="248" y="742"/>
      <point x="248" y="778" type="curve"/>
      <point x="223" y="778"/>
      <point x="248" y="778"/>
    </contour>
    <contour>
      <point x="370" y="602" type="curve"/>
      <point x="333" y="654"/>
      <point x="296" y="679"/>
      <point x="239" y="679" type="curve"/>
      <point x="95" y="679"/>
      <point x="60" y="535"/>
      <point x="60" y="366" type="curve"/>
      <point x="60" y="200"/>
      <point x="81" y="54"/>
      <point x="222" y="54" type="curve"/>
      <point x="289" y="54"/>
      <point x="329" y="90"/>
      <point x="371" y="149" type="curve"/>
      <point x="353" y="165"/>
      <point x="371" y="149"/>
      <point x="353" y="165" type="curve"/>
      <point x="318" y="114"/>
      <point x="284" y="77"/>
      <point x="224" y="77" type="curve"/>
      <point x="102" y="77"/>
      <point x="85" y="214"/>
      <point x="85" y="367" type="curve"/>
      <point x="85" y="521"/>
      <point x="114" y="655"/>
      <point x="237" y="655" type="curve"/>
      <point x="289" y="655"/>
      <point x="322" y="631"/>
      <point x="353" y="589" type="curve"/>
      <point x="370" y="602"/>
      <point x="353" y="589"/>
    </contour>
    <contour>
      <point x="347" y="602" type="curve"/>
      <point x="347" y="482"/>
      <point x="347" y="602"/>
      <point x="347" y="482" type="curve"/>
      <point x="370" y="482"/>
      <point x="347" y="482"/>
      <point x="370" y="482" type="curve"/>
      <point x="370" y="602"/>
      <point x="370" y="482"/>
      <point x="370" y="602" type="curve"/>
      <point x="347" y="602"/>
      <point x="370" y="602"/>
    </contour>
  </outline>
</glyph>
<glyph name="sterling" format="1">
  <advance width="355"/>
  <unicode hex="00A3"/>
  <outline>
    <contour>
      <point x="288" y="23" type="curve"/>
      <point x="204" y="23"/>
      <point x="127" y="23"/>
      <point x="46" y="23" type="curve"/>
      <point x="46" y="0"/>
      <point x="46" y="23"/>
      <point x="46" y="0" type="curve"/>
      <point x="127" y="0"/>
      <point x="208" y="0"/>
      <point x="288" y="0" type="curve"/>
      <point x="288" y="23"/>
      <point x="288" y="0"/>
    </contour>
    <contour>
      <point x="260" y="388" type="curve"/>
      <point x="195" y="388"/>
      <point x="131" y="388"/>
      <point x="67" y="388" type="curve"/>
      <point x="67" y="366"/>
      <point x="67" y="388"/>
      <point x="67" y="366" type="curve"/>
      <point x="131" y="366"/>
      <point x="195" y="366"/>
      <point x="260" y="366" type="curve"/>
      <point x="260" y="388"/>
      <point x="260" y="366"/>
    </contour>
    <contour>
      <point x="299" y="677" type="curve"/>
      <point x="273" y="708"/>
      <point x="251" y="727"/>
      <point x="215" y="727" type="curve"/>
      <point x="72" y="727"/>
      <point x="96" y="560"/>
      <point x="119" y="375" type="curve"/>
      <point x="141" y="194"/>
      <point x="184" y="23"/>
      <point x="46" y="23" type="curve"/>
      <point x="46" y="0"/>
      <point x="46" y="23"/>
      <point x="46" y="0" type="curve"/>
      <point x="207" y="0"/>
      <point x="167" y="182"/>
      <point x="144" y="379" type="curve"/>
      <point x="125" y="546"/>
      <point x="96" y="702"/>
      <point x="213" y="702" type="curve"/>
      <point x="245" y="702"/>
      <point x="265" y="684"/>
      <point x="283" y="662" type="curve"/>
      <point x="299" y="677"/>
      <point x="283" y="662"/>
    </contour>
  </outline>
</glyph>
<glyph name="currency" format="1">
  <advance width="517"/>
  <unicode hex="00A4"/>
  <outline>
    <contour>
      <point x="182" y="310" type="curve"/>
      <point x="182" y="387"/>
      <point x="194" y="457"/>
      <point x="259" y="457" type="curve"/>
      <point x="324" y="457"/>
      <point x="334" y="388"/>
      <point x="334" y="310" type="curve"/>
      <point x="334" y="229"/>
      <point x="328" y="157"/>
      <point x="260" y="157" type="curve"/>
      <point x="193" y="157"/>
      <point x="182" y="229"/>
      <point x="182" y="310" type="curve"/>
      <point x="157" y="310"/>
      <point x="182" y="310"/>
      <point x="157" y="310" type="curve"/>
      <point x="157" y="215"/>
      <point x="178" y="135"/>
      <point x="259" y="135" type="curve"/>
      <point x="342" y="135"/>
      <point x="360" y="218"/>
      <point x="360" y="311" type="curve"/>
      <point x="360" y="401"/>
      <point x="338" y="480"/>
      <point x="261" y="480" type="curve"/>
      <point x="180" y="480"/>
      <point x="157" y="402"/>
      <point x="157" y="310" type="curve"/>
      <point x="182" y="310"/>
      <point x="157" y="310"/>
    </contour>
    <contour>
      <point x="314" y="434" type="line"/>
      <point x="449" y="565" type="line"/>
      <point x="427" y="587" type="line"/>
      <point x="296" y="452" type="line"/>
    </contour>
    <contour>
      <point x="299" y="169" type="line"/>
      <point x="430" y="34" type="line"/>
      <point x="452" y="55" type="line"/>
      <point x="317" y="187" type="line"/>
    </contour>
    <contour>
      <point x="200" y="188" type="line"/>
      <point x="65" y="57" type="line"/>
      <point x="87" y="35" type="line"/>
      <point x="218" y="170" type="line"/>
    </contour>
    <contour>
      <point x="222" y="453" type="line"/>
      <point x="91" y="588" type="line"/>
      <point x="69" y="566" type="line"/>
      <point x="204" y="435" type="line"/>
    </contour>
  </outline>
</glyph>
<glyph name="brokenbar" format="1">
  <advance width="210"/>
  <unicode hex="00A6"/>
  <outline>
    <contour>
      <point x="117" y="-300" type="curve"/>
      <point x="117" y="-176"/>
      <point x="117" y="-52"/>
      <point x="117" y="72" type="curve"/>
      <point x="92" y="72"/>
      <point x="117" y="72"/>
      <point x="92" y="72" type="curve"/>
      <point x="92" y="-52"/>
      <point x="92" y="-176"/>
      <point x="92" y="-300" type="curve"/>
      <point x="117" y="-300"/>
      <point x="92" y="-300"/>
    </contour>
    <contour>
      <point x="117" y="428" type="curve"/>
      <point x="117" y="552"/>
      <point x="117" y="676"/>
      <point x="117" y="800" type="curve"/>
      <point x="92" y="800"/>
      <point x="117" y="800"/>
      <point x="92" y="800" type="curve"/>
      <point x="92" y="676"/>
      <point x="92" y="552"/>
      <point x="92" y="428" type="curve"/>
      <point x="117" y="428"/>
      <point x="92" y="428"/>
    </contour>
  </outline>
</glyph>
<glyph name="section" format="1">
  <advance width="352"/>
  <unicode hex="00A7"/>
  <outline>
    <contour>
      <point x="269" y="709" type="curve"/>
      <point x="240" y="736"/>
      <point x="217" y="752"/>
      <point x="179" y="752" type="curve"/>
      <point x="114" y="752"/>
      <point x="88" y="695"/>
      <point x="88" y="627" type="curve"/>
      <point x="88" y="563"/>
      <point x="110" y="515"/>
      <point x="165" y="484" type="curve"/>
      <point x="221" y="454"/>
      <point x="265" y="424"/>
      <point x="265" y="361" type="curve"/>
      <point x="265" y="297"/>
      <point x="249" y="247"/>
      <point x="192" y="229" type="curve"/>
      <point x="207" y="211"/>
      <point x="192" y="229"/>
      <point x="207" y="211" type="curve"/>
      <point x="272" y="235"/>
      <point x="290" y="291"/>
      <point x="290" y="361" type="curve"/>
      <point x="289" y="432"/>
      <point x="243" y="471"/>
      <point x="178" y="505" type="curve"/>
      <point x="131" y="531"/>
      <point x="113" y="573"/>
      <point x="113" y="627" type="curve"/>
      <point x="113" y="680"/>
      <point x="127" y="729"/>
      <point x="177" y="729" type="curve"/>
      <point x="211" y="729"/>
      <point x="231" y="713"/>
      <point x="255" y="692" type="curve"/>
      <point x="269" y="709"/>
      <point x="255" y="692"/>
    </contour>
    <contour>
      <point x="146" y="513" type="curve"/>
      <point x="87" y="484"/>
      <point x="68" y="433"/>
      <point x="68" y="367" type="curve"/>
      <point x="68" y="297"/>
      <point x="106" y="253"/>
      <point x="170" y="220" type="curve"/>
      <point x="218" y="193"/>
      <point x="247" y="157"/>
      <point x="247" y="100" type="curve"/>
      <point x="247" y="41"/>
      <point x="230" y="-7"/>
      <point x="179" y="-7" type="curve"/>
      <point x="139" y="-7"/>
      <point x="116" y="14"/>
      <point x="90" y="45" type="curve"/>
      <point x="73" y="28"/>
      <point x="90" y="45"/>
      <point x="73" y="28" type="curve"/>
      <point x="104" y="-8"/>
      <point x="133" y="-30"/>
      <point x="178" y="-30" type="curve"/>
      <point x="243" y="-30"/>
      <point x="273" y="27"/>
      <point x="273" y="100" type="curve"/>
      <point x="272" y="164"/>
      <point x="243" y="211"/>
      <point x="186" y="241" type="curve"/>
      <point x="132" y="271"/>
      <point x="93" y="305"/>
      <point x="93" y="367" type="curve"/>
      <point x="93" y="425"/>
      <point x="108" y="471"/>
      <point x="159" y="496" type="curve"/>
      <point x="146" y="513"/>
      <point x="159" y="496"/>
    </contour>
    <contour>
      <point x="96" y="28" type="curve"/>
      <point x="96" y="148"/>
      <point x="96" y="28"/>
      <point x="96" y="148" type="curve"/>
      <point x="73" y="148"/>
      <point x="96" y="148"/>
      <point x="73" y="148" type="curve"/>
      <point x="73" y="28"/>
      <point x="73" y="148"/>
      <point x="73" y="28" type="curve"/>
      <point x="96" y="28"/>
      <point x="73" y="28"/>
    </contour>
    <contour>
      <point x="269" y="589" type="curve"/>
      <point x="269" y="709"/>
      <point x="269" y="589"/>
      <point x="269" y="709" type="curve"/>
      <point x="246" y="709"/>
      <point x="269" y="709"/>
      <point x="246" y="709" type="curve"/>
      <point x="246" y="589"/>
      <point x="246" y="709"/>
      <point x="246" y="589" type="curve"/>
      <point x="269" y="589"/>
      <point x="246" y="589"/>
    </contour>
  </outline>
</glyph>
<glyph name="dieresis" format="1">
  <advance width="311"/>
  <unicode hex="00A8"/>
  <outline>
    <contour>
      <point x="107" y="656" type="move" name="_top"/>
    </contour>
    <contour>
      <point x="88" y="669" type="curve"/>
      <point x="88" y="681"/>
      <point x="81" y="687"/>
      <point x="69" y="687" type="curve"/>
      <point x="58" y="687"/>
      <point x="53" y="680"/>
      <point x="53" y="669" type="curve"/>
      <point x="92" y="669"/>
      <point x="49" y="669"/>
      <point x="88" y="669" type="curve"/>
      <point x="88" y="658"/>
      <point x="81" y="652"/>
      <point x="69" y="652" type="curve"/>
      <point x="58" y="652"/>
      <point x="53" y="658"/>
      <point x="53" y="669" type="curve"/>
      <point x="92" y="669"/>
      <point x="49" y="669"/>
    </contour>
    <contour>
      <point x="161" y="669" type="curve"/>
      <point x="161" y="681"/>
      <point x="155" y="687"/>
      <point x="143" y="687" type="curve"/>
      <point x="132" y="687"/>
      <point x="126" y="680"/>
      <point x="126" y="669" type="curve"/>
      <point x="165" y="669"/>
      <point x="122" y="669"/>
      <point x="161" y="669" type="curve"/>
      <point x="161" y="658"/>
      <point x="155" y="652"/>
      <point x="143" y="652" type="curve"/>
      <point x="132" y="652"/>
      <point x="126" y="658"/>
      <point x="126" y="669" type="curve"/>
      <point x="165" y="669"/>
      <point x="122" y="669"/>
    </contour>
  </outline>
</glyph>
<glyph name="copyright" format="1">
  <advance width="519"/>
  <unicode hex="00A9"/>
  <outline>
    <contour>
      <point x="91" y="319" type="curve"/>
      <point x="91" y="477"/>
      <point x="128" y="624"/>
      <point x="262" y="624" type="curve"/>
      <point x="394" y="624"/>
      <point x="430" y="476"/>
      <point x="430" y="318" type="curve"/>
      <point x="430" y="163"/>
      <point x="396" y="18"/>
      <point x="266" y="18" type="curve"/>
      <point x="134" y="18"/>
      <point x="91" y="161"/>
      <point x="91" y="319" type="curve"/>
      <point x="65" y="319"/>
      <point x="91" y="319"/>
      <point x="65" y="319" type="curve"/>
      <point x="65" y="150"/>
      <point x="118" y="-5"/>
      <point x="264" y="-5" type="curve"/>
      <point x="410" y="-5"/>
      <point x="455" y="150"/>
      <point x="455" y="319" type="curve"/>
      <point x="455" y="489"/>
      <point x="408" y="646"/>
      <point x="262" y="646" type="curve"/>
      <point x="115" y="646"/>
      <point x="65" y="490"/>
      <point x="65" y="319" type="curve"/>
      <point x="91" y="319"/>
      <point x="65" y="319"/>
    </contour>
    <contour>
      <point x="315" y="452" type="curve"/>
      <point x="315" y="429"/>
      <point x="315" y="405"/>
      <point x="315" y="381" type="curve"/>
      <point x="339" y="381"/>
      <point x="315" y="381"/>
      <point x="339" y="381" type="curve"/>
      <point x="339" y="409"/>
      <point x="339" y="436"/>
      <point x="339" y="464" type="curve"/>
      <point x="315" y="452"/>
      <point x="339" y="464"/>
    </contour>
    <contour>
      <point x="338" y="464" type="curve"/>
      <point x="317" y="486"/>
      <point x="297" y="496"/>
      <point x="266" y="496" type="curve"/>
      <point x="184" y="496"/>
      <point x="161" y="414"/>
      <point x="161" y="319" type="curve"/>
      <point x="161" y="225"/>
      <point x="179" y="146"/>
      <point x="257" y="146" type="curve"/>
      <point x="296" y="146"/>
      <point x="322" y="161"/>
      <point x="345" y="193" type="curve"/>
      <point x="328" y="207"/>
      <point x="345" y="193"/>
      <point x="328" y="207" type="curve"/>
      <point x="311" y="184"/>
      <point x="290" y="169"/>
      <point x="259" y="169" type="curve"/>
      <point x="194" y="169"/>
      <point x="187" y="241"/>
      <point x="187" y="320" type="curve"/>
      <point x="187" y="401"/>
      <point x="197" y="474"/>
      <point x="264" y="474" type="curve"/>
      <point x="288" y="474"/>
      <point x="301" y="466"/>
      <point x="315" y="452" type="curve"/>
      <point x="338" y="464"/>
      <point x="315" y="452"/>
    </contour>
  </outline>
</glyph>
<glyph name="ordfeminine" format="1">
  <advance width="342"/>
  <unicode hex="00AA"/>
  <outline>
    <contour>
      <point x="91" y="719" type="curve"/>
      <point x="91" y="699"/>
      <point x="91" y="688"/>
      <point x="91" y="669" type="curve"/>
      <point x="99" y="669"/>
      <point x="104" y="669"/>
      <point x="112" y="669" type="curve"/>
      <point x="112" y="688"/>
      <point x="112" y="699"/>
      <point x="112" y="719" type="curve"/>
      <point x="104" y="719"/>
      <point x="99" y="719"/>
    </contour>
    <contour>
      <point x="238" y="431" type="curve"/>
      <point x="238" y="523"/>
      <point x="238" y="589"/>
      <point x="238" y="682" type="curve"/>
      <point x="238" y="730"/>
      <point x="212" y="766"/>
      <point x="166" y="766" type="curve"/>
      <point x="131" y="766"/>
      <point x="114" y="748"/>
      <point x="91" y="719" type="curve"/>
      <point x="97" y="712"/>
      <point x="101" y="708"/>
      <point x="107" y="701" type="curve"/>
      <point x="121" y="721"/>
      <point x="133" y="744"/>
      <point x="163" y="744" type="curve"/>
      <point x="197" y="744"/>
      <point x="214" y="713"/>
      <point x="214" y="675" type="curve"/>
      <point x="214" y="584"/>
      <point x="214" y="522"/>
      <point x="214" y="431" type="curve"/>
      <point x="224" y="431"/>
      <point x="229" y="431"/>
    </contour>
    <contour>
      <point x="227" y="431" type="curve"/>
      <point x="242" y="431"/>
      <point x="250" y="431"/>
      <point x="265" y="431" type="curve"/>
      <point x="265" y="440"/>
      <point x="265" y="445"/>
      <point x="265" y="453" type="curve"/>
      <point x="250" y="453"/>
      <point x="243" y="453"/>
      <point x="227" y="453" type="curve"/>
      <point x="227" y="445"/>
      <point x="227" y="440"/>
    </contour>
    <contour>
      <point x="225" y="632" type="curve"/>
      <point x="200" y="626"/>
      <point x="183" y="623"/>
      <point x="157" y="617" type="curve"/>
      <point x="109" y="606"/>
      <point x="78" y="573"/>
      <point x="78" y="521" type="curve"/>
      <point x="78" y="470"/>
      <point x="103" y="431"/>
      <point x="153" y="431" type="curve"/>
      <point x="197" y="431"/>
      <point x="213" y="464"/>
      <point x="232" y="506" type="curve"/>
      <point x="228" y="511"/>
      <point x="224" y="514"/>
      <point x="220" y="518" type="curve"/>
      <point x="204" y="483"/>
      <point x="194" y="453"/>
      <point x="158" y="453" type="curve"/>
      <point x="120" y="453"/>
      <point x="102" y="484"/>
      <point x="102" y="523" type="curve"/>
      <point x="102" y="562"/>
      <point x="122" y="589"/>
      <point x="156" y="597" type="curve"/>
      <point x="182" y="603"/>
      <point x="201" y="607"/>
      <point x="226" y="613" type="curve"/>
      <point x="226" y="620"/>
      <point x="225" y="625"/>
    </contour>
  </outline>
</glyph>
<glyph name="guillemotleft" format="1">
  <advance width="472"/>
  <unicode hex="00AB"/>
  <outline>
    <contour>
      <point x="239" y="401" type="curve"/>
      <point x="239" y="401"/>
      <point x="74" y="289"/>
      <point x="74" y="289" type="curve"/>
      <point x="74" y="264"/>
      <point x="74" y="288"/>
      <point x="74" y="264" type="curve"/>
      <point x="74" y="264"/>
      <point x="239" y="375"/>
      <point x="239" y="376" type="curve"/>
      <point x="239" y="401"/>
      <point x="239" y="376"/>
    </contour>
    <contour>
      <point x="240" y="176" type="curve"/>
      <point x="240" y="177"/>
      <point x="74" y="288"/>
      <point x="74" y="289" type="curve"/>
      <point x="74" y="264"/>
      <point x="74" y="288"/>
      <point x="74" y="264" type="curve"/>
      <point x="74" y="263"/>
      <point x="240" y="153"/>
      <point x="240" y="152" type="curve"/>
      <point x="240" y="176"/>
      <point x="240" y="152"/>
    </contour>
    <contour>
      <point x="377" y="401" type="curve"/>
      <point x="376" y="401"/>
      <point x="211" y="289"/>
      <point x="211" y="289" type="curve"/>
      <point x="211" y="264"/>
      <point x="211" y="288"/>
      <point x="211" y="264" type="curve"/>
      <point x="211" y="264"/>
      <point x="376" y="375"/>
      <point x="377" y="376" type="curve"/>
      <point x="377" y="401"/>
      <point x="377" y="376"/>
    </contour>
    <contour>
      <point x="378" y="176" type="curve"/>
      <point x="377" y="177"/>
      <point x="211" y="288"/>
      <point x="211" y="289" type="curve"/>
      <point x="211" y="264"/>
      <point x="211" y="288"/>
      <point x="211" y="264" type="curve"/>
      <point x="211" y="263"/>
      <point x="377" y="153"/>
      <point x="378" y="152" type="curve"/>
      <point x="378" y="176"/>
      <point x="378" y="152"/>
    </contour>
  </outline>
</glyph>
<glyph name="logicalnot" format="1">
  <advance width="599"/>
  <unicode hex="00AC"/>
  <outline>
    <contour>
      <point x="109" y="297" type="curve"/>
      <point x="511" y="297" type="line"/>
      <point x="511" y="322"/>
      <point x="511" y="297"/>
      <point x="511" y="322" type="curve"/>
      <point x="109" y="322" type="line"/>
      <point x="109" y="297"/>
      <point x="109" y="322"/>
    </contour>
    <contour>
      <point x="511" y="153" type="curve"/>
      <point x="511" y="322" type="line"/>
      <point x="486" y="322"/>
      <point x="511" y="322"/>
      <point x="486" y="322" type="curve"/>
      <point x="486" y="153" type="line"/>
      <point x="511" y="153"/>
      <point x="486" y="153"/>
    </contour>
  </outline>
</glyph>
<glyph name="registered" format="1">
  <advance width="519"/>
  <unicode hex="00AE"/>
  <outline>
    <contour>
      <point x="90" y="319" type="curve"/>
      <point x="90" y="477"/>
      <point x="128" y="624"/>
      <point x="263" y="624" type="curve"/>
      <point x="395" y="624"/>
      <point x="431" y="476"/>
      <point x="431" y="318" type="curve"/>
      <point x="431" y="163"/>
      <point x="397" y="18"/>
      <point x="266" y="18" type="curve"/>
      <point x="134" y="18"/>
      <point x="90" y="161"/>
      <point x="90" y="319" type="curve"/>
      <point x="65" y="319"/>
      <point x="90" y="319"/>
      <point x="65" y="319" type="curve"/>
      <point x="65" y="150"/>
      <point x="118" y="-5"/>
      <point x="265" y="-5" type="curve"/>
      <point x="410" y="-5"/>
      <point x="455" y="150"/>
      <point x="455" y="319" type="curve"/>
      <point x="455" y="489"/>
      <point x="408" y="646"/>
      <point x="263" y="646" type="curve"/>
      <point x="115" y="646"/>
      <point x="65" y="490"/>
      <point x="65" y="319" type="curve"/>
      <point x="90" y="319"/>
      <point x="65" y="319"/>
    </contour>
    <contour>
      <point x="318" y="149" type="curve"/>
      <point x="334" y="149"/>
      <point x="350" y="149"/>
      <point x="366" y="149" type="curve"/>
      <point x="366" y="171"/>
      <point x="366" y="149"/>
      <point x="366" y="171" type="curve"/>
      <point x="356" y="171"/>
      <point x="346" y="171"/>
      <point x="336" y="171" type="curve"/>
      <point x="318" y="150"/>
      <point x="335" y="171"/>
    </contour>
    <contour>
      <point x="230" y="491" type="curve"/>
      <point x="208" y="491"/>
      <point x="188" y="491"/>
      <point x="166" y="491" type="curve"/>
      <point x="166" y="469"/>
      <point x="166" y="491"/>
      <point x="166" y="469" type="curve"/>
      <point x="179" y="469"/>
      <point x="191" y="469"/>
      <point x="203" y="469" type="curve"/>
      <point x="230" y="491"/>
      <point x="203" y="469"/>
    </contour>
    <contour>
      <point x="230" y="171" type="curve"/>
      <point x="208" y="171"/>
      <point x="188" y="171"/>
      <point x="166" y="171" type="curve"/>
      <point x="166" y="149"/>
      <point x="166" y="171"/>
      <point x="166" y="149" type="curve"/>
      <point x="179" y="149"/>
      <point x="191" y="149"/>
      <point x="203" y="149" type="curve"/>
      <point x="230" y="171"/>
      <point x="203" y="149"/>
    </contour>
    <contour>
      <point x="203" y="149" type="curve"/>
      <point x="223" y="149"/>
      <point x="240" y="149"/>
      <point x="260" y="149" type="curve"/>
      <point x="260" y="171"/>
      <point x="260" y="149"/>
      <point x="260" y="171" type="curve"/>
      <point x="249" y="171"/>
      <point x="240" y="171"/>
      <point x="230" y="171" type="curve"/>
      <point x="203" y="149"/>
      <point x="230" y="171"/>
    </contour>
    <contour>
      <point x="261" y="309" type="curve"/>
      <point x="279" y="256"/>
      <point x="299" y="201"/>
      <point x="318" y="149" type="curve"/>
      <point x="336" y="170"/>
      <point x="318" y="149"/>
      <point x="336" y="171" type="curve"/>
      <point x="287" y="310" type="line"/>
      <point x="261" y="309"/>
      <point x="287" y="310"/>
    </contour>
    <contour>
      <point x="230" y="171" type="curve"/>
      <point x="230" y="277"/>
      <point x="230" y="384"/>
      <point x="230" y="491" type="curve"/>
      <point x="203" y="469"/>
      <point x="230" y="491"/>
      <point x="203" y="469" type="curve"/>
      <point x="203" y="362"/>
      <point x="203" y="255"/>
      <point x="203" y="149" type="curve"/>
      <point x="230" y="171"/>
      <point x="203" y="149"/>
    </contour>
    <contour>
      <point x="218" y="295" type="curve"/>
      <point x="230" y="295"/>
      <point x="243" y="295"/>
      <point x="255" y="295" type="curve"/>
      <point x="307" y="295"/>
      <point x="330" y="334"/>
      <point x="330" y="392" type="curve"/>
      <point x="330" y="447"/>
      <point x="309" y="491"/>
      <point x="261" y="491" type="curve"/>
      <point x="251" y="491"/>
      <point x="240" y="491"/>
      <point x="230" y="491" type="curve"/>
      <point x="203" y="469"/>
      <point x="230" y="491"/>
      <point x="203" y="469" type="curve"/>
      <point x="221" y="469"/>
      <point x="239" y="469"/>
      <point x="257" y="469" type="curve"/>
      <point x="292" y="469"/>
      <point x="305" y="433"/>
      <point x="305" y="390" type="curve"/>
      <point x="305" y="348"/>
      <point x="292" y="317"/>
      <point x="259" y="317" type="curve"/>
      <point x="245" y="317"/>
      <point x="231" y="317"/>
      <point x="218" y="317" type="curve"/>
      <point x="218" y="295"/>
      <point x="218" y="317"/>
    </contour>
  </outline>
</glyph>
<glyph name="macron" format="1">
  <advance width="262"/>
  <unicode hex="00AF"/>
  <outline>
    <contour>
      <point x="90" y="658" type="move" name="_top"/>
    </contour>
    <contour>
      <point x="157" y="680" type="curve"/>
      <point x="112" y="680"/>
      <point x="67" y="680"/>
      <point x="22" y="680" type="curve"/>
      <point x="22" y="658"/>
      <point x="22" y="680"/>
      <point x="22" y="658" type="curve"/>
      <point x="67" y="658"/>
      <point x="112" y="658"/>
      <point x="157" y="658" type="curve"/>
      <point x="157" y="680"/>
      <point x="157" y="658"/>
    </contour>
  </outline>
</glyph>
<glyph name="degree" format="1">
  <advance width="350"/>
  <unicode hex="00B0"/>
  <outline>
    <contour>
      <point x="279" y="433" type="curve"/>
      <point x="279" y="542"/>
      <point x="267" y="640"/>
      <point x="175" y="640" type="curve"/>
      <point x="83" y="640"/>
      <point x="72" y="544"/>
      <point x="72" y="435" type="curve"/>
      <point x="95" y="435"/>
      <point x="73" y="435"/>
      <point x="96" y="435" type="curve"/>
      <point x="96" y="529"/>
      <point x="94" y="618"/>
      <point x="172" y="618" type="curve"/>
      <point x="252" y="618"/>
      <point x="255" y="529"/>
      <point x="255" y="433" type="curve"/>
      <point x="255" y="333"/>
      <point x="257" y="241"/>
      <point x="175" y="241" type="curve"/>
      <point x="93" y="241"/>
      <point x="96" y="335"/>
      <point x="96" y="435" type="curve"/>
      <point x="73" y="435"/>
      <point x="95" y="435"/>
      <point x="72" y="435" type="curve"/>
      <point x="72" y="320"/>
      <point x="79" y="220"/>
      <point x="174" y="220" type="curve"/>
      <point x="269" y="220"/>
      <point x="279" y="319"/>
    </contour>
  </outline>
</glyph>
<glyph name="plusminus" format="1">
  <advance width="606"/>
  <unicode hex="00B1"/>
  <outline>
    <contour>
      <point x="72" y="17" type="line"/>
      <point x="533" y="17" type="line"/>
      <point x="533" y="42" type="line"/>
      <point x="72" y="42" type="line"/>
    </contour>
    <contour>
      <point x="72" y="297" type="curve"/>
      <point x="533" y="297" type="line"/>
      <point x="533" y="322"/>
      <point x="533" y="297"/>
      <point x="533" y="322" type="curve"/>
      <point x="72" y="322" type="line"/>
      <point x="72" y="297"/>
      <point x="72" y="322"/>
    </contour>
    <contour>
      <point x="317" y="18" type="curve"/>
      <point x="317" y="588" type="line"/>
      <point x="291" y="588"/>
      <point x="317" y="588"/>
      <point x="291" y="588" type="curve"/>
      <point x="291" y="18" type="line"/>
      <point x="317" y="18"/>
      <point x="291" y="18"/>
    </contour>
  </outline>
</glyph>
<glyph name="twosuperior" format="1">
  <advance width="364"/>
  <unicode hex="00B2"/>
  <outline>
    <contour>
      <point x="196" y="694" type="move" name="_top"/>
    </contour>
    <contour>
      <point x="170" y="276" type="move" name="_bottom"/>
    </contour>
    <contour>
      <point x="277" y="277" type="curve"/>
      <point x="277" y="316"/>
      <point x="277" y="318"/>
      <point x="277" y="356" type="curve"/>
      <point x="254" y="356"/>
      <point x="277" y="356"/>
      <point x="254" y="356" type="curve"/>
      <point x="254" y="326"/>
      <point x="254" y="331"/>
      <point x="254" y="300" type="curve"/>
      <point x="277" y="277"/>
      <point x="254" y="300"/>
    </contour>
    <contour>
      <point x="79" y="277" type="curve"/>
      <point x="145" y="277"/>
      <point x="210" y="277"/>
      <point x="277" y="277" type="curve"/>
      <point x="254" y="300"/>
      <point x="277" y="277"/>
      <point x="254" y="300" type="curve"/>
      <point x="196" y="300"/>
      <point x="138" y="300"/>
      <point x="79" y="300" type="curve"/>
      <point x="79" y="277"/>
      <point x="79" y="300"/>
    </contour>
    <contour>
      <point x="119" y="595" type="curve"/>
      <point x="131" y="635"/>
      <point x="143" y="670"/>
      <point x="183" y="670" type="curve"/>
      <point x="228" y="670"/>
      <point x="242" y="625"/>
      <point x="242" y="572" type="curve"/>
      <point x="242" y="525"/>
      <point x="224" y="493"/>
      <point x="196" y="453" type="curve"/>
      <point x="158" y="402"/>
      <point x="118" y="351"/>
      <point x="79" y="300" type="curve"/>
      <point x="91" y="277"/>
      <point x="79" y="300"/>
      <point x="91" y="277" type="curve"/>
      <point x="131" y="330"/>
      <point x="172" y="382"/>
      <point x="212" y="435" type="curve"/>
      <point x="244" y="481"/>
      <point x="266" y="517"/>
      <point x="266" y="573" type="curve"/>
      <point x="266" y="640"/>
      <point x="241" y="693"/>
      <point x="184" y="693" type="curve"/>
      <point x="136" y="693"/>
      <point x="113" y="658"/>
      <point x="99" y="604" type="curve"/>
      <point x="119" y="595"/>
      <point x="99" y="604"/>
    </contour>
  </outline>
</glyph>
<glyph name="threesuperior" format="1">
  <advance width="332"/>
  <unicode hex="00B3"/>
  <outline>
    <contour>
      <point x="186" y="694" type="move" name="_top"/>
    </contour>
    <contour>
      <point x="167" y="274" type="move" name="_bottom"/>
    </contour>
    <contour>
      <point x="105" y="628" type="curve"/>
      <point x="116" y="649"/>
      <point x="132" y="671"/>
      <point x="158" y="671" type="curve"/>
      <point x="201" y="671"/>
      <point x="219" y="633"/>
      <point x="219" y="585" type="curve"/>
      <point x="219" y="539"/>
      <point x="183" y="502"/>
      <point x="133" y="497" type="curve"/>
      <point x="133" y="477"/>
      <point x="133" y="497"/>
      <point x="133" y="477" type="curve"/>
      <point x="198" y="481"/>
      <point x="244" y="524"/>
      <point x="244" y="587" type="curve"/>
      <point x="244" y="648"/>
      <point x="217" y="694"/>
      <point x="161" y="694" type="curve"/>
      <point x="128" y="694"/>
      <point x="102" y="669"/>
      <point x="88" y="640" type="curve"/>
      <point x="105" y="628"/>
      <point x="88" y="640"/>
    </contour>
    <contour>
      <point x="84" y="306" type="curve"/>
      <point x="104" y="286"/>
      <point x="126" y="273"/>
      <point x="154" y="273" type="curve"/>
      <point x="217" y="269"/>
      <point x="254" y="318"/>
      <point x="253" y="386" type="curve"/>
      <point x="253" y="451"/>
      <point x="202" y="487"/>
      <point x="133" y="490" type="curve"/>
      <point x="133" y="473"/>
      <point x="133" y="490"/>
      <point x="133" y="473" type="curve"/>
      <point x="191" y="468"/>
      <point x="229" y="432"/>
      <point x="229" y="385" type="curve"/>
      <point x="228" y="335"/>
      <point x="204" y="294"/>
      <point x="157" y="296" type="curve"/>
      <point x="133" y="296"/>
      <point x="114" y="307"/>
      <point x="96" y="324" type="curve"/>
      <point x="84" y="306"/>
      <point x="96" y="324"/>
    </contour>
  </outline>
</glyph>
<glyph name="acute" format="1">
  <advance width="150"/>
  <unicode hex="00B4"/>
  <outline>
    <contour>
      <point x="19" y="590" type="move" name="_top"/>
    </contour>
    <contour>
      <point x="30" y="590" type="line"/>
      <point x="84" y="756" type="line"/>
      <point x="54" y="756" type="line"/>
      <point x="5" y="590" type="line"/>
    </contour>
  </outline>
</glyph>
<glyph name="paragraph" format="1">
  <advance width="488"/>
  <unicode hex="00B6"/>
  <outline>
    <contour>
      <point x="276" y="699" type="curve"/>
      <point x="398" y="699"/>
      <point x="276" y="699"/>
      <point x="398" y="699" type="curve"/>
      <point x="398" y="722"/>
      <point x="398" y="699"/>
      <point x="398" y="722" type="curve"/>
      <point x="358" y="722"/>
      <point x="317" y="722"/>
      <point x="276" y="722" type="curve"/>
      <point x="276" y="699"/>
      <point x="276" y="722"/>
    </contour>
    <contour>
      <point x="276" y="0" type="curve"/>
      <point x="317" y="0"/>
      <point x="358" y="0"/>
      <point x="398" y="0" type="curve"/>
      <point x="398" y="23"/>
      <point x="398" y="0"/>
      <point x="398" y="23" type="curve"/>
      <point x="276" y="23"/>
      <point x="398" y="23"/>
      <point x="276" y="23" type="curve"/>
      <point x="276" y="0"/>
      <point x="276" y="23"/>
    </contour>
    <contour>
      <point x="276" y="23" type="curve"/>
      <point x="188" y="23"/>
      <point x="276" y="23"/>
      <point x="188" y="23" type="curve"/>
      <point x="188" y="0"/>
      <point x="188" y="23"/>
      <point x="188" y="0" type="curve"/>
      <point x="276" y="0"/>
      <point x="247" y="0"/>
      <point x="276" y="0" type="curve"/>
      <point x="276" y="23"/>
      <point x="276" y="0"/>
    </contour>
    <contour>
      <point x="271" y="346" type="curve"/>
      <point x="243" y="320"/>
      <point x="220" y="304"/>
      <point x="183" y="304" type="curve"/>
      <point x="98" y="304"/>
      <point x="71" y="392"/>
      <point x="71" y="493" type="curve"/>
      <point x="71" y="602"/>
      <point x="104" y="699"/>
      <point x="200" y="699" type="curve"/>
      <point x="225" y="699"/>
      <point x="250" y="699"/>
      <point x="275" y="699" type="curve"/>
      <point x="275" y="722"/>
      <point x="275" y="699"/>
      <point x="275" y="722" type="curve"/>
      <point x="249" y="722"/>
      <point x="223" y="722"/>
      <point x="197" y="722" type="curve"/>
      <point x="88" y="722"/>
      <point x="46" y="616"/>
      <point x="46" y="494" type="curve"/>
      <point x="46" y="372"/>
      <point x="83" y="282"/>
      <point x="183" y="280" type="curve"/>
      <point x="222" y="280"/>
      <point x="253" y="300"/>
      <point x="279" y="325" type="curve"/>
      <point x="271" y="345"/>
      <point x="279" y="326"/>
    </contour>
    <contour>
      <point x="289" y="0" type="curve"/>
      <point x="289" y="241"/>
      <point x="289" y="481"/>
      <point x="289" y="722" type="curve"/>
      <point x="264" y="722"/>
      <point x="289" y="722"/>
      <point x="264" y="722" type="curve"/>
      <point x="264" y="481"/>
      <point x="264" y="241"/>
      <point x="264" y="0" type="curve"/>
      <point x="289" y="0"/>
      <point x="264" y="0"/>
    </contour>
    <contour>
      <point x="406" y="0" type="curve"/>
      <point x="406" y="241"/>
      <point x="406" y="481"/>
      <point x="406" y="722" type="curve"/>
      <point x="381" y="722"/>
      <point x="406" y="722"/>
      <point x="381" y="722" type="curve"/>
      <point x="381" y="481"/>
      <point x="381" y="241"/>
      <point x="381" y="0" type="curve"/>
      <point x="406" y="0"/>
      <point x="381" y="0"/>
    </contour>
  </outline>
</glyph>
<glyph name="periodcentered" format="1">
  <advance width="205"/>
  <unicode hex="00B7"/>
  <outline>
    <contour>
      <point x="121" y="440" type="curve"/>
      <point x="121" y="451"/>
      <point x="113" y="458"/>
      <point x="102" y="458" type="curve"/>
      <point x="91" y="458"/>
      <point x="85" y="450"/>
      <point x="85" y="440" type="curve"/>
      <point x="125" y="440"/>
      <point x="82" y="440"/>
      <point x="121" y="440" type="curve"/>
      <point x="121" y="429"/>
      <point x="113" y="422"/>
      <point x="102" y="422" type="curve"/>
      <point x="91" y="422"/>
      <point x="85" y="429"/>
      <point x="85" y="440" type="curve"/>
      <point x="125" y="440"/>
      <point x="82" y="440"/>
    </contour>
  </outline>
</glyph>
<glyph name="cedilla" format="1">
  <advance width="271"/>
  <unicode hex="00B8"/>
  <outline>
    <contour>
      <point x="114" y="3" type="move" name="_bottom"/>
    </contour>
    <contour>
      <point x="94" y="18" type="curve"/>
      <point x="84" y="-8"/>
      <point x="76" y="-36"/>
      <point x="67" y="-62" type="curve"/>
      <point x="86" y="-81"/>
      <point x="67" y="-62"/>
      <point x="86" y="-81" type="curve"/>
      <point x="94" y="-53"/>
      <point x="105" y="-24"/>
      <point x="113" y="3" type="curve"/>
      <point x="94" y="18"/>
      <point x="113" y="3"/>
    </contour>
    <contour>
      <point x="86" y="-81" type="curve"/>
      <point x="93" y="-72"/>
      <point x="98" y="-68"/>
      <point x="109" y="-68" type="curve"/>
      <point x="133" y="-68"/>
      <point x="135" y="-95"/>
      <point x="135" y="-124" type="curve"/>
      <point x="135" y="-154"/>
      <point x="126" y="-179"/>
      <point x="102" y="-179" type="curve"/>
      <point x="85" y="-179"/>
      <point x="73" y="-175"/>
      <point x="62" y="-162" type="curve"/>
      <point x="51" y="-180"/>
      <point x="62" y="-162"/>
      <point x="51" y="-180" type="curve"/>
      <point x="65" y="-195"/>
      <point x="79" y="-202"/>
      <point x="100" y="-202" type="curve"/>
      <point x="141" y="-202"/>
      <point x="161" y="-168"/>
      <point x="161" y="-124" type="curve"/>
      <point x="161" y="-81"/>
      <point x="148" y="-45"/>
      <point x="110" y="-45" type="curve"/>
      <point x="93" y="-45"/>
      <point x="81" y="-51"/>
      <point x="67" y="-62" type="curve"/>
      <point x="86" y="-81"/>
      <point x="67" y="-62"/>
    </contour>
  </outline>
</glyph>
<glyph name="onesuperior" format="1">
  <advance width="292"/>
  <unicode hex="00B9"/>
  <outline>
    <contour>
      <point x="175" y="681" type="move" name="_top"/>
    </contour>
    <contour>
      <point x="177" y="283" type="move" name="_bottom"/>
    </contour>
    <contour>
      <point x="162" y="277" type="curve"/>
      <point x="194" y="277"/>
      <point x="192" y="277"/>
      <point x="223" y="277" type="curve"/>
      <point x="223" y="300"/>
      <point x="223" y="277"/>
      <point x="223" y="300" type="curve"/>
      <point x="201" y="300"/>
      <point x="210" y="300"/>
      <point x="186" y="300" type="curve"/>
      <point x="162" y="277"/>
      <point x="186" y="300"/>
    </contour>
    <contour>
      <point x="186" y="300" type="curve"/>
      <point x="155" y="300"/>
      <point x="156" y="300"/>
      <point x="123" y="300" type="curve"/>
      <point x="123" y="277"/>
      <point x="123" y="300"/>
      <point x="123" y="277" type="curve"/>
      <point x="147" y="277"/>
      <point x="138" y="277"/>
      <point x="162" y="277" type="curve"/>
      <point x="186" y="300"/>
      <point x="162" y="277"/>
    </contour>
    <contour>
      <point x="99" y="555" type="line"/>
      <point x="184" y="675" type="line"/>
      <point x="162" y="684" type="line"/>
      <point x="79" y="570" type="line"/>
    </contour>
    <contour>
      <point x="186" y="300" type="curve"/>
      <point x="186" y="684" type="line"/>
      <point x="162" y="684" type="line"/>
      <point x="162" y="277" type="line"/>
      <point x="186" y="300"/>
      <point x="162" y="277"/>
    </contour>
  </outline>
</glyph>
<glyph name="ordmasculine" format="1">
  <advance width="327"/>
  <unicode hex="00BA"/>
  <outline>
    <contour>
      <point x="101" y="607" type="curve"/>
      <point x="101" y="681"/>
      <point x="108" y="742"/>
      <point x="166" y="742" type="curve"/>
      <point x="221" y="742"/>
      <point x="225" y="679"/>
      <point x="225" y="605" type="curve"/>
      <point x="225" y="521"/>
      <point x="220" y="448"/>
      <point x="169" y="448" type="curve"/>
      <point x="104" y="448"/>
      <point x="101" y="523"/>
      <point x="101" y="607" type="curve"/>
      <point x="76" y="607"/>
      <point x="103" y="607"/>
      <point x="77" y="607" type="curve"/>
      <point x="77" y="509"/>
      <point x="88" y="426"/>
      <point x="168" y="426" type="curve"/>
      <point x="239" y="426"/>
      <point x="250" y="508"/>
      <point x="250" y="605" type="curve"/>
      <point x="250" y="692"/>
      <point x="239" y="764"/>
      <point x="167" y="764" type="curve"/>
      <point x="89" y="764"/>
      <point x="77" y="692"/>
      <point x="77" y="607" type="curve"/>
      <point x="103" y="607"/>
      <point x="76" y="607"/>
    </contour>
  </outline>
</glyph>
<glyph name="guillemotright" format="1">
  <advance width="472"/>
  <unicode hex="00BB"/>
  <outline>
    <contour>
      <point x="232" y="401" type="curve"/>
      <point x="232" y="401"/>
      <point x="397" y="289"/>
      <point x="398" y="289" type="curve"/>
      <point x="398" y="264"/>
      <point x="398" y="288"/>
      <point x="398" y="264" type="curve"/>
      <point x="397" y="264"/>
      <point x="232" y="375"/>
      <point x="232" y="376" type="curve"/>
      <point x="232" y="401"/>
      <point x="232" y="376"/>
    </contour>
    <contour>
      <point x="231" y="176" type="curve"/>
      <point x="231" y="177"/>
      <point x="397" y="288"/>
      <point x="398" y="289" type="curve"/>
      <point x="398" y="264"/>
      <point x="398" y="288"/>
      <point x="398" y="264" type="curve"/>
      <point x="397" y="263"/>
      <point x="231" y="153"/>
      <point x="231" y="152" type="curve"/>
      <point x="231" y="176"/>
      <point x="231" y="152"/>
    </contour>
    <contour>
      <point x="95" y="401" type="curve"/>
      <point x="95" y="401"/>
      <point x="260" y="289"/>
      <point x="260" y="289" type="curve"/>
      <point x="260" y="264"/>
      <point x="260" y="288"/>
      <point x="260" y="264" type="curve"/>
      <point x="260" y="264"/>
      <point x="95" y="375"/>
      <point x="95" y="376" type="curve"/>
      <point x="95" y="401"/>
      <point x="95" y="376"/>
    </contour>
    <contour>
      <point x="94" y="176" type="curve"/>
      <point x="94" y="177"/>
      <point x="260" y="288"/>
      <point x="260" y="289" type="curve"/>
      <point x="260" y="264"/>
      <point x="260" y="288"/>
      <point x="260" y="264" type="curve"/>
      <point x="260" y="263"/>
      <point x="94" y="153"/>
      <point x="94" y="152" type="curve"/>
      <point x="94" y="176"/>
      <point x="94" y="152"/>
    </contour>
  </outline>
</glyph>
<glyph name="onequarter" format="1">
  <advance width="572"/>
  <unicode hex="00BC"/>
  <outline>
    <contour>
      <point x="167" y="-92" type="line"/>
      <point x="425" y="757" type="line"/>
      <point x="396" y="757" type="line"/>
      <point x="139" y="-92" type="line"/>
    </contour>
    <contour>
      <point x="128" y="357" type="curve"/>
      <point x="159" y="357"/>
      <point x="158" y="357"/>
      <point x="189" y="357" type="curve"/>
      <point x="189" y="380"/>
      <point x="189" y="357"/>
      <point x="189" y="380" type="curve"/>
      <point x="166" y="380"/>
      <point x="176" y="380"/>
      <point x="153" y="380" type="curve"/>
      <point x="128" y="357"/>
      <point x="153" y="380"/>
    </contour>
    <contour>
      <point x="153" y="380" type="curve"/>
      <point x="122" y="380"/>
      <point x="122" y="380"/>
      <point x="89" y="380" type="curve"/>
      <point x="89" y="357"/>
      <point x="89" y="380"/>
      <point x="89" y="357" type="curve"/>
      <point x="114" y="357"/>
      <point x="103" y="357"/>
      <point x="127" y="357" type="curve"/>
      <point x="153" y="380"/>
      <point x="127" y="357"/>
    </contour>
    <contour>
      <point x="64" y="634" type="line"/>
      <point x="150" y="755" type="line"/>
      <point x="127" y="762" type="line"/>
      <point x="45" y="650" type="line"/>
    </contour>
    <contour>
      <point x="153" y="380" type="curve"/>
      <point x="153" y="762" type="line"/>
      <point x="127" y="762" type="line"/>
      <point x="127" y="357" type="line"/>
      <point x="153" y="380"/>
      <point x="127" y="357"/>
    </contour>
    <contour>
      <point x="548" y="48" type="line"/>
      <point x="297" y="48" type="line"/>
      <point x="297" y="27" type="line"/>
      <point x="548" y="27" type="line"/>
    </contour>
    <contour>
      <point x="311" y="28" type="line"/>
      <point x="467" y="333" type="line"/>
      <point x="444" y="343" type="line"/>
      <point x="297" y="48" type="line"/>
    </contour>
    <contour>
      <point x="468" y="-89" type="line"/>
      <point x="468" y="343" type="line"/>
      <point x="444" y="343" type="line"/>
      <point x="444" y="-89" type="line"/>
    </contour>
    <contour>
      <point x="455" y="-69" type="line"/>
      <point x="385" y="-69" type="line"/>
      <point x="385" y="-90" type="line"/>
      <point x="455" y="-90" type="line"/>
    </contour>
    <contour>
      <point x="455" y="-90" type="line"/>
      <point x="529" y="-90" type="line"/>
      <point x="529" y="-69" type="line"/>
      <point x="455" y="-69" type="line"/>
    </contour>
  </outline>
</glyph>
<glyph name="onehalf" format="1">
  <advance width="594"/>
  <unicode hex="00BD"/>
  <outline>
    <contour>
      <point x="178" y="-92" type="line"/>
      <point x="436" y="757" type="line"/>
      <point x="407" y="757" type="line"/>
      <point x="150" y="-92" type="line"/>
    </contour>
    <contour>
      <point x="125" y="357" type="curve"/>
      <point x="156" y="357"/>
      <point x="155" y="357"/>
      <point x="186" y="357" type="curve"/>
      <point x="186" y="380"/>
      <point x="186" y="357"/>
      <point x="186" y="380" type="curve"/>
      <point x="163" y="380"/>
      <point x="173" y="380"/>
      <point x="150" y="380" type="curve"/>
      <point x="125" y="357"/>
      <point x="150" y="380"/>
    </contour>
    <contour>
      <point x="150" y="380" type="curve"/>
      <point x="119" y="380"/>
      <point x="119" y="380"/>
      <point x="86" y="380" type="curve"/>
      <point x="86" y="357"/>
      <point x="86" y="380"/>
      <point x="86" y="357" type="curve"/>
      <point x="111" y="357"/>
      <point x="100" y="357"/>
      <point x="124" y="357" type="curve"/>
      <point x="150" y="380"/>
      <point x="124" y="357"/>
    </contour>
    <contour>
      <point x="61" y="634" type="line"/>
      <point x="147" y="755" type="line"/>
      <point x="124" y="762" type="line"/>
      <point x="42" y="650" type="line"/>
    </contour>
    <contour>
      <point x="150" y="380" type="curve"/>
      <point x="150" y="762" type="line"/>
      <point x="124" y="762" type="line"/>
      <point x="124" y="357" type="line"/>
      <point x="150" y="380"/>
      <point x="124" y="357"/>
    </contour>
    <contour>
      <point x="551" y="-90" type="curve"/>
      <point x="551" y="-53"/>
      <point x="551" y="-51"/>
      <point x="551" y="-12" type="curve"/>
      <point x="529" y="-12"/>
      <point x="552" y="-12"/>
      <point x="529" y="-12" type="curve"/>
      <point x="529" y="-43"/>
      <point x="529" y="-37"/>
      <point x="529" y="-68" type="curve"/>
      <point x="552" y="-90"/>
      <point x="529" y="-68"/>
    </contour>
    <contour>
      <point x="354" y="-90" type="curve"/>
      <point x="420" y="-90"/>
      <point x="485" y="-90"/>
      <point x="551" y="-90" type="curve"/>
      <point x="529" y="-68"/>
      <point x="552" y="-90"/>
      <point x="529" y="-68" type="curve"/>
      <point x="471" y="-68"/>
      <point x="413" y="-68"/>
      <point x="354" y="-68" type="curve"/>
      <point x="354" y="-90"/>
      <point x="354" y="-68"/>
    </contour>
    <contour>
      <point x="394" y="227" type="curve"/>
      <point x="406" y="266"/>
      <point x="418" y="302"/>
      <point x="458" y="302" type="curve"/>
      <point x="503" y="302"/>
      <point x="517" y="256"/>
      <point x="517" y="205" type="curve"/>
      <point x="517" y="157"/>
      <point x="499" y="125"/>
      <point x="471" y="85" type="curve"/>
      <point x="433" y="34"/>
      <point x="393" y="-17"/>
      <point x="354" y="-68" type="curve"/>
      <point x="365" y="-90"/>
      <point x="354" y="-68"/>
      <point x="365" y="-90" type="curve"/>
      <point x="406" y="-37"/>
      <point x="447" y="15"/>
      <point x="487" y="67" type="curve"/>
      <point x="519" y="114"/>
      <point x="540" y="150"/>
      <point x="540" y="206" type="curve"/>
      <point x="540" y="272"/>
      <point x="516" y="325"/>
      <point x="459" y="325" type="curve"/>
      <point x="411" y="325"/>
      <point x="388" y="289"/>
      <point x="374" y="236" type="curve"/>
      <point x="394" y="227"/>
      <point x="374" y="236"/>
    </contour>
  </outline>
</glyph>
<glyph name="threequarters" format="1">
  <advance width="594"/>
  <unicode hex="00BE"/>
  <outline>
    <contour>
      <point x="190" y="-92" type="line"/>
      <point x="448" y="757" type="line"/>
      <point x="419" y="757" type="line"/>
      <point x="162" y="-92" type="line"/>
    </contour>
    <contour>
      <point x="69" y="694" type="curve"/>
      <point x="81" y="715"/>
      <point x="97" y="738"/>
      <point x="122" y="738" type="curve"/>
      <point x="165" y="738"/>
      <point x="184" y="700"/>
      <point x="184" y="652" type="curve"/>
      <point x="184" y="606"/>
      <point x="147" y="569"/>
      <point x="97" y="564" type="curve"/>
      <point x="97" y="544"/>
      <point x="97" y="564"/>
      <point x="97" y="544" type="curve"/>
      <point x="163" y="547"/>
      <point x="209" y="590"/>
      <point x="209" y="654" type="curve"/>
      <point x="209" y="714"/>
      <point x="182" y="759"/>
      <point x="125" y="759" type="curve"/>
      <point x="93" y="759"/>
      <point x="66" y="734"/>
      <point x="52" y="706" type="curve"/>
      <point x="69" y="694"/>
      <point x="52" y="706"/>
    </contour>
    <contour>
      <point x="49" y="373" type="curve"/>
      <point x="68" y="352"/>
      <point x="91" y="340"/>
      <point x="118" y="340" type="curve"/>
      <point x="182" y="336"/>
      <point x="219" y="385"/>
      <point x="218" y="453" type="curve"/>
      <point x="218" y="518"/>
      <point x="166" y="554"/>
      <point x="97" y="557" type="curve"/>
      <point x="97" y="540"/>
      <point x="97" y="557"/>
      <point x="97" y="540" type="curve"/>
      <point x="155" y="535"/>
      <point x="193" y="499"/>
      <point x="193" y="451" type="curve"/>
      <point x="192" y="401"/>
      <point x="169" y="360"/>
      <point x="121" y="362" type="curve"/>
      <point x="98" y="362"/>
      <point x="78" y="374"/>
      <point x="61" y="390" type="curve"/>
      <point x="49" y="373"/>
      <point x="61" y="390"/>
    </contour>
    <contour>
      <point x="572" y="48" type="line"/>
      <point x="320" y="48" type="line"/>
      <point x="320" y="27" type="line"/>
      <point x="572" y="27" type="line"/>
    </contour>
    <contour>
      <point x="335" y="28" type="line"/>
      <point x="491" y="333" type="line"/>
      <point x="467" y="343" type="line"/>
      <point x="320" y="48" type="line"/>
    </contour>
    <contour>
      <point x="491" y="-89" type="line"/>
      <point x="491" y="343" type="line"/>
      <point x="467" y="343" type="line"/>
      <point x="467" y="-89" type="line"/>
    </contour>
    <contour>
      <point x="479" y="-69" type="line"/>
      <point x="408" y="-69" type="line"/>
      <point x="408" y="-90" type="line"/>
      <point x="479" y="-90" type="line"/>
    </contour>
    <contour>
      <point x="479" y="-90" type="line"/>
      <point x="553" y="-90" type="line"/>
      <point x="553" y="-69" type="line"/>
      <point x="479" y="-69" type="line"/>
    </contour>
  </outline>
</glyph>
<glyph name="questiondown" format="1">
  <advance width="370"/>
  <unicode hex="00BF"/>
  <outline>
    <contour>
      <point x="208" y="374" type="curve"/>
      <point x="208" y="411"/>
      <point x="208" y="450"/>
      <point x="208" y="487" type="curve"/>
      <point x="183" y="487"/>
      <point x="208" y="487"/>
      <point x="183" y="487" type="curve"/>
      <point x="183" y="450"/>
      <point x="183" y="411"/>
      <point x="183" y="374" type="curve"/>
      <point x="208" y="374"/>
      <point x="183" y="374"/>
    </contour>
    <contour>
      <point x="288" y="89" type="line"/>
      <point x="272" y="53"/>
      <point x="246" y="22"/>
      <point x="198" y="22" type="curve"/>
      <point x="117" y="22"/>
      <point x="91" y="101"/>
      <point x="91" y="189" type="curve"/>
      <point x="91" y="286"/>
      <point x="118" y="374"/>
      <point x="202" y="374" type="curve"/>
      <point x="202" y="399"/>
      <point x="202" y="373"/>
      <point x="202" y="398" type="curve"/>
      <point x="103" y="398"/>
      <point x="65" y="301"/>
      <point x="65" y="189" type="curve"/>
      <point x="65" y="88"/>
      <point x="103" y="-2"/>
      <point x="196" y="-2" type="curve"/>
      <point x="259" y="-2"/>
      <point x="288" y="34"/>
      <point x="307" y="77" type="curve"/>
    </contour>
    <contour>
      <point x="178" y="696" type="curve"/>
      <point x="178" y="685"/>
      <point x="185" y="677"/>
      <point x="196" y="677" type="curve"/>
      <point x="208" y="677"/>
      <point x="215" y="686"/>
      <point x="215" y="696" type="curve"/>
      <point x="178" y="696"/>
      <point x="215" y="696"/>
      <point x="178" y="696" type="curve"/>
      <point x="178" y="707"/>
      <point x="185" y="713"/>
      <point x="196" y="713" type="curve"/>
      <point x="208" y="713"/>
      <point x="215" y="707"/>
      <point x="215" y="696" type="curve"/>
      <point x="178" y="696"/>
      <point x="215" y="696"/>
    </contour>
  </outline>
</glyph>
<glyph name="Adieresis" format="1">
  <advance width="532"/>
  <unicode hex="00C4"/>
  <outline>
    <contour>
      <point x="82" y="23" type="curve"/>
      <point x="-46" y="23"/>
      <point x="105" y="23"/>
      <point x="-23" y="23" type="curve"/>
      <point x="-23" y="0"/>
      <point x="-23" y="23"/>
      <point x="-23" y="0" type="curve"/>
      <point x="20" y="0"/>
      <point x="39" y="0"/>
      <point x="82" y="0" type="curve"/>
      <point x="82" y="23"/>
      <point x="82" y="0"/>
    </contour>
    <contour>
      <point x="82" y="0" type="curve"/>
      <point x="128" y="0"/>
      <point x="60" y="0"/>
      <point x="193" y="0" type="curve"/>
      <point x="193" y="23"/>
      <point x="193" y="0"/>
      <point x="193" y="23" type="curve"/>
      <point x="60" y="23"/>
      <point x="216" y="23"/>
      <point x="82" y="23" type="curve"/>
      <point x="82" y="0"/>
      <point x="82" y="23"/>
    </contour>
    <contour>
      <point x="413" y="0" type="curve"/>
      <point x="456" y="0"/>
      <point x="475" y="0"/>
      <point x="518" y="0" type="curve"/>
      <point x="518" y="23"/>
      <point x="518" y="0"/>
      <point x="518" y="23" type="curve"/>
      <point x="390" y="23"/>
      <point x="541" y="23"/>
      <point x="413" y="23" type="curve"/>
      <point x="413" y="0"/>
      <point x="413" y="23"/>
    </contour>
    <contour>
      <point x="413" y="23" type="curve"/>
      <point x="278" y="23"/>
      <point x="436" y="23"/>
      <point x="301" y="23" type="curve"/>
      <point x="301" y="0"/>
      <point x="301" y="23"/>
      <point x="301" y="0" type="curve"/>
      <point x="345" y="0"/>
      <point x="368" y="0"/>
      <point x="413" y="0" type="curve"/>
      <point x="413" y="23"/>
      <point x="413" y="0"/>
    </contour>
    <contour>
      <point x="356" y="277" type="curve"/>
      <point x="287" y="277"/>
      <point x="219" y="277"/>
      <point x="149" y="277" type="curve"/>
      <point x="138" y="253"/>
      <point x="149" y="277"/>
      <point x="138" y="253" type="curve"/>
      <point x="214" y="253"/>
      <point x="289" y="253"/>
      <point x="364" y="253" type="curve"/>
      <point x="356" y="277"/>
      <point x="364" y="253"/>
    </contour>
    <contour>
      <point x="432" y="0" type="curve"/>
      <point x="377" y="241"/>
      <point x="323" y="481"/>
      <point x="269" y="722" type="curve"/>
      <point x="246" y="722"/>
      <point x="269" y="722"/>
      <point x="246" y="722" type="curve"/>
      <point x="299" y="481"/>
      <point x="352" y="241"/>
      <point x="406" y="0" type="curve"/>
      <point x="432" y="0"/>
      <point x="406" y="0"/>
    </contour>
    <contour>
      <point x="89" y="0" type="curve"/>
      <point x="149" y="241"/>
      <point x="208" y="481"/>
      <point x="267" y="722" type="curve"/>
      <point x="244" y="722"/>
      <point x="267" y="722"/>
      <point x="244" y="722" type="curve"/>
      <point x="184" y="481"/>
      <point x="123" y="241"/>
      <point x="61" y="0" type="curve"/>
      <point x="89" y="0"/>
      <point x="61" y="0"/>
    </contour>
    <contour>
      <point x="238" y="838" type="curve"/>
      <point x="238" y="849"/>
      <point x="230" y="856"/>
      <point x="219" y="856" type="curve"/>
      <point x="208" y="856"/>
      <point x="201" y="848"/>
      <point x="201" y="838" type="curve"/>
      <point x="240" y="838"/>
      <point x="198" y="838"/>
      <point x="238" y="838" type="curve"/>
      <point x="238" y="827"/>
      <point x="230" y="822"/>
      <point x="219" y="822" type="curve"/>
      <point x="208" y="822"/>
      <point x="201" y="827"/>
      <point x="201" y="838" type="curve"/>
      <point x="240" y="838"/>
      <point x="198" y="838"/>
    </contour>
    <contour>
      <point x="311" y="838" type="curve"/>
      <point x="311" y="849"/>
      <point x="303" y="856"/>
      <point x="292" y="856" type="curve"/>
      <point x="281" y="856"/>
      <point x="276" y="848"/>
      <point x="276" y="838" type="curve"/>
      <point x="315" y="838"/>
      <point x="272" y="838"/>
      <point x="311" y="838" type="curve"/>
      <point x="311" y="827"/>
      <point x="304" y="822"/>
      <point x="292" y="822" type="curve"/>
      <point x="281" y="822"/>
      <point x="276" y="827"/>
      <point x="276" y="838" type="curve"/>
      <point x="315" y="838"/>
      <point x="272" y="838"/>
    </contour>
  </outline>
</glyph>
<glyph name="AE" format="1">
  <advance width="658"/>
  <unicode hex="00C6"/>
  <outline>
    <contour>
      <point x="73" y="23" type="curve"/>
      <point x="-28" y="23"/>
      <point x="82" y="23"/>
      <point x="-19" y="23" type="curve"/>
      <point x="-19" y="0"/>
      <point x="-19" y="23"/>
      <point x="-19" y="0" type="curve"/>
      <point x="15" y="0"/>
      <point x="39" y="0"/>
      <point x="73" y="0" type="curve"/>
      <point x="73" y="23"/>
      <point x="73" y="0"/>
    </contour>
    <contour>
      <point x="73" y="0" type="curve"/>
      <point x="109" y="0"/>
      <point x="57" y="0"/>
      <point x="162" y="0" type="curve"/>
      <point x="162" y="23"/>
      <point x="162" y="0"/>
      <point x="162" y="23" type="curve"/>
      <point x="57" y="23"/>
      <point x="179" y="23"/>
      <point x="73" y="23" type="curve"/>
      <point x="73" y="0"/>
      <point x="73" y="23"/>
    </contour>
    <contour>
      <point x="348" y="283" type="curve"/>
      <point x="279" y="283"/>
      <point x="248" y="283"/>
      <point x="178" y="283" type="curve"/>
      <point x="168" y="259"/>
      <point x="178" y="283"/>
      <point x="168" y="259" type="curve"/>
      <point x="244" y="259"/>
      <point x="281" y="259"/>
      <point x="356" y="259" type="curve"/>
      <point x="348" y="283"/>
      <point x="356" y="259"/>
    </contour>
    <contour>
      <point x="80" y="0" type="curve"/>
      <point x="359" y="722" type="line"/>
      <point x="336" y="722"/>
      <point x="360" y="722"/>
      <point x="337" y="722" type="curve"/>
      <point x="53" y="0" type="line"/>
      <point x="81" y="0"/>
      <point x="52" y="0"/>
    </contour>
    <contour>
      <point x="609" y="11" type="curve"/>
      <point x="609" y="131"/>
      <point x="609" y="0"/>
      <point x="609" y="121" type="curve"/>
      <point x="586" y="121"/>
      <point x="609" y="121"/>
      <point x="586" y="121" type="curve"/>
      <point x="586" y="0"/>
      <point x="586" y="131"/>
      <point x="586" y="11" type="curve"/>
      <point x="609" y="11"/>
      <point x="586" y="11"/>
    </contour>
    <contour>
      <point x="565" y="711" type="curve"/>
      <point x="565" y="591"/>
      <point x="565" y="722"/>
      <point x="565" y="602" type="curve"/>
      <point x="588" y="602"/>
      <point x="565" y="602"/>
      <point x="588" y="602" type="curve"/>
      <point x="588" y="722"/>
      <point x="588" y="591"/>
      <point x="588" y="711" type="curve"/>
      <point x="565" y="711"/>
      <point x="588" y="711"/>
    </contour>
    <contour>
      <point x="351" y="23" type="curve"/>
      <point x="224" y="23"/>
      <point x="374" y="23"/>
      <point x="247" y="23" type="curve"/>
      <point x="247" y="0"/>
      <point x="247" y="23"/>
      <point x="247" y="0" type="curve"/>
      <point x="290" y="0"/>
      <point x="309" y="0"/>
      <point x="351" y="0" type="curve"/>
      <point x="351" y="23"/>
      <point x="351" y="0"/>
    </contour>
    <contour>
      <point x="351" y="722" type="curve"/>
      <point x="309" y="722"/>
      <point x="290" y="722"/>
      <point x="247" y="722" type="curve"/>
      <point x="247" y="699"/>
      <point x="247" y="722"/>
      <point x="247" y="699" type="curve"/>
      <point x="374" y="699"/>
      <point x="224" y="699"/>
      <point x="351" y="699" type="curve"/>
      <point x="351" y="722"/>
      <point x="351" y="699"/>
    </contour>
    <contour>
      <point x="353" y="363" type="curve"/>
      <point x="419" y="363"/>
      <point x="484" y="363"/>
      <point x="551" y="363" type="curve"/>
      <point x="551" y="385"/>
      <point x="551" y="363"/>
      <point x="551" y="385" type="curve"/>
      <point x="484" y="385"/>
      <point x="419" y="385"/>
      <point x="353" y="385" type="curve"/>
      <point x="353" y="363"/>
      <point x="353" y="385"/>
    </contour>
    <contour>
      <point x="344" y="699" type="curve"/>
      <point x="426" y="699"/>
      <point x="507" y="699"/>
      <point x="588" y="699" type="curve"/>
      <point x="588" y="722"/>
      <point x="588" y="699"/>
      <point x="588" y="722" type="curve"/>
      <point x="507" y="722"/>
      <point x="426" y="722"/>
      <point x="344" y="722" type="curve"/>
      <point x="344" y="699"/>
      <point x="344" y="722"/>
    </contour>
    <contour>
      <point x="363" y="0" type="curve"/>
      <point x="363" y="722" type="line"/>
      <point x="338" y="722"/>
      <point x="363" y="722"/>
      <point x="338" y="722" type="curve"/>
      <point x="338" y="481"/>
      <point x="338" y="241"/>
      <point x="338" y="0" type="curve"/>
      <point x="363" y="0"/>
      <point x="338" y="0"/>
    </contour>
    <contour>
      <point x="344" y="0" type="curve"/>
      <point x="433" y="0"/>
      <point x="521" y="0"/>
      <point x="609" y="0" type="curve"/>
      <point x="609" y="23"/>
      <point x="609" y="0"/>
      <point x="609" y="23" type="curve"/>
      <point x="521" y="23"/>
      <point x="433" y="23"/>
      <point x="344" y="23" type="curve"/>
      <point x="344" y="0"/>
      <point x="344" y="23"/>
    </contour>
  </outline>
</glyph>
<glyph name="Ccedilla" format="1">
  <advance width="463"/>
  <unicode hex="00C7"/>
  <outline>
    <contour>
      <point x="382" y="655" type="curve"/>
      <point x="382" y="535"/>
      <point x="382" y="655"/>
      <point x="382" y="535" type="curve"/>
      <point x="405" y="535"/>
      <point x="382" y="535"/>
      <point x="405" y="535" type="curve"/>
      <point x="405" y="655"/>
      <point x="405" y="535"/>
      <point x="405" y="655" type="curve"/>
      <point x="382" y="655"/>
      <point x="405" y="655"/>
    </contour>
    <contour>
      <point x="405" y="655" type="curve"/>
      <point x="368" y="694"/>
      <point x="323" y="727"/>
      <point x="266" y="727" type="curve"/>
      <point x="92" y="727"/>
      <point x="67" y="553"/>
      <point x="67" y="344" type="curve"/>
      <point x="67" y="154"/>
      <point x="93" y="-5"/>
      <point x="253" y="-5" type="curve"/>
      <point x="330" y="-5"/>
      <point x="373" y="35"/>
      <point x="417" y="96" type="curve"/>
      <point x="400" y="114"/>
      <point x="416" y="96"/>
      <point x="399" y="114" type="curve"/>
      <point x="360" y="60"/>
      <point x="322" y="22"/>
      <point x="254" y="22" type="curve"/>
      <point x="110" y="22"/>
      <point x="92" y="171"/>
      <point x="92" y="345" type="curve"/>
      <point x="92" y="537"/>
      <point x="112" y="702"/>
      <point x="264" y="702" type="curve"/>
      <point x="316" y="702"/>
      <point x="358" y="672"/>
      <point x="391" y="637" type="curve"/>
      <point x="405" y="655"/>
      <point x="391" y="637"/>
    </contour>
    <contour>
      <point x="235" y="9" type="curve"/>
      <point x="225" y="-18"/>
      <point x="217" y="-46"/>
      <point x="208" y="-72" type="curve"/>
      <point x="226" y="-91"/>
      <point x="208" y="-72"/>
      <point x="226" y="-91" type="curve"/>
      <point x="235" y="-63"/>
      <point x="245" y="-34"/>
      <point x="254" y="-7" type="curve"/>
      <point x="235" y="9"/>
      <point x="254" y="-7"/>
    </contour>
    <contour>
      <point x="226" y="-91" type="curve"/>
      <point x="233" y="-82"/>
      <point x="239" y="-78"/>
      <point x="250" y="-78" type="curve"/>
      <point x="274" y="-78"/>
      <point x="276" y="-104"/>
      <point x="276" y="-134" type="curve"/>
      <point x="276" y="-164"/>
      <point x="267" y="-189"/>
      <point x="241" y="-189" type="curve"/>
      <point x="225" y="-189"/>
      <point x="213" y="-185"/>
      <point x="202" y="-172" type="curve"/>
      <point x="191" y="-189"/>
      <point x="202" y="-172"/>
      <point x="191" y="-189" type="curve"/>
      <point x="206" y="-204"/>
      <point x="220" y="-211"/>
      <point x="240" y="-211" type="curve"/>
      <point x="282" y="-211"/>
      <point x="302" y="-177"/>
      <point x="302" y="-134" type="curve"/>
      <point x="302" y="-91"/>
      <point x="289" y="-55"/>
      <point x="251" y="-55" type="curve"/>
      <point x="234" y="-55"/>
      <point x="222" y="-61"/>
      <point x="208" y="-72" type="curve"/>
      <point x="226" y="-91"/>
      <point x="208" y="-72"/>
    </contour>
  </outline>
</glyph>
<glyph name="Igrave" format="1">
  <advance width="284"/>
  <unicode hex="00CC"/>
  <outline>
    <contour>
      <point x="140" y="722" type="curve"/>
      <point x="98" y="722"/>
      <point x="79" y="722"/>
      <point x="36" y="722" type="curve"/>
      <point x="36" y="699"/>
      <point x="36" y="722"/>
      <point x="36" y="699" type="curve"/>
      <point x="163" y="699"/>
      <point x="13" y="699"/>
      <point x="140" y="699" type="curve"/>
      <point x="140" y="722"/>
      <point x="140" y="699"/>
    </contour>
    <contour>
      <point x="140" y="699" type="curve"/>
      <point x="267" y="699"/>
      <point x="118" y="699"/>
      <point x="245" y="699" type="curve"/>
      <point x="245" y="722"/>
      <point x="245" y="699"/>
      <point x="245" y="722" type="curve"/>
      <point x="202" y="722"/>
      <point x="182" y="722"/>
      <point x="140" y="722" type="curve"/>
      <point x="140" y="699"/>
      <point x="140" y="722"/>
    </contour>
    <contour>
      <point x="140" y="0" type="curve"/>
      <point x="182" y="0"/>
      <point x="202" y="0"/>
      <point x="245" y="0" type="curve"/>
      <point x="245" y="23"/>
      <point x="245" y="0"/>
      <point x="245" y="23" type="curve"/>
      <point x="118" y="23"/>
      <point x="267" y="23"/>
      <point x="140" y="23" type="curve"/>
      <point x="140" y="0"/>
      <point x="140" y="23"/>
    </contour>
    <contour>
      <point x="140" y="23" type="curve"/>
      <point x="13" y="23"/>
      <point x="163" y="23"/>
      <point x="36" y="23" type="curve"/>
      <point x="36" y="0"/>
      <point x="36" y="23"/>
      <point x="36" y="0" type="curve"/>
      <point x="79" y="0"/>
      <point x="98" y="0"/>
      <point x="140" y="0" type="curve"/>
      <point x="140" y="23"/>
      <point x="140" y="0"/>
    </contour>
    <contour>
      <point x="153" y="0" type="curve"/>
      <point x="153" y="241"/>
      <point x="153" y="481"/>
      <point x="153" y="722" type="curve"/>
      <point x="128" y="722"/>
      <point x="153" y="722"/>
      <point x="128" y="722" type="curve"/>
      <point x="128" y="481"/>
      <point x="128" y="241"/>
      <point x="128" y="0" type="curve"/>
      <point x="153" y="0"/>
      <point x="128" y="0"/>
    </contour>
    <contour>
      <point x="156" y="825" type="line"/>
      <point x="108" y="991" type="line"/>
      <point x="76" y="991" type="line"/>
      <point x="131" y="825" type="line"/>
    </contour>
  </outline>
</glyph>
<glyph name="Icircumflex" format="1">
  <advance width="278"/>
  <unicode hex="00CE"/>
  <outline>
    <contour>
      <point x="141" y="722" type="curve"/>
      <point x="99" y="722"/>
      <point x="79" y="722"/>
      <point x="37" y="722" type="curve"/>
      <point x="37" y="699"/>
      <point x="37" y="722"/>
      <point x="37" y="699" type="curve"/>
      <point x="164" y="699"/>
      <point x="14" y="699"/>
      <point x="141" y="699" type="curve"/>
      <point x="141" y="722"/>
      <point x="141" y="699"/>
    </contour>
    <contour>
      <point x="141" y="699" type="curve"/>
      <point x="268" y="699"/>
      <point x="119" y="699"/>
      <point x="246" y="699" type="curve"/>
      <point x="246" y="722"/>
      <point x="246" y="699"/>
      <point x="246" y="722" type="curve"/>
      <point x="203" y="722"/>
      <point x="183" y="722"/>
      <point x="141" y="722" type="curve"/>
      <point x="141" y="699"/>
      <point x="141" y="722"/>
    </contour>
    <contour>
      <point x="141" y="0" type="curve"/>
      <point x="183" y="0"/>
      <point x="203" y="0"/>
      <point x="246" y="0" type="curve"/>
      <point x="246" y="23"/>
      <point x="246" y="0"/>
      <point x="246" y="23" type="curve"/>
      <point x="119" y="23"/>
      <point x="268" y="23"/>
      <point x="141" y="23" type="curve"/>
      <point x="141" y="0"/>
      <point x="141" y="23"/>
    </contour>
    <contour>
      <point x="141" y="23" type="curve"/>
      <point x="14" y="23"/>
      <point x="164" y="23"/>
      <point x="37" y="23" type="curve"/>
      <point x="37" y="0"/>
      <point x="37" y="23"/>
      <point x="37" y="0" type="curve"/>
      <point x="79" y="0"/>
      <point x="99" y="0"/>
      <point x="141" y="0" type="curve"/>
      <point x="141" y="23"/>
      <point x="141" y="0"/>
    </contour>
    <contour>
      <point x="154" y="0" type="curve"/>
      <point x="154" y="241"/>
      <point x="154" y="481"/>
      <point x="154" y="722" type="curve"/>
      <point x="129" y="722"/>
      <point x="154" y="722"/>
      <point x="129" y="722" type="curve"/>
      <point x="129" y="481"/>
      <point x="129" y="241"/>
      <point x="129" y="0" type="curve"/>
      <point x="154" y="0"/>
      <point x="129" y="0"/>
    </contour>
    <contour>
      <point x="97" y="825" type="line"/>
      <point x="152" y="991" type="line"/>
      <point x="121" y="991" type="line"/>
      <point x="73" y="825" type="line"/>
    </contour>
    <contour>
      <point x="210" y="825" type="line"/>
      <point x="162" y="991" type="line"/>
      <point x="132" y="991" type="line"/>
      <point x="186" y="825" type="line"/>
    </contour>
  </outline>
</glyph>
<glyph name="Idieresis" format="1">
  <advance width="287"/>
  <unicode hex="00CF"/>
  <outline>
    <contour>
      <point x="143" y="722" type="curve"/>
      <point x="101" y="722"/>
      <point x="82" y="722"/>
      <point x="40" y="722" type="curve"/>
      <point x="40" y="699"/>
      <point x="40" y="722"/>
      <point x="40" y="699" type="curve"/>
      <point x="166" y="699"/>
      <point x="17" y="699"/>
      <point x="143" y="699" type="curve"/>
      <point x="143" y="722"/>
      <point x="143" y="699"/>
    </contour>
    <contour>
      <point x="143" y="699" type="curve"/>
      <point x="271" y="699"/>
      <point x="121" y="699"/>
      <point x="249" y="699" type="curve"/>
      <point x="249" y="722"/>
      <point x="249" y="699"/>
      <point x="249" y="722" type="curve"/>
      <point x="206" y="722"/>
      <point x="185" y="722"/>
      <point x="143" y="722" type="curve"/>
      <point x="143" y="699"/>
      <point x="143" y="722"/>
    </contour>
    <contour>
      <point x="143" y="0" type="curve"/>
      <point x="185" y="0"/>
      <point x="206" y="0"/>
      <point x="249" y="0" type="curve"/>
      <point x="249" y="23"/>
      <point x="249" y="0"/>
      <point x="249" y="23" type="curve"/>
      <point x="121" y="23"/>
      <point x="271" y="23"/>
      <point x="143" y="23" type="curve"/>
      <point x="143" y="0"/>
      <point x="143" y="23"/>
    </contour>
    <contour>
      <point x="143" y="23" type="curve"/>
      <point x="17" y="23"/>
      <point x="166" y="23"/>
      <point x="40" y="23" type="curve"/>
      <point x="40" y="0"/>
      <point x="40" y="23"/>
      <point x="40" y="0" type="curve"/>
      <point x="82" y="0"/>
      <point x="101" y="0"/>
      <point x="143" y="0" type="curve"/>
      <point x="143" y="23"/>
      <point x="143" y="0"/>
    </contour>
    <contour>
      <point x="156" y="0" type="curve"/>
      <point x="156" y="241"/>
      <point x="156" y="481"/>
      <point x="156" y="722" type="curve"/>
      <point x="131" y="722"/>
      <point x="156" y="722"/>
      <point x="131" y="722" type="curve"/>
      <point x="131" y="481"/>
      <point x="131" y="241"/>
      <point x="131" y="0" type="curve"/>
      <point x="156" y="0"/>
      <point x="131" y="0"/>
    </contour>
    <contour>
      <point x="125" y="838" type="curve"/>
      <point x="125" y="849"/>
      <point x="118" y="856"/>
      <point x="107" y="856" type="curve"/>
      <point x="95" y="856"/>
      <point x="90" y="848"/>
      <point x="90" y="838" type="curve"/>
      <point x="129" y="838"/>
      <point x="86" y="838"/>
      <point x="125" y="838" type="curve"/>
      <point x="125" y="827"/>
      <point x="118" y="822"/>
      <point x="107" y="822" type="curve"/>
      <point x="95" y="822"/>
      <point x="90" y="827"/>
      <point x="90" y="838" type="curve"/>
      <point x="129" y="838"/>
      <point x="86" y="838"/>
    </contour>
    <contour>
      <point x="198" y="838" type="curve"/>
      <point x="198" y="849"/>
      <point x="192" y="856"/>
      <point x="181" y="856" type="curve"/>
      <point x="170" y="856"/>
      <point x="163" y="848"/>
      <point x="163" y="838" type="curve"/>
      <point x="202" y="838"/>
      <point x="159" y="838"/>
      <point x="198" y="838" type="curve"/>
      <point x="198" y="827"/>
      <point x="192" y="822"/>
      <point x="181" y="822" type="curve"/>
      <point x="170" y="822"/>
      <point x="163" y="827"/>
      <point x="163" y="838" type="curve"/>
      <point x="202" y="838"/>
      <point x="159" y="838"/>
    </contour>
  </outline>
</glyph>
<glyph name="Ntilde" format="1">
  <advance width="597"/>
  <unicode hex="00D1"/>
  <outline>
    <contour>
      <point x="144" y="722" type="curve"/>
      <point x="102" y="722"/>
      <point x="83" y="722"/>
      <point x="41" y="722" type="curve"/>
      <point x="41" y="699"/>
      <point x="41" y="722"/>
      <point x="41" y="699" type="curve"/>
      <point x="167" y="699"/>
      <point x="18" y="699"/>
      <point x="144" y="699" type="curve"/>
      <point x="144" y="722"/>
      <point x="144" y="699"/>
    </contour>
    <contour>
      <point x="470" y="699" type="curve"/>
      <point x="597" y="699"/>
      <point x="447" y="699"/>
      <point x="574" y="699" type="curve"/>
      <point x="574" y="722"/>
      <point x="574" y="699"/>
      <point x="574" y="722" type="curve"/>
      <point x="532" y="722"/>
      <point x="513" y="722"/>
      <point x="470" y="722" type="curve"/>
      <point x="470" y="699"/>
      <point x="470" y="722"/>
    </contour>
    <contour>
      <point x="470" y="722" type="curve"/>
      <point x="428" y="722"/>
      <point x="408" y="722"/>
      <point x="366" y="722" type="curve"/>
      <point x="366" y="699"/>
      <point x="366" y="722"/>
      <point x="366" y="699" type="curve"/>
      <point x="492" y="699"/>
      <point x="344" y="699"/>
      <point x="470" y="699" type="curve"/>
      <point x="470" y="722"/>
      <point x="470" y="699"/>
    </contour>
    <contour>
      <point x="143" y="23" type="curve"/>
      <point x="17" y="23"/>
      <point x="166" y="23"/>
      <point x="40" y="23" type="curve"/>
      <point x="40" y="0"/>
      <point x="40" y="23"/>
      <point x="40" y="0" type="curve"/>
      <point x="82" y="0"/>
      <point x="101" y="0"/>
      <point x="143" y="0" type="curve"/>
      <point x="143" y="23"/>
      <point x="143" y="0"/>
    </contour>
    <contour>
      <point x="143" y="0" type="curve"/>
      <point x="185" y="0"/>
      <point x="121" y="0"/>
      <point x="246" y="0" type="curve"/>
      <point x="246" y="23"/>
      <point x="246" y="0"/>
      <point x="246" y="23" type="curve"/>
      <point x="121" y="23"/>
      <point x="269" y="23"/>
      <point x="143" y="23" type="curve"/>
      <point x="143" y="0"/>
      <point x="143" y="23"/>
    </contour>
    <contour>
      <point x="482" y="0" type="curve"/>
      <point x="374" y="241"/>
      <point x="266" y="481"/>
      <point x="159" y="722" type="curve"/>
      <point x="129" y="722"/>
      <point x="160" y="722"/>
      <point x="130" y="722" type="curve"/>
      <point x="238" y="481"/>
      <point x="346" y="241"/>
      <point x="453" y="0" type="curve"/>
      <point x="483" y="0"/>
      <point x="452" y="0"/>
    </contour>
    <contour>
      <point x="457" y="722" type="curve"/>
      <point x="457" y="481"/>
      <point x="457" y="241"/>
      <point x="457" y="0" type="curve"/>
      <point x="481" y="0"/>
      <point x="457" y="0"/>
      <point x="481" y="0" type="curve"/>
      <point x="481" y="241"/>
      <point x="481" y="481"/>
      <point x="481" y="722" type="curve"/>
      <point x="457" y="722"/>
      <point x="481" y="722"/>
    </contour>
    <contour>
      <point x="156" y="0" type="curve"/>
      <point x="156" y="241"/>
      <point x="156" y="481"/>
      <point x="156" y="722" type="curve"/>
      <point x="131" y="722"/>
      <point x="156" y="722"/>
      <point x="131" y="722" type="curve"/>
      <point x="131" y="481"/>
      <point x="131" y="241"/>
      <point x="131" y="0" type="curve"/>
      <point x="156" y="0"/>
      <point x="131" y="0"/>
    </contour>
    <contour>
      <point x="415" y="949" type="curve"/>
      <point x="407" y="900"/>
      <point x="405" y="847"/>
      <point x="375" y="847" type="curve"/>
      <point x="348" y="847"/>
      <point x="338" y="870"/>
      <point x="325" y="896" type="curve"/>
      <point x="310" y="925"/>
      <point x="297" y="950"/>
      <point x="265" y="950" type="curve"/>
      <point x="210" y="950"/>
      <point x="207" y="893"/>
      <point x="200" y="831" type="curve"/>
      <point x="220" y="825"/>
      <point x="200" y="831"/>
      <point x="220" y="825" type="curve"/>
      <point x="227" y="876"/>
      <point x="227" y="927"/>
      <point x="266" y="927" type="curve"/>
      <point x="290" y="927"/>
      <point x="297" y="903"/>
      <point x="308" y="880" type="curve"/>
      <point x="325" y="849"/>
      <point x="340" y="825"/>
      <point x="374" y="825" type="curve"/>
      <point x="429" y="825"/>
      <point x="428" y="885"/>
      <point x="437" y="945" type="curve"/>
      <point x="415" y="949"/>
      <point x="437" y="945"/>
    </contour>
  </outline>
</glyph>
<glyph name="Ograve" format="1">
  <advance width="507"/>
  <unicode hex="00D2"/>
  <outline>
    <contour>
      <point x="93" y="360" type="curve"/>
      <point x="93" y="538"/>
      <point x="104" y="703"/>
      <point x="252" y="703" type="curve"/>
      <point x="399" y="703"/>
      <point x="415" y="540"/>
      <point x="415" y="363" type="curve"/>
      <point x="415" y="188"/>
      <point x="403" y="19"/>
      <point x="255" y="19" type="curve"/>
      <point x="106" y="19"/>
      <point x="93" y="182"/>
      <point x="93" y="360" type="curve"/>
      <point x="67" y="360"/>
      <point x="93" y="360"/>
      <point x="67" y="360" type="curve"/>
      <point x="67" y="167"/>
      <point x="91" y="-5"/>
      <point x="254" y="-5" type="curve"/>
      <point x="416" y="-5"/>
      <point x="440" y="169"/>
      <point x="440" y="363" type="curve"/>
      <point x="440" y="555"/>
      <point x="417" y="727"/>
      <point x="255" y="727" type="curve"/>
      <point x="90" y="727"/>
      <point x="67" y="553"/>
      <point x="67" y="360" type="curve"/>
      <point x="93" y="360"/>
      <point x="67" y="360"/>
    </contour>
    <contour>
      <point x="267" y="825" type="line"/>
      <point x="219" y="991" type="line"/>
      <point x="188" y="991" type="line"/>
      <point x="243" y="825" type="line"/>
    </contour>
  </outline>
</glyph>
